<?xml version="1.0" standalone="no"?>
<!DOCTYPE svg PUBLIC "-//W3C//DTD SVG 20010904//EN"
 "http://www.w3.org/TR/2001/REC-SVG-20010904/DTD/svg10.dtd">
<svg version="1.0" xmlns="http://www.w3.org/2000/svg"
 width="1000.000000pt" height="1000.000000pt" viewBox="0 0 1000.000000 1000.000000"
 preserveAspectRatio="xMidYMid meet">
<metadata>
Created by potrace 1.14, written by Peter Selinger 2001-2017
</metadata>
<g transform="translate(0.000000,1000.000000) scale(0.100000,-0.100000)"
fill="#000000" stroke="none">
<path d="M1255 8586 c-5 -2 -34 -12 -64 -21 -57 -17 -123 -58 -167 -102 -70
-70 -136 -218 -152 -340 -4 -32 -7 -1196 -7 -2588 l0 -2530 24 -60 c49 -122
134 -216 245 -270 81 -40 130 -51 271 -60 55 -4 120 -8 145 -10 25 -3 79 -7
120 -10 41 -3 89 -7 105 -10 28 -4 75 -7 260 -20 44 -4 94 -8 110 -10 17 -2
55 -7 85 -10 97 -10 357 -51 435 -69 11 -3 96 -21 189 -41 93 -19 202 -44 241
-54 182 -48 702 -236 895 -323 133 -61 210 -97 210 -100 0 -7 -3408 -1 -3440
6 -98 23 -186 107 -220 211 -11 33 -14 536 -14 2805 l-1 2766 -25 48 c-33 64
-87 108 -137 111 -83 4 -182 -50 -246 -136 -59 -79 -56 116 -54 -3109 l2
-2955 26 -55 c33 -70 84 -121 157 -157 l57 -28 2002 0 c1102 0 2003 -3 2003
-7 0 -3 18 -25 41 -47 74 -72 68 -71 659 -71 l526 1 49 23 c28 12 66 40 84 62
l35 39 1990 0 c1939 1 1992 1 2044 20 91 33 167 114 193 205 10 36 12 657 13
2980 1 1614 -2 2958 -7 2985 -9 53 -54 135 -90 167 -69 59 -172 96 -211 76
-42 -21 -86 -73 -100 -117 -12 -40 -14 -435 -13 -2796 0 -2204 -2 -2758 -13
-2790 -33 -104 -125 -193 -223 -214 -28 -7 -519 -12 -1333 -15 -1512 -6 -2033
-8 -2054 -6 -13 0 69 43 168 86 17 8 48 21 67 29 198 88 667 255 855 306 121
32 536 119 640 134 25 3 73 10 108 16 34 5 84 12 110 15 26 2 61 6 77 9 17 2
71 6 120 10 97 6 199 14 255 20 33 4 99 10 220 19 30 3 102 8 160 12 104 6
116 7 175 20 65 14 160 69 220 128 68 68 108 137 132 229 17 65 17 80 10 3997
0 404 1 805 3 890 4 185 -3 258 -35 359 -40 127 -103 219 -191 277 -101 67
-159 76 -451 64 -41 -2 -74 -20 -36 -20 25 0 112 -51 147 -86 82 -82 128 -216
142 -420 10 -131 9 -4206 0 -4308 -27 -282 -142 -453 -361 -532 -85 -31 -152
-42 -345 -59 -36 -3 -81 -7 -100 -10 -19 -2 -62 -7 -95 -10 -33 -3 -71 -8 -85
-10 -14 -2 -52 -7 -85 -10 -164 -19 -217 -26 -245 -30 -14 -2 -47 -7 -75 -10
-27 -3 -61 -7 -75 -10 -14 -3 -42 -7 -62 -10 -33 -3 -56 -7 -128 -20 -140 -26
-442 -103 -550 -141 -100 -34 -482 -186 -565 -224 -11 -5 -68 -29 -126 -53
-58 -25 -128 -60 -155 -80 -73 -51 -241 -124 -325 -141 -13 -3 -49 -10 -79
-17 -81 -17 -487 -19 -580 -2 -162 29 -326 93 -430 167 -56 40 -622 276 -843
352 -124 43 -483 132 -602 149 -11 2 -56 8 -100 15 -44 6 -91 13 -105 15 -14
3 -50 7 -80 10 -30 4 -62 8 -70 10 -8 3 -42 7 -76 10 -33 3 -76 8 -95 10 -19
3 -56 7 -84 10 -60 6 -124 13 -185 20 -25 3 -70 8 -100 10 -149 13 -181 17
-259 36 -252 59 -387 208 -433 477 -10 62 -13 505 -13 2252 0 2312 -2 2224 47
2380 38 123 112 211 206 246 58 21 69 30 40 31 -13 0 -88 3 -168 7 -80 3 -149
4 -155 2z"/>
<path d="M1685 8234 c-16 -9 -38 -26 -47 -38 -16 -20 -17 -164 -17 -2273 0
-1239 2 -2267 6 -2284 8 -44 62 -94 122 -114 30 -10 94 -18 163 -20 137 -5
303 -15 330 -20 11 -3 46 -7 77 -10 31 -4 63 -8 71 -10 8 -2 40 -7 70 -10 30
-3 66 -8 80 -10 31 -6 62 -10 165 -25 44 -6 91 -13 105 -15 14 -2 45 -7 70
-10 64 -8 144 -23 220 -42 36 -8 75 -17 88 -19 13 -3 92 -24 175 -49 331 -96
690 -230 967 -360 225 -106 261 -122 318 -139 78 -23 134 -1 169 68 21 40 23
250 23 1971 0 1574 -5 2479 -15 2527 -14 71 -26 87 -109 139 -179 114 -445
239 -709 333 -173 61 -462 149 -567 171 -8 2 -67 15 -130 30 -200 46 -502 103
-680 129 -86 12 -259 36 -295 40 -22 3 -58 7 -80 10 -70 10 -124 15 -203 22
-42 3 -88 8 -102 10 -14 2 -72 7 -130 9 -86 5 -111 3 -135 -11z"/>
<path d="M8207 8244 c-1 -1 -36 -5 -77 -8 -73 -7 -89 -9 -195 -20 -27 -4 -70
-8 -95 -11 -25 -3 -61 -7 -80 -10 -19 -2 -57 -7 -85 -10 -86 -11 -118 -15
-144 -20 -14 -2 -46 -7 -69 -10 -43 -5 -190 -30 -362 -61 -156 -28 -403 -85
-590 -136 -185 -50 -439 -130 -472 -148 -10 -6 -22 -10 -28 -10 -6 0 -29 -9
-53 -19 -23 -10 -60 -26 -82 -34 -157 -59 -464 -219 -574 -299 -41 -29 -50
-103 -52 -422 -1 -160 -2 -1155 -2 -2211 -1 -2132 -6 -1966 65 -2016 62 -45
137 -24 428 120 52 26 98 48 102 49 4 2 29 12 55 23 421 183 1019 368 1313
405 75 10 100 13 240 34 80 12 161 23 180 26 19 2 46 6 60 9 14 2 52 7 85 10
33 4 70 8 81 10 38 6 185 15 313 20 69 3 141 10 160 16 49 16 98 54 117 92 16
29 17 213 17 2294 0 2120 -1 2264 -17 2289 -26 39 -77 56 -163 52 -41 -1 -75
-3 -76 -4z"/>
</g>
</svg>
