<svg width="51" height="38" viewBox="0 0 51 38" fill="none" xmlns="http://www.w3.org/2000/svg">
<path d="M25.7019 36.9515C28.0657 36.9515 29.9819 35.9128 29.9819 34.6315C29.9819 33.3502 28.0657 32.3115 25.7019 32.3115C23.3381 32.3115 21.4219 33.3502 21.4219 34.6315C21.4219 35.9128 23.3381 36.9515 25.7019 36.9515Z" fill="#212121"/>
<mask id="mask0_108_9573" style="mask-type:alpha" maskUnits="userSpaceOnUse" x="0" y="3" width="51" height="34">
<path d="M49.38 3.64697H1.62344C0.739782 3.64697 0.0234375 4.36332 0.0234375 5.24697V35.3513C0.0234375 36.2349 0.739782 36.9513 1.62344 36.9513H49.38C50.2637 36.9513 50.98 36.2349 50.98 35.3513V5.24697C50.98 4.36332 50.2637 3.64697 49.38 3.64697Z" fill="black"/>
</mask>
<g mask="url(#mask0_108_9573)">
<path d="M0.0234375 4.75574C0.0234375 4.09534 0.558717 3.56006 1.21904 3.56006C1.87944 3.56006 2.41472 4.09534 2.41472 4.75574V32.7426C2.41472 33.6263 3.13104 34.3426 4.01472 34.3426H25.6321L47.212 34.2617C48.0934 34.2584 48.806 33.543 48.806 32.6617V4.64702C48.806 4.0467 49.2926 3.56006 49.893 3.56006C50.4933 3.56006 50.9799 4.0467 50.9799 4.64702V35.2644C50.9799 36.1481 50.2636 36.8644 49.3799 36.8644H1.62344C0.739758 36.8644 0.0234375 36.1481 0.0234375 35.2644V4.75574Z" fill="#212121"/>
</g>
<path d="M27.9019 32.2314H23.4219V32.3914H27.9019V32.2314Z" fill="#212121"/>
<path d="M27.9822 34.9512H23.0222C22.3153 34.9512 21.7422 35.5242 21.7422 36.2312C21.7422 36.9381 22.3153 37.5112 23.0222 37.5112H27.9822C28.6891 37.5112 29.2622 36.9381 29.2622 36.2312C29.2622 35.5242 28.6891 34.9512 27.9822 34.9512Z" fill="#212121"/>
<mask id="mask1_108_9573" style="mask-type:alpha" maskUnits="userSpaceOnUse" x="4" y="0" width="44" height="36">
<path d="M25.9023 7.04814V32.7569C25.9023 33.9076 27.0767 34.6748 28.1275 34.2059C30.7742 33.0248 33.9719 31.6162 36.099 31.1502C38.4093 30.6441 42.001 30.1881 44.8003 30.0325C45.6763 29.9838 46.3823 29.2705 46.3823 28.3931V2.55126C46.3823 1.66758 45.6663 0.954944 44.7839 1.00222C42.7808 1.10942 39.5971 1.40631 36.099 2.08103C32.0311 2.86559 28.4318 4.64558 26.6068 5.75526C26.1578 6.02838 25.9023 6.52262 25.9023 7.04814Z" fill="#FFDD2D" stroke="#FFDD2D" stroke-width="1.76"/>
<path d="M25.5034 7.04814V32.7569C25.5034 33.9076 24.329 34.6748 23.2782 34.2059C20.6316 33.0248 17.4339 31.6162 15.3068 31.1502C12.9965 30.6441 9.4048 30.1881 6.60552 30.0325C5.72952 29.9838 5.02344 29.2705 5.02344 28.3931V2.55126C5.02344 1.66758 5.73944 0.954944 6.62184 1.00222C8.62496 1.10942 11.8087 1.40631 15.3068 2.08103C19.3747 2.86559 22.974 4.64558 24.799 5.75526C25.248 6.02838 25.5034 6.52262 25.5034 7.04814Z" fill="#FFDD2D" stroke="#FFDD2D" stroke-width="1.76"/>
</mask>
<g mask="url(#mask1_108_9573)">
<path d="M6.30476 24.1913C6.30476 23.0313 6.30476 12.6313 6.30476 12.6313V4.03133C6.30476 1.72005 6.60332 0.198607 8.64268 0.150847C8.34676 0.146447 7.74572 0.135008 6.66476 0.111328C5.14476 0.111328 3.98476 1.27133 4.14476 3.95133C4.30476 6.63133 4.06476 17.4713 4.06476 24.1913C4.06476 30.9113 3.22476 30.8713 9.50476 31.1513C14.5288 31.3753 19.5448 33.378 21.4248 34.3513L25.5048 32.2713C23.0648 32.2713 21.8248 31.1513 21.8248 31.1513C21.8248 31.1513 18.3048 29.6553 17.4248 29.3913C16.5448 29.1273 15.3581 28.8713 14.5448 28.7113C13.8648 28.5913 10.9048 28.218 9.50476 28.1113C7.0774 27.9003 6.30476 26.7016 6.30476 24.1913Z" fill="#212121"/>
<path d="M24.4304 6.05411C24.3891 6.02355 24.3587 6.00155 24.3433 5.99131C20.3941 3.35851 13.9433 2.27131 8.86333 1.87131C8.59669 1.85795 8.06333 1.95131 8.06333 2.43131V12.6313V25.3913C8.04997 25.7247 8.18333 26.3513 9.50333 26.3513C11.1643 26.3513 12.7033 26.6723 14.5433 26.9113C16.3833 27.1503 19.5609 28.203 21.8233 29.2313C22.21 29.4313 23.1273 29.8793 23.7033 30.0713C24.2793 30.2633 24.5567 29.7779 24.6233 29.5113C24.7433 21.9913 24.6233 7.03131 24.6233 7.03131C24.6233 7.03131 24.6297 6.28939 24.4304 6.05411Z" fill="#212121"/>
<path d="M45.1062 24.1913C45.1062 23.0313 45.1062 12.6313 45.1062 12.6313V4.03133C45.1062 1.72005 44.8077 0.198607 42.7683 0.150847C43.0642 0.146447 43.6653 0.135008 44.7463 0.111328C46.2662 0.111328 47.4263 1.27133 47.2662 3.95133C47.1062 6.63133 47.3462 17.4713 47.3462 24.1913C47.3462 30.9113 48.1862 30.8713 41.9062 31.1513C36.8822 31.3753 31.8663 33.378 29.9862 34.3513L25.9062 32.2713C28.3463 32.2713 29.5862 31.1513 29.5862 31.1513C29.5862 31.1513 33.1062 29.6553 33.9862 29.3913C34.8663 29.1273 36.0529 28.8713 36.8663 28.7113C37.5462 28.5913 40.5062 28.218 41.9062 28.1113C44.3336 27.9003 45.1062 26.7016 45.1062 24.1913Z" fill="#212121"/>
<path d="M26.9768 6.05411C27.018 6.02355 27.0484 6.00155 27.0638 5.99131C31.013 3.35851 37.4638 2.27131 42.5438 1.87131C42.8104 1.85795 43.3438 1.95131 43.3438 2.43131V12.6313V25.3913C43.3572 25.7247 43.2238 26.3513 41.9038 26.3513C40.2428 26.3513 38.7038 26.6723 36.8638 26.9113C35.0238 27.1503 31.8462 28.203 29.5838 29.2313C29.1972 29.4313 28.2798 29.8793 27.7038 30.0713C27.1278 30.2633 26.8504 29.7779 26.7838 29.5113C26.6638 21.9913 26.7838 7.03131 26.7838 7.03131C26.7838 7.03131 26.7775 6.28939 26.9768 6.05411Z" fill="#212121"/>
</g>
</svg>
