<svg width="25" height="24" viewBox="0 0 25 24" fill="none" xmlns="http://www.w3.org/2000/svg">
<path opacity="0.5" d="M5.18373 2.67865C5.48912 2.37068 5.91789 2.16988 6.72757 2.06011C7.56106 1.9471 8.66574 1.94533 10.2496 1.94533H14.6634C16.2473 1.94533 17.352 1.9471 18.1855 2.06011C18.9952 2.16988 19.424 2.37068 19.7294 2.67865C20.0348 2.98662 20.2339 3.41901 20.3427 4.23553C20.4548 5.07606 20.4565 6.19006 20.4565 7.78734L20.4565 17.9453H7.88252C6.7989 17.9453 6.42006 17.9511 6.12975 18.0135C5.61636 18.1239 5.17005 18.3604 4.84465 18.68C4.73492 18.7878 4.68005 18.8417 4.5535 19.1851C4.4809 19.3821 4.45654 19.514 4.45654 19.6457V7.78734C4.45654 6.19006 4.4583 5.07606 4.57036 4.23553C4.67922 3.41901 4.87833 2.98662 5.18373 2.67865Z" fill="#212121"/>
<path d="M20.4565 17.9453H7.88252C6.7989 17.9453 6.42006 17.9511 6.12975 18.0135C5.61636 18.1239 5.17005 18.3604 4.84465 18.68C4.73492 18.7878 4.68005 18.8417 4.5535 19.1851C4.42695 19.5285 4.44699 19.6741 4.48708 19.9654C4.49415 20.0167 4.50177 20.0669 4.50997 20.1159C4.61925 20.7681 4.81913 21.1135 5.12571 21.3595C5.43228 21.6056 5.8627 21.766 6.6755 21.8536C7.51221 21.9439 8.62114 21.9453 10.2112 21.9453H14.642C16.232 21.9453 17.3409 21.9439 18.1776 21.8536C18.9904 21.766 19.4208 21.6056 19.7274 21.3595C19.927 21.1994 20.0814 20.997 20.195 20.6953H8.45654C8.04233 20.6953 7.70654 20.3595 7.70654 19.9453C7.70654 19.5311 8.04233 19.1953 8.45654 19.1953H20.4319C20.4491 18.8321 20.4547 18.4195 20.4565 17.9453Z" fill="#212121"/>
<path d="M7.70654 6.94533C7.70654 6.53111 8.04233 6.19533 8.45654 6.19533H16.4565C16.8708 6.19533 17.2065 6.53111 17.2065 6.94533C17.2065 7.35954 16.8708 7.69533 16.4565 7.69533H8.45654C8.04233 7.69533 7.70654 7.35954 7.70654 6.94533Z" fill="#212121"/>
<path d="M8.45654 9.69533C8.04233 9.69533 7.70654 10.0311 7.70654 10.4453C7.70654 10.8595 8.04233 11.1953 8.45654 11.1953H13.4565C13.8708 11.1953 14.2065 10.8595 14.2065 10.4453C14.2065 10.0311 13.8708 9.69533 13.4565 9.69533H8.45654Z" fill="#212121"/>
</svg>
