<svg width="24" height="25" viewBox="0 0 24 25" fill="none" xmlns="http://www.w3.org/2000/svg">
<path opacity="0.5" d="M7.24502 2.51123H16.755C17.9139 2.51123 18.4933 2.51123 18.9606 2.67384C19.8468 2.98219 20.5425 3.69842 20.842 4.61069C21 5.09178 21 5.68828 21 6.88129V20.8854C21 21.7437 20.015 22.199 19.3919 21.6288C19.0258 21.2939 18.4742 21.2939 18.1081 21.6288L17.625 22.0709C16.9834 22.658 16.0166 22.658 15.375 22.0709C14.7334 21.4838 13.7666 21.4838 13.125 22.0709C12.4834 22.658 11.5166 22.658 10.875 22.0709C10.2334 21.4838 9.26659 21.4838 8.625 22.0709C7.98341 22.658 7.01659 22.658 6.375 22.0709L5.8919 21.6288C5.52583 21.2939 4.97417 21.2939 4.6081 21.6288C3.985 22.199 3 21.7437 3 20.8854V6.88129C3 5.68828 3 5.09178 3.15795 4.61069C3.45748 3.69842 4.15322 2.98219 5.03939 2.67384C5.50671 2.51123 6.08614 2.51123 7.24502 2.51123Z" fill="#212121"/>
<path d="M15.0595 9.01075C15.3353 8.70177 15.3085 8.22766 14.9995 7.95178C14.6905 7.67591 14.2164 7.70275 13.9405 8.01173L10.9286 11.3851L10.0595 10.4117C9.78358 10.1027 9.30947 10.0759 9.00049 10.3518C8.69151 10.6277 8.66467 11.1018 8.94055 11.4107L10.3691 13.0107C10.5114 13.1701 10.7149 13.2612 10.9286 13.2612C11.1422 13.2612 11.3457 13.1701 11.488 13.0107L15.0595 9.01075Z" fill="#212121"/>
<path d="M7.5 15.2612C7.08579 15.2612 6.75 15.597 6.75 16.0112C6.75 16.4255 7.08579 16.7612 7.5 16.7612H16.5C16.9142 16.7612 17.25 16.4255 17.25 16.0112C17.25 15.597 16.9142 15.2612 16.5 15.2612H7.5Z" fill="#212121"/>
</svg>