<svg width="155" height="121" viewBox="0 0 155 121" fill="none" xmlns="http://www.w3.org/2000/svg">
<g clip-path="url(#clip0_52_234)">
<path d="M107.932 121.666L105.063 121.666L103.698 110.569H107.933L107.932 121.666Z" fill="#FFB6B6"/>
<path d="M107.856 120.727L104.792 119.477L104.705 119.441L103.013 120.727C102.058 120.727 101.143 121.107 100.467 121.785C99.7922 122.462 99.4128 123.38 99.4126 124.338V124.455H108.663V120.727H107.856Z" fill="#2F2E41"/>
<path d="M133.856 117.926L131.289 119.209L125.13 109.887L128.92 107.993L133.856 117.926Z" fill="#FFB6B6"/>
<path d="M134.094 116.757L133.437 117.084L133.37 117.118L130.077 117.373L129.978 117.38L129.036 119.285C128.612 119.497 128.235 119.79 127.925 120.148C127.614 120.506 127.378 120.921 127.228 121.371C127.078 121.821 127.017 122.296 127.051 122.769C127.084 123.242 127.21 123.704 127.421 124.128L127.472 124.232L135.751 120.095L134.094 116.757Z" fill="#2F2E41"/>
<path d="M105.986 62.0166L121.807 62.5719L121.917 62.4112C121.917 62.4112 123.267 65.5689 123.267 68.2755C123.267 69.1754 122.643 75.0611 122.96 76.1747C122.999 76.3132 122.728 76.6525 122.817 77.2975C122.875 77.7159 123.193 77.394 123.267 77.9741C123.319 78.3904 122.758 78.6203 122.817 79.1018C122.881 79.628 123.653 81.3323 123.722 81.9175C124.462 88.1485 125.447 97.1754 125.447 97.1754C125.447 97.1754 129.402 107.799 130.239 107.972C131.643 108.262 132.592 110.823 131.813 111.355C131.443 111.609 126.653 113.315 126.653 113.315C126.39 113.363 125.566 112.949 126.091 111.969C126.187 111.789 125.611 112.248 125.516 112.032C125.414 111.802 125.614 110.889 125.497 110.634C124.45 108.347 122.843 105.176 121.32 103.548C119.07 101.143 117.645 98.0794 117.253 94.8047L113.759 75.3793L112.562 80.8267L111.571 81.8084L111.843 84.0975L111.796 86.3194L109.322 95.5669C109.322 95.5669 108.951 112.837 109.547 113.385C109.87 113.682 111.239 117.341 108.647 117.671L103.938 117.306C103.938 117.306 103.304 115.965 103.621 115.488C103.938 115.011 103.919 115.141 103.532 114.36C103.145 113.579 103.304 112.256 103.304 112.256C102.687 106.036 102.443 99.7856 102.575 93.537C102.811 83.2738 104.242 71.4835 104.242 71.2432C104.253 70.9976 104.208 70.7526 104.11 70.5275V69.8797L104.717 67.5844L105.986 62.0166Z" fill="#2F2E41"/>
<path d="M128.25 63.9565C131.7 63.9565 134.498 61.1513 134.498 57.6908C134.498 54.2303 131.7 51.425 128.25 51.425C124.799 51.425 122.002 54.2303 122.002 57.6908C122.002 61.1513 124.799 63.9565 128.25 63.9565Z" fill="#FFDD2D"/>
<path d="M127.397 60.9519C127.289 60.9519 127.183 60.9267 127.086 60.8783C126.99 60.8299 126.906 60.7596 126.841 60.673L125.137 58.3938C125.082 58.3206 125.042 58.2373 125.02 58.1486C124.997 58.0599 124.992 57.9677 125.005 57.8771C125.018 57.7865 125.048 57.6993 125.095 57.6205C125.141 57.5418 125.203 57.473 125.276 57.4181C125.349 57.3632 125.432 57.3232 125.52 57.3005C125.609 57.2778 125.701 57.2728 125.791 57.2857C125.881 57.2987 125.968 57.3293 126.047 57.376C126.125 57.4226 126.194 57.4843 126.249 57.5575L127.364 59.0485L130.228 54.7401C130.279 54.6638 130.344 54.5983 130.42 54.5473C130.496 54.4963 130.581 54.4608 130.67 54.4428C130.76 54.4248 130.852 54.4247 130.942 54.4424C131.031 54.4602 131.116 54.4955 131.192 54.5463C131.268 54.5971 131.334 54.6624 131.384 54.7385C131.435 54.8146 131.471 54.9 131.488 54.9898C131.506 55.0796 131.506 55.1721 131.489 55.2619C131.471 55.3517 131.435 55.4372 131.385 55.5133L127.976 60.6415C127.914 60.7342 127.831 60.8108 127.734 60.8648C127.637 60.9187 127.528 60.9485 127.417 60.9517C127.41 60.9518 127.404 60.9519 127.397 60.9519Z" fill="white"/>
<path d="M131.339 64.3148C131.4 64.0586 131.404 63.7921 131.351 63.5341C131.298 63.2761 131.19 63.0329 131.033 62.8216C130.876 62.6102 130.675 62.436 130.444 62.311C130.213 62.1861 129.957 62.1135 129.695 62.0984L126.493 51.1597L124.328 53.6802L127.773 63.9221C127.777 64.3655 127.943 64.7922 128.24 65.1211C128.536 65.4501 128.943 65.6585 129.382 65.7069C129.822 65.7553 130.264 65.6403 130.625 65.3838C130.985 65.1272 131.24 64.7469 131.339 64.3148Z" fill="#FFB8B8"/>
<path d="M129.081 58.9784L128.665 57.4491L129.141 56.5357L129.105 56.4297L128.961 56.0192L128.215 55.4192L128.482 54.6546L127.538 51.9638L127.306 51.4969L121.884 40.5781L120.584 37.9595L120.282 37.4858L119.344 36.0107L118.062 33.9966C117.858 33.6747 117.593 33.3966 117.281 33.1786C116.969 32.9606 116.617 32.807 116.245 32.7267C116.125 32.7003 116.003 32.6814 115.881 32.6704L115.793 32.6636C115.574 32.6515 115.354 32.6643 115.138 32.7019H115.134C114.753 32.7682 114.39 32.9125 114.068 33.126C113.814 33.2907 113.588 33.4947 113.398 33.7304C112.96 34.2751 112.732 34.9597 112.757 35.6589L112.797 36.7596L112.838 37.761L114.74 41.2119L114.864 41.4374L114.866 41.4442L120.721 52.0675L122.486 55.2703L122.754 55.7575L123.941 56.5469L123.624 57.3409L123.717 58.5769L124.726 59.3415L126.191 60.8324L126.249 60.9542L126.699 60.7264L126.742 60.7038L126.843 60.6745L128.235 60.2527L129.081 59.9978L129.108 59.9888L129.339 59.9302L129.081 58.9784Z" fill="#E6E6E6"/>
<path d="M153.148 108.635C152.724 108.094 152.148 107.693 151.495 107.484C150.842 107.275 150.14 107.266 149.482 107.46L149.338 107.503L148.047 112.557C147.854 111.804 147.44 110.104 147.179 108.439L147.157 108.301L147.029 108.358C145.679 108.956 144.41 109.723 143.252 110.64C141.201 112.29 139.533 114.369 138.363 116.731C137.194 119.092 136.551 121.681 136.48 124.318L136.478 124.415L136.476 124.475L136.647 124.415L140.315 123.1C141.939 123.243 143.575 123.021 145.102 122.45C146.63 121.879 148.011 120.972 149.145 119.798C150.627 118.23 151.644 116.214 152.627 114.263C152.914 113.694 153.209 113.108 153.51 112.544C153.847 111.931 153.992 111.231 153.927 110.534C153.863 109.837 153.591 109.176 153.148 108.635Z" fill="#F2F2F2"/>
<path d="M59.0132 24.7292H58.5634V7.35229H91.0983V7.80339H59.0132V24.7292Z" fill="#3F3D56"/>
<path d="M96.0875 12.5315C99.5382 12.5315 102.336 9.72622 102.336 6.26574C102.336 2.80527 99.5382 0 96.0875 0C92.6368 0 89.8395 2.80527 89.8395 6.26574C89.8395 9.72622 92.6368 12.5315 96.0875 12.5315Z" fill="#FFDD2D"/>
<path d="M95.2352 9.52685C95.1273 9.52685 95.0209 9.50164 94.9244 9.45324C94.8279 9.40484 94.744 9.33457 94.6792 9.248L92.9747 6.96877C92.9199 6.89555 92.8801 6.81223 92.8574 6.72356C92.8348 6.6349 92.8298 6.54263 92.8427 6.45202C92.8556 6.36142 92.8862 6.27425 92.9327 6.19549C92.9792 6.11674 93.0407 6.04794 93.1137 5.99303C93.1867 5.93812 93.2698 5.89816 93.3582 5.87545C93.4466 5.85274 93.5387 5.84771 93.629 5.86066C93.7194 5.8736 93.8063 5.90427 93.8848 5.95091C93.9633 5.99754 94.0319 6.05923 94.0867 6.13245L95.2019 7.62346L98.0661 3.31504C98.1167 3.2388 98.1817 3.1733 98.2576 3.12228C98.3334 3.07127 98.4185 3.03575 98.5081 3.01775C98.5976 2.99975 98.6898 2.99962 98.7794 3.01737C98.869 3.03512 98.9543 3.07041 99.0302 3.12121C99.1062 3.17201 99.1715 3.23733 99.2223 3.31344C99.2731 3.38955 99.3084 3.47495 99.3263 3.56476C99.3442 3.65457 99.3442 3.74704 99.3264 3.83687C99.3086 3.9267 99.2734 4.01213 99.2226 4.08829L95.8135 9.21646C95.7519 9.3092 95.6689 9.38577 95.5717 9.43973C95.4744 9.4937 95.3656 9.52349 95.2545 9.52662C95.2481 9.52673 95.2416 9.52685 95.2352 9.52685Z" fill="white"/>
<path d="M36.9719 66.917H36.5221V84.2939H69.057V83.8428H36.9719V66.917Z" fill="#3F3D56"/>
<path d="M74.0462 90.5713C77.4969 90.5713 80.2943 87.766 80.2943 84.3055C80.2943 80.8451 77.4969 78.0398 74.0462 78.0398C70.5956 78.0398 67.7982 80.8451 67.7982 84.3055C67.7982 87.766 70.5956 90.5713 74.0462 90.5713Z" fill="#FFDD2D"/>
<path d="M73.1939 87.5666C73.086 87.5666 72.9796 87.5414 72.8831 87.493C72.7866 87.4446 72.7027 87.3744 72.638 87.2878L70.9334 85.0086C70.8787 84.9353 70.8388 84.852 70.8162 84.7634C70.7935 84.6747 70.7885 84.5824 70.8014 84.4918C70.8143 84.4012 70.8449 84.314 70.8914 84.2353C70.9379 84.1565 70.9994 84.0877 71.0725 84.0328C71.1455 83.9779 71.2286 83.938 71.317 83.9153C71.4054 83.8925 71.4974 83.8875 71.5877 83.9005C71.6781 83.9134 71.765 83.9441 71.8435 83.9907C71.9221 84.0373 71.9907 84.099 72.0454 84.1723L73.1606 85.6633L76.0248 81.3548C76.0754 81.2786 76.1405 81.2131 76.2163 81.1621C76.2922 81.1111 76.3773 81.0755 76.4668 81.0575C76.5564 81.0395 76.6486 81.0394 76.7382 81.0572C76.8278 81.0749 76.913 81.1102 76.989 81.161C77.065 81.2118 77.1302 81.2771 77.181 81.3532C77.2318 81.4293 77.2672 81.5147 77.285 81.6046C77.3029 81.6944 77.3029 81.7868 77.2852 81.8767C77.2674 81.9665 77.2321 82.0519 77.1814 82.1281L73.7723 87.2563C73.7106 87.349 73.6277 87.4256 73.5304 87.4795C73.4331 87.5335 73.3244 87.5633 73.2133 87.5664C73.2068 87.5665 73.2004 87.5666 73.1939 87.5666Z" fill="white"/>
<path d="M123.492 67.556C123.498 68.031 123.422 68.5034 123.267 68.9521L123.233 68.9454C119.238 69.6382 115.675 69.7516 114.027 67.2927C111.876 64.5465 108.918 64.5775 105.618 65.7832L105.227 65.3592L104.561 64.6397L105.173 63.945L104.561 62.6052L105.071 60.9519L105.724 60.8324L105.548 59.4092L105.274 58.5769L106.079 57.6905L106.763 55.4779L106.27 50.8474C105.596 44.5002 106.902 38.0997 110.008 32.5283L111.877 30.8457L112.653 30.1465L113.695 28.1978L114.794 28.3263L117.772 28.6714L117.873 28.915L118.604 30.6833L122.455 34.8311L122.282 36.5814L122.205 37.3528L122.149 37.9076L121.884 40.5781L120.802 51.4879L120.721 52.0676L119.85 58.3401C121.265 59.7114 122.516 62.3526 123.116 64.766C123.184 65.0344 122.992 65.3073 123.042 65.5689C123.112 65.9388 123.415 66.2907 123.449 66.6358C123.48 66.9415 123.495 67.2487 123.492 67.556Z" fill="#E6E6E6"/>
<path d="M115.865 27.4993C118.722 27.4993 121.037 25.1771 121.037 22.3125C121.037 19.4479 118.722 17.1257 115.865 17.1257C113.009 17.1257 110.693 19.4479 110.693 22.3125C110.693 25.1771 113.009 27.4993 115.865 27.4993Z" fill="#FFB6B6"/>
<path d="M122.1 20.8975C121.794 19.9404 120.954 19.1307 119.958 19.0249C120.033 18.3892 119.933 17.745 119.669 17.1623C119.405 16.5797 118.986 16.0809 118.459 15.7203C117.931 15.3597 117.315 15.1511 116.678 15.1172C116.041 15.0833 115.406 15.2255 114.844 15.5282C114.724 15.3842 114.57 15.2736 114.395 15.2071C114.22 15.1405 114.032 15.1203 113.847 15.1484C113.478 15.2094 113.13 15.3624 112.835 15.5932C112.102 16.1307 111.528 16.8573 111.175 17.6958C110.821 18.5343 110.701 19.4533 110.827 20.3549C110.824 19.8975 111.026 20.7824 111.606 20.8605C112.088 20.9579 112.548 21.148 112.959 21.4204C113.37 21.6926 113.828 21.8852 114.31 21.9881C114.796 22.0594 114.921 24.0135 114.574 25.2721C114.508 25.5106 114.475 25.8306 114.694 25.9443C114.964 26.0843 115.237 25.7323 115.539 25.698C115.674 25.6959 115.805 25.7466 115.904 25.8394C116.003 25.9323 116.062 26.06 116.069 26.1958C116.069 26.3319 116.037 26.4662 115.975 26.5874C115.913 26.7086 115.823 26.8132 115.713 26.8925C115.491 27.0489 115.245 27.1683 114.985 27.2461L115.073 27.3702C115.149 27.5121 115.272 27.623 115.421 27.6839C115.57 27.7447 115.735 27.7517 115.889 27.7037C116.234 28.1221 119.799 26.9604 119.972 26.1968C120.719 25.5224 121.339 24.7193 121.803 23.8257C122.266 22.9221 122.373 21.8762 122.1 20.8975Z" fill="#2F2E41"/>
<path d="M126.283 36.6942C126.211 37.2987 125.646 37.7498 125.052 37.8761C124.751 37.9344 124.441 37.9397 124.137 37.8919C123.84 37.8477 123.547 37.7821 123.26 37.6957C122.905 37.5942 122.553 37.4799 122.205 37.3528C121.211 36.997 120.253 36.5477 119.344 36.0108C118.657 35.6083 117.998 35.1576 117.374 34.662C117.05 34.4049 116.736 34.1365 116.432 33.8568L116.812 34.0373C116.472 33.5794 116.133 33.1215 115.793 32.6637C115.465 32.2216 115.137 31.7795 114.81 31.3375C114.79 31.3104 114.774 31.2923 114.767 31.2833V31.2811C114.617 31.0803 114.468 30.8796 114.32 30.6789C113.872 30.0766 113.431 29.1925 113.946 28.6489C114.056 28.5431 114.19 28.4648 114.335 28.4205C114.481 28.3762 114.635 28.3671 114.785 28.394C114.947 28.4151 115.103 28.4655 115.246 28.5429C115.64 28.7984 115.974 29.1362 116.225 29.5331C116.576 29.0211 117.257 28.8316 117.873 28.9151C117.907 28.9173 117.939 28.9218 117.97 28.9263C118.611 29.0369 118.888 28.6895 119.443 29.0301C119.702 29.188 119.859 30 120.118 30.1578C120.264 30.2481 120.806 30.3834 120.955 30.4759C121.247 30.6563 121.173 31.3307 121.467 31.5111C121.686 31.6442 122.27 31.2856 122.488 31.4187C122.718 31.5608 123.037 32.499 123.267 32.6389C123.723 32.9208 124.09 32.4066 124.546 32.6862C125.133 33.0494 125.759 33.4531 126.006 34.0982C126.224 34.6666 125.943 35.4447 125.401 35.6071C125.66 35.6381 125.897 35.7689 126.061 35.9717C126.226 36.1746 126.305 36.4337 126.283 36.6942Z" fill="#E6E6E6"/>
<path opacity="0.2" d="M122.205 37.3526L122.149 37.9075C121.511 37.8459 120.884 37.7042 120.282 37.4857C119.489 37.2189 118.802 36.7063 118.319 36.0219C118.013 35.5618 117.693 35.1039 117.374 34.6619C116.843 33.9221 116.317 33.2319 115.881 32.6703C115.348 31.9914 114.947 31.4997 114.81 31.3373C114.79 31.3102 114.774 31.2922 114.767 31.2831L114.76 31.2764L114.767 31.2809C117.44 34.6728 119.964 36.6287 122.282 36.5813C122.282 36.5813 122.554 37.479 122.205 37.3526Z" fill="black"/>
<path d="M97.7494 10.1904C97.6835 10.4454 97.6743 10.7117 97.7222 10.9707C97.7701 11.2297 97.8741 11.475 98.0268 11.6893C98.1794 11.9036 98.3771 12.0817 98.6059 12.2112C98.8347 12.3406 99.0889 12.4181 99.3508 12.4383L102.341 23.4371L104.555 20.9591L101.307 10.6522C101.312 10.2088 101.154 9.77902 100.864 9.44437C100.574 9.10973 100.171 8.89346 99.7328 8.83653C99.2943 8.7796 98.8501 8.88597 98.4846 9.13549C98.119 9.38501 97.8574 9.76035 97.7494 10.1904Z" fill="#FFB8B8"/>
<path d="M115.303 38.3158L115.282 37.3144L113.398 33.7304L113.328 33.5996L113.323 33.5928L111.877 30.8456L104.899 17.5775L104.149 17.3014L104.187 16.2237L104.149 15.0459L103.249 14.4406L102.865 13.7107L102.321 13.8663H102.318L102.303 13.8708L99.9232 14.5407H99.9209L99.4261 14.8204L98.9763 16.1737L98.8778 16.8144L98.9763 17.9781L100.101 18.2036L99.7283 19.3969L100.859 22.8296C102.273 28.8292 104.205 34.0078 107.541 36.9648L107.815 37.4159L109.986 40.9773C110.282 41.4645 110.715 41.8528 111.231 42.0932C111.747 42.3336 112.323 42.4155 112.885 42.3283H112.887C113.269 42.2689 113.635 42.1323 113.962 41.9268C114.264 41.7399 114.528 41.4973 114.74 41.2118C115.128 40.6957 115.333 40.0648 115.323 39.4187L115.303 38.3158Z" fill="#E6E6E6"/>
<path d="M18.8089 34.6688C18.8052 31.2784 20.0969 28.0154 22.4184 25.5506L14.4513 14.5539C14.1233 14.1009 13.7019 13.724 13.2156 13.449C12.7294 13.174 12.1897 13.0073 11.6334 12.9603C11.0772 12.9133 10.5173 12.987 9.992 13.1765C9.4667 13.366 8.98829 13.6668 8.58934 14.0584C5.86015 16.7264 3.69346 19.9172 2.21794 23.4414C0.742428 26.9655 -0.0118159 30.7511 1.49823e-05 34.5732C3.72044e-05 36.0166 0.107338 37.4579 0.321021 38.8853C0.40485 39.4496 0.610419 39.9888 0.923396 40.4653C1.23637 40.9417 1.64922 41.344 2.13316 41.644C2.61163 41.941 3.14894 42.1297 3.70762 42.197C4.2663 42.2643 4.83289 42.2086 5.36789 42.0337L19.1247 37.5512C18.9153 36.6047 18.8095 35.6383 18.8089 34.6688Z" fill="#F2F2F2"/>
<path d="M19.5406 39.0261L5.23857 43.6863C4.70927 43.8579 4.22293 44.1416 3.8125 44.5181C3.40208 44.8947 3.07717 45.3553 2.85978 45.8688C2.6424 46.3823 2.53762 46.9367 2.55255 47.4943C2.56747 48.052 2.70176 48.5999 2.9463 49.1009C4.98303 53.2447 7.98541 56.8354 11.6992 59.5689C15.4131 62.3024 19.729 64.0982 24.2816 64.8044C24.8361 64.8899 25.4024 64.854 25.9418 64.6994C26.4811 64.5447 26.9807 64.2749 27.4063 63.9084C27.8314 63.5429 28.1725 63.0895 28.4063 62.5793C28.6401 62.0691 28.761 61.5142 28.7607 60.9527V47.5568C26.6425 47.0056 24.6927 45.9387 23.0843 44.4505C21.4759 42.9624 20.2587 41.0992 19.5406 39.0261Z" fill="#E6E6E6"/>
<path d="M62.5506 47.396C62.3091 46.821 61.9469 46.3049 61.4888 45.8828C61.0306 45.4607 60.4872 45.1424 59.8955 44.9497L44.2972 39.8672C43.3867 42.0146 41.9295 43.8845 40.0715 45.2894C38.2136 46.6943 36.0202 47.585 33.7109 47.8723V64.1703C33.7113 64.7959 33.8464 65.414 34.1072 65.9824C34.3679 66.5507 34.7481 67.0558 35.2217 67.463C35.6952 67.8703 36.251 68.17 36.8508 68.3418C37.4507 68.5135 38.0805 68.5532 38.6971 68.4581C43.765 67.672 48.5694 65.6728 52.7036 62.6299C56.8378 59.587 60.18 55.59 62.4473 50.9772C62.7199 50.4227 62.8702 49.8158 62.8881 49.1979C62.9059 48.5799 62.7908 47.9653 62.5506 47.396Z" fill="#3F3D56"/>
<path d="M58.6752 10.013C58.2311 9.57702 57.6986 9.24216 57.1138 9.0312C56.5291 8.82024 55.9058 8.73813 55.2866 8.79047C54.6673 8.84281 54.0666 9.02837 53.5253 9.3345C52.984 9.64064 52.5148 10.0602 52.1497 10.5645L41.4856 25.2841C42.7124 26.5174 43.685 27.9809 44.3478 29.5912C45.0106 31.2014 45.3506 32.9268 45.3484 34.6688C45.3484 34.9929 45.3328 35.3131 45.3101 35.6314L62.2614 41.1549C62.8608 41.3489 63.4951 41.4095 64.1203 41.3326C64.7454 41.2556 65.3463 41.0429 65.8811 40.7093C66.4159 40.3757 66.8717 39.9291 67.2168 39.4008C67.562 38.8724 67.7881 38.275 67.8795 37.6501C68.1174 36.0611 68.2368 34.4565 68.2368 32.8497C68.2499 28.5949 67.4103 24.3809 65.7678 20.4579C64.1252 16.5349 61.7133 12.983 58.6752 10.013Z" fill="#FFDD2D"/>
<path d="M32.0787 21.3614C34.3617 21.3589 36.6064 21.95 38.5936 23.0771L45.1025 14.0929C45.4343 13.6354 45.6632 13.1111 45.7733 12.5562C45.8834 12.0013 45.8721 11.4291 45.7403 10.8791C45.6126 10.3395 45.3697 9.8341 45.0284 9.3978C44.687 8.96151 44.2553 8.6047 43.7631 8.35198C39.7445 6.30244 35.301 5.23098 30.7926 5.2244C26.2842 5.21781 21.8376 6.27629 17.8131 8.31409C17.3056 8.5709 16.8598 8.9353 16.5066 9.38203C16.1535 9.82877 15.9014 10.3472 15.7678 10.9013C15.6361 11.4475 15.6244 12.0159 15.7335 12.5672C15.8426 13.1184 16.07 13.6392 16.3997 14.0936L23.7836 24.2854C26.1345 22.3895 29.0618 21.3576 32.0787 21.3614Z" fill="#E6E6E6"/>
</g>
<defs>
<clipPath id="clip0_52_234">
<rect width="155" height="125" fill="white"/>
</clipPath>
</defs>
</svg>
