<svg width="91" height="97" viewBox="0 0 91 97" fill="none" xmlns="http://www.w3.org/2000/svg">
<g clip-path="url(#clip0_52_184)">
<path d="M34.8364 15.4349C37.219 15.4349 39.1504 13.492 39.1504 11.0953C39.1504 8.69854 37.219 6.75562 34.8364 6.75562C32.4539 6.75562 30.5225 8.69854 30.5225 11.0953C30.5225 13.492 32.4539 15.4349 34.8364 15.4349Z" fill="#FD6584"/>
<path d="M44.4913 9.04028C44.3697 8.63899 44.134 8.28224 43.8134 8.01397C43.4927 7.74569 43.101 7.5776 42.6866 7.53039C42.677 7.52957 42.6672 7.52957 42.6575 7.53039C42.6459 7.52673 42.6341 7.52402 42.622 7.52226C41.1776 7.33373 39.5716 7.79206 38.4907 8.78999C38.0895 9.1546 37.7686 9.59974 37.5488 10.0967C37.3484 9.82141 37.0843 9.59937 36.7795 9.44984C36.4746 9.30031 36.138 9.2278 35.799 9.23857C35.3618 9.26764 34.9441 9.43167 34.6029 9.70827C34.2617 9.98487 34.0137 10.3606 33.8925 10.7842C33.8792 10.836 33.8829 10.8907 33.9029 10.9402C33.923 10.9897 33.9585 11.0313 34.004 11.0589C34.1339 11.1707 34.2884 11.2498 34.4548 11.2897C34.8118 11.3661 35.1721 11.436 35.5324 11.4993C36.2369 11.6229 36.9451 11.7231 37.657 11.8C38.1272 11.8504 38.5984 11.8905 39.0708 11.9203C40.0466 11.9821 41.0273 11.9967 42.0048 11.9658C42.4895 11.9495 42.9548 11.9333 43.3975 11.7188C43.7201 11.5592 43.9958 11.3177 44.1973 11.0183C44.387 10.7302 44.5116 10.4038 44.5624 10.0621C44.6132 9.72035 44.589 9.37156 44.4913 9.04028Z" fill="#E6E6E6"/>
<path d="M35.6164 15.3627C35.6083 15.1809 35.5779 15.0007 35.526 14.8264C35.4037 14.4251 35.1677 14.0685 34.8468 13.8002C34.5259 13.532 34.1342 13.3639 33.7196 13.3165C33.7105 13.3156 33.7013 13.3156 33.6922 13.3165C33.68 13.313 33.6675 13.3103 33.655 13.3083C32.8556 13.2098 32.0444 13.2937 31.2816 13.5538C30.1086 13.9487 29.0794 14.7451 28.5834 15.8828C28.3828 15.6073 28.1185 15.3852 27.8133 15.2356C27.5081 15.0861 27.1713 15.0137 26.832 15.0246C26.3948 15.0537 25.9771 15.2177 25.6359 15.4943C25.2947 15.7709 25.0467 16.1467 24.9255 16.5703C24.9129 16.622 24.917 16.6765 24.937 16.7258C24.957 16.7751 24.992 16.8168 25.037 16.845C25.1671 16.9564 25.3216 17.0355 25.4878 17.0757C25.8464 17.1521 26.2051 17.222 26.567 17.2854C27.2715 17.4089 27.9791 17.5092 28.69 17.5861C30.1343 17.7421 31.5876 17.7974 33.0394 17.7519C33.5225 17.7356 33.9894 17.7194 34.4321 17.5048C34.7543 17.3452 35.0294 17.1037 35.2303 16.8043C35.5135 16.3798 35.6493 15.8729 35.6164 15.3627Z" fill="#E6E6E6"/>
<path d="M67.5562 70.1279H63.6237V8.37186C63.3587 8.1752 63.0921 7.98016 62.8223 7.79001C62.769 7.75262 62.7157 7.71524 62.6623 7.67786C59.552 5.48936 56.1875 3.69146 52.6435 2.32416L51.8809 12.9048L51.8809 12.9054H46.9741V0.550972C46.6542 0.471333 46.3343 0.396569 46.0112 0.326682V12.9054H27.4826V0C27.1611 0.0601357 26.8396 0.121897 26.5197 0.188534V12.9054H21.4514L21.4513 12.9048L20.6516 1.80895C17.2027 3.01156 13.9066 4.61866 10.8315 6.59704C10.7248 6.6653 10.6182 6.73357 10.5116 6.80508C10.2967 6.94485 10.0818 7.08788 9.87015 7.23253V70.1279H4.33323C3.62483 70.1275 2.92715 70.3019 2.30134 70.6358C1.67552 70.9697 1.1407 71.4529 0.743748 72.0432C0.346798 72.6334 0.0998422 73.3126 0.0245383 74.0211C-0.0507657 74.7297 0.0478789 75.446 0.311823 76.1073C0.391016 76.3073 0.485548 76.5007 0.594566 76.6859C0.73537 76.9275 0.898757 77.155 1.0825 77.3653C1.48839 77.8306 1.98834 78.2034 2.54894 78.4587C3.10953 78.7141 3.71786 78.8461 4.33324 78.846H67.5562C68.7055 78.846 69.8077 78.3867 70.6203 77.5692C71.433 76.7518 71.8895 75.643 71.8895 74.4869C71.8895 73.3309 71.433 72.2221 70.6203 71.4046C69.8077 70.5872 68.7055 70.1279 67.5562 70.1279ZM50.8243 27.5945L47.7658 70.1279H25.5664L22.508 27.5945H50.8243ZM51.8114 13.8739L51.057 24.3661H46.9742V13.8739H51.8114ZM46.0112 13.8739V24.3661H38.6385C38.4909 24.0747 38.266 23.83 37.9888 23.6591C37.7116 23.4882 37.3928 23.3977 37.0676 23.3976H36.1048C35.7797 23.3977 35.4609 23.4882 35.1837 23.6591C34.9065 23.83 34.6816 24.0747 34.534 24.3661H27.4826V13.8739H46.0112ZM26.5197 24.3661H22.2753L21.5208 13.8739H26.5197V24.3661Z" fill="#F2F2F2"/>
<path d="M0.382568 77.1567C1.78615 78.8297 3.30427 80.402 4.92585 81.8619L66.2536 82.0245C67.8752 80.5645 69.3933 78.9923 70.7969 77.3193L0.382568 77.1567Z" fill="#3F3D56"/>
<path d="M31.3535 61.4222V78.0912H42.9622V61.4222C42.9623 61.3024 42.9243 61.1856 42.8536 61.089C42.783 60.9925 42.6834 60.9213 42.5695 60.8859C42.5159 60.8681 42.4596 60.8593 42.4031 60.8599H31.9142C31.8406 60.8597 31.7678 60.8742 31.6998 60.9024C31.6318 60.9306 31.57 60.972 31.518 61.0242C31.4659 61.0764 31.4246 61.1385 31.3964 61.2068C31.3681 61.2751 31.3536 61.3483 31.3535 61.4222ZM35.8839 67.1498C35.887 66.8212 36.0189 66.5071 36.2509 66.2758C36.483 66.0446 36.7964 65.9148 37.1231 65.9148C37.4498 65.9148 37.7632 66.0446 37.9953 66.2758C38.2273 66.5071 38.3592 66.8212 38.3623 67.1498V69.0839C38.3606 69.4134 38.2294 69.7288 37.9971 69.9612C37.7649 70.1936 37.4507 70.3241 37.1231 70.3241C36.7955 70.3241 36.4813 70.1936 36.2491 69.9612C36.0168 69.7288 35.8855 69.4134 35.8839 69.0839V67.1498Z" fill="#2F2E41"/>
<path d="M31.3179 77.5581V79.1655C31.3181 79.2488 31.351 79.3286 31.4094 79.3876C31.4678 79.4466 31.5469 79.4801 31.6297 79.4808H42.6858C42.7686 79.4804 42.8479 79.447 42.9064 79.3879C42.9648 79.3288 42.9976 79.2489 42.9976 79.1655V77.5581H31.3179Z" fill="#3F3D56"/>
<path d="M13.0914 36.3083V66.7434C13.0917 67.1313 13.245 67.5032 13.5177 67.7774C13.7903 68.0517 14.16 68.2059 14.5455 68.2062H59.3805C59.7661 68.2059 60.1358 68.0517 60.4084 67.7774C60.681 67.5032 60.8343 67.1313 60.8346 66.7434V36.3083C60.8337 35.9208 60.6802 35.5494 60.4076 35.2756C60.1351 35.0017 59.7658 34.8477 59.3805 34.8472H14.5455C14.1603 34.8477 13.791 35.0017 13.5184 35.2756C13.2459 35.5494 13.0923 35.9208 13.0914 36.3083Z" fill="#3F3D56"/>
<path d="M14.1433 36.687V66.368C14.1437 66.5752 14.2257 66.7738 14.3713 66.9204C14.517 67.0669 14.7144 67.1494 14.9205 67.1497H59.0074C59.2134 67.1494 59.4109 67.0669 59.5565 66.9204C59.7022 66.7738 59.7842 66.5752 59.7845 66.368V36.687C59.7845 36.4795 59.7027 36.2805 59.557 36.1336C59.4113 35.9867 59.2136 35.904 59.0074 35.9036H14.9205C14.7142 35.904 14.5165 35.9868 14.3709 36.1336C14.2252 36.2805 14.1433 36.4795 14.1433 36.687Z" fill="#6C63FF"/>
<path d="M23.1329 79.8596C23.1778 79.9162 23.2348 79.9619 23.2998 79.9931C23.3647 80.0243 23.4358 80.0404 23.5078 80.04H49.7367C49.8084 80.0399 49.8792 80.0238 49.9439 79.9927C50.0087 79.9616 50.0657 79.9164 50.1109 79.8604C50.1561 79.8043 50.1883 79.7388 50.2051 79.6687C50.222 79.5986 50.2231 79.5255 50.2084 79.4549L49.8013 77.5095C49.7844 77.4301 49.7481 77.3563 49.6956 77.2947C49.6431 77.2331 49.5761 77.1857 49.5008 77.1568C49.4462 77.1352 49.3881 77.1242 49.3295 77.1243H23.9133C23.8547 77.1242 23.7966 77.1352 23.742 77.1568C23.6667 77.1857 23.5997 77.2331 23.5472 77.2947C23.4947 77.3563 23.4584 77.4301 23.4415 77.5095L23.0344 79.4549C23.0199 79.5255 23.0212 79.5984 23.0383 79.6685C23.0553 79.7385 23.0877 79.8038 23.1329 79.8596Z" fill="#2F2E41"/>
<path d="M23.9133 77.5305C23.9053 77.5304 23.8974 77.5318 23.8899 77.5346C23.8771 77.5391 23.8655 77.5466 23.8563 77.5566C23.8471 77.5666 23.8404 77.5787 23.837 77.5919L23.4296 79.5385C23.4275 79.5498 23.4278 79.5614 23.4306 79.5725C23.4335 79.5836 23.4387 79.5939 23.446 79.6028L23.4478 79.605C23.4549 79.6142 23.464 79.6216 23.4744 79.6266C23.4848 79.6315 23.4963 79.6339 23.5078 79.6336H49.7366C49.7481 79.6337 49.7594 79.6312 49.7698 79.6263C49.7802 79.6214 49.7893 79.6141 49.7964 79.6051C49.8041 79.5965 49.8096 79.5861 49.8126 79.5749C49.8156 79.5637 49.8159 79.5519 49.8136 79.5405L49.406 77.5929C49.403 77.5802 49.397 77.5684 49.3884 77.5585C49.3799 77.5486 49.3691 77.541 49.357 77.5362C49.3483 77.5325 49.3389 77.5306 49.3295 77.5305H23.9133Z" fill="white"/>
<path d="M16.3379 39.9924H57.5899C57.6328 39.9914 57.6736 39.9736 57.7036 39.9428C57.7336 39.9119 57.7503 39.8705 57.7503 39.8274C57.7503 39.7842 57.7336 39.7428 57.7036 39.712C57.6736 39.6811 57.6328 39.6633 57.5899 39.6624H16.3379C16.2951 39.6633 16.2543 39.6811 16.2243 39.712C16.1943 39.7428 16.1775 39.7842 16.1775 39.8274C16.1775 39.8705 16.1943 39.9119 16.2243 39.9428C16.2543 39.9736 16.2951 39.9914 16.3379 39.9924Z" fill="#3F3D56"/>
<path d="M54.7818 38.8199C55.3128 38.8199 55.7432 38.3772 55.7432 37.8312C55.7432 37.2852 55.3128 36.8425 54.7818 36.8425C54.2509 36.8425 53.8204 37.2852 53.8204 37.8312C53.8204 38.3772 54.2509 38.8199 54.7818 38.8199Z" fill="#3F3D56"/>
<path d="M51.4607 38.8199C51.9916 38.8199 52.4221 38.3772 52.4221 37.8312C52.4221 37.2852 51.9916 36.8425 51.4607 36.8425C50.9297 36.8425 50.4993 37.2852 50.4993 37.8312C50.4993 38.3772 50.9297 38.8199 51.4607 38.8199Z" fill="#3F3D56"/>
<path d="M48.1394 38.8199C48.6703 38.8199 49.1008 38.3772 49.1008 37.8312C49.1008 37.2852 48.6703 36.8425 48.1394 36.8425C47.6084 36.8425 47.178 37.2852 47.178 37.8312C47.178 38.3772 47.6084 38.8199 48.1394 38.8199Z" fill="#3F3D56"/>
<path d="M18.1617 37.2673C18.1616 37.2907 18.1661 37.3139 18.1749 37.3355C18.1837 37.3571 18.1966 37.3768 18.213 37.3934C18.2293 37.41 18.2488 37.4232 18.2702 37.4323C18.2916 37.4413 18.3146 37.446 18.3379 37.4461H20.6967C20.7434 37.445 20.7877 37.4256 20.8203 37.392C20.8529 37.3585 20.8712 37.3134 20.8712 37.2665C20.8712 37.2196 20.8529 37.1745 20.8203 37.141C20.7877 37.1074 20.7434 37.088 20.6967 37.0869H18.3379C18.2908 37.0875 18.2458 37.1068 18.2128 37.1406C18.1798 37.1744 18.1615 37.22 18.1617 37.2673Z" fill="#3F3D56"/>
<path d="M18.1617 37.9419C18.1616 37.9653 18.1661 37.9884 18.1749 38.0101C18.1837 38.0317 18.1966 38.0514 18.213 38.068C18.2293 38.0846 18.2488 38.0978 18.2702 38.1068C18.2916 38.1159 18.3146 38.1206 18.3379 38.1207H20.6967C20.7434 38.1196 20.7878 38.1002 20.8205 38.0667C20.8531 38.0331 20.8714 37.988 20.8714 37.9411C20.8714 37.8941 20.8531 37.849 20.8205 37.8155C20.7878 37.7819 20.7434 37.7625 20.6967 37.7615H18.3379C18.2908 37.762 18.2458 37.7813 18.2128 37.8151C18.1798 37.8489 18.1615 37.8945 18.1617 37.9419Z" fill="#3F3D56"/>
<path d="M18.1617 38.6146C18.1615 38.6619 18.1798 38.7075 18.2128 38.7413C18.2458 38.7751 18.2908 38.7944 18.3379 38.795H20.6967C20.7434 38.7939 20.7877 38.7745 20.8203 38.7409C20.8529 38.7074 20.8712 38.6623 20.8712 38.6154C20.8712 38.5685 20.8529 38.5234 20.8203 38.4898C20.7877 38.4563 20.7434 38.4369 20.6967 38.4358H18.3379C18.3146 38.4359 18.2916 38.4406 18.2702 38.4496C18.2488 38.4587 18.2293 38.4719 18.213 38.4885C18.1966 38.5051 18.1837 38.5248 18.1749 38.5464C18.1661 38.568 18.1616 38.5912 18.1617 38.6146Z" fill="#3F3D56"/>
<path d="M51.4433 45.0298H22.4844C22.1039 45.0302 21.7392 45.1825 21.4702 45.4531C21.2012 45.7237 21.0499 46.0906 21.0494 46.4733V60.6518C21.0499 61.0345 21.2012 61.4014 21.4702 61.672C21.7392 61.9426 22.1039 62.0949 22.4844 62.0953H51.4433C51.8237 62.0949 52.1885 61.9426 52.4575 61.672C52.7265 61.4014 52.8778 61.0345 52.8782 60.6518V46.4733C52.8778 46.0906 52.7265 45.7237 52.4575 45.4531C52.1885 45.1825 51.8237 45.0302 51.4433 45.0298ZM52.5551 46.4733V50.6099H42.3763V45.3548H51.4433C51.7381 45.3552 52.0207 45.4731 52.2291 45.6828C52.4375 45.8925 52.5548 46.1767 52.5551 46.4733ZM31.8745 56.1901V50.9349H42.0532V56.1901H31.8745ZM42.0532 56.5152V61.7703H31.8745V56.5152H42.0532ZM31.5513 56.1901H21.3726V50.9349H31.5513V56.1901ZM31.8745 50.6099V45.3548H42.0532V50.6099H31.8745ZM42.3763 50.9349H52.5551V56.1901H42.3763V50.9349ZM22.4844 45.3548H31.5513V50.6099H21.3726V46.4733C21.3729 46.1767 21.4902 45.8925 21.6986 45.6828C21.907 45.4731 22.1896 45.3552 22.4844 45.3548ZM21.3726 60.6518V56.5152H31.5513V61.7703H22.4844C22.1896 61.7699 21.907 61.652 21.6986 61.4423C21.4901 61.2326 21.3729 60.9483 21.3726 60.6518ZM51.4433 61.7703H42.3764V56.5152H52.5551V60.6518C52.5548 60.9483 52.4376 61.2326 52.2291 61.4423C52.0207 61.652 51.7381 61.7699 51.4433 61.7703Z" fill="#3F3D56"/>
<path d="M35.4921 48.6294C35.2351 48.2019 34.9306 47.7453 34.4537 47.6057C33.9014 47.4441 33.3341 47.7652 32.8529 48.0822C31.4137 49.03 30.0278 50.0573 28.7014 51.1591L28.7029 51.1757L31.8007 50.9608C32.5468 50.909 33.3185 50.8502 33.9778 50.4951C34.228 50.3604 34.4719 50.1804 34.7554 50.1679C35.1076 50.1523 35.4148 50.3998 35.6561 50.6583C37.0838 52.1877 37.4969 54.5264 39.0987 55.87C38.0887 53.3644 36.8827 50.9432 35.4921 48.6294Z" fill="white"/>
<path d="M44.2678 61.6011C44.11 61.4006 44.0454 61.3536 43.8897 61.1512C42.6217 59.5014 41.4298 57.7959 40.3141 56.0347C39.5563 54.8385 38.8361 53.6194 38.1534 52.3773C37.8284 51.7867 37.5123 51.1916 37.2052 50.5918C36.9668 50.1268 36.7338 49.6589 36.506 49.1883C36.4409 49.0539 36.3776 48.9188 36.3147 48.7835C36.1663 48.4652 36.0207 48.1454 35.8643 47.8315C35.7027 47.4545 35.4554 47.1211 35.1421 46.8581C34.9933 46.7442 34.8152 46.6753 34.6288 46.6594C34.3663 46.6609 34.1093 46.735 33.8858 46.8735C32.194 47.7682 30.6149 48.8636 29.1822 50.1363C27.7474 51.4039 26.4649 52.836 25.3609 54.4034C25.3271 54.4519 25.2473 54.4056 25.2814 54.3568C25.4156 54.1658 25.5525 53.9769 25.6921 53.79C27.4274 51.4684 29.5552 49.4718 31.9782 47.8917C32.3858 47.626 32.8011 47.3727 33.2241 47.1319C33.4373 47.0104 33.6514 46.8905 33.8692 46.778C34.0779 46.655 34.312 46.582 34.5533 46.5648C35.3833 46.5519 35.813 47.4974 36.1082 48.1337C36.201 48.3339 36.2949 48.5335 36.3899 48.7325C36.749 49.488 37.1219 50.2367 37.5087 50.9784C37.7473 51.4363 37.9912 51.8916 38.2404 52.3442C39.0157 53.7536 39.8397 55.1344 40.7126 56.4868C41.8688 58.2781 43.0158 59.8605 44.333 61.5356C44.3692 61.582 44.3044 61.6481 44.2678 61.6011Z" fill="white"/>
<path d="M29.1003 49.6693C29.052 49.6153 29.0041 49.5612 28.9556 49.5071C28.5728 49.0813 28.1621 48.6604 27.6365 48.4163C27.3859 48.2962 27.1124 48.2325 26.8348 48.2294C26.5484 48.2373 26.266 48.2992 26.0024 48.412C25.877 48.4624 25.7544 48.5195 25.6337 48.5804C25.4958 48.6502 25.3603 48.7247 25.2255 48.7998C24.9724 48.9407 24.7225 49.0878 24.476 49.2411C23.9854 49.5461 23.5102 49.8743 23.0504 50.2259C22.812 50.4082 22.5785 50.5965 22.35 50.7907C22.1374 50.9712 21.9291 51.1565 21.7252 51.3466C21.6816 51.3871 21.6164 51.3216 21.6601 51.2811C21.7138 51.2308 21.7682 51.1807 21.8226 51.1313C21.9761 50.9916 22.1322 50.8546 22.2907 50.7203C22.5797 50.4749 22.8763 50.2391 23.1803 50.0127C23.653 49.6604 24.1421 49.332 24.6474 49.0275C24.8999 48.8755 25.1559 48.7299 25.4153 48.5906C25.4937 48.5486 25.5729 48.5075 25.6531 48.4685C25.835 48.3762 26.024 48.2988 26.2183 48.2371C26.4935 48.1476 26.7847 48.1188 27.072 48.1528C27.3493 48.1933 27.6166 48.2863 27.8596 48.4268C28.3756 48.717 28.7759 49.1657 29.1654 49.6035C29.2047 49.648 29.1399 49.7138 29.1003 49.6693Z" fill="white"/>
<path d="M39.6741 54.082L40.9107 53.627L41.5247 53.4011C41.7231 53.3208 41.9254 53.2507 42.1309 53.1911C42.3105 53.1395 42.5012 53.1419 42.6795 53.1981C42.8385 53.2573 42.984 53.3481 43.1074 53.465C43.2335 53.5818 43.3509 53.7078 43.4584 53.842C43.5921 54.0036 43.7238 54.1669 43.8561 54.3297C44.4021 55.0014 44.9445 55.676 45.4834 56.3535C46.0222 57.031 46.5574 57.7114 47.0891 58.3947C47.622 59.0797 48.1513 59.7675 48.6769 60.4582C48.7413 60.5428 48.8056 60.6274 48.8699 60.7121C48.9054 60.7589 48.9855 60.7128 48.9494 60.6653C48.42 59.9677 47.8868 59.2729 47.3499 58.581C46.8118 57.8875 46.2699 57.1968 45.7242 56.5092C45.1786 55.8215 44.6293 55.1368 44.0764 54.4551C43.9386 54.2853 43.8006 54.1156 43.6624 53.9462C43.5458 53.8032 43.4305 53.6588 43.3026 53.5257C43.1938 53.3937 43.0601 53.2846 42.9092 53.2047C42.7584 53.1248 42.5933 53.0755 42.4236 53.0598C42.2179 53.0671 42.0153 53.1119 41.8256 53.192C41.6189 53.2673 41.4127 53.3439 41.2062 53.4199L39.9609 53.8781L39.6496 53.9926C39.5944 54.0129 39.6182 54.1025 39.6741 54.082Z" fill="white"/>
<path d="M27.4738 48.9522C27.156 48.7947 26.8023 48.7251 26.449 48.7505C26.0956 48.7759 25.7554 48.8954 25.4631 49.0968C26.5646 49.288 27.654 49.5438 28.7258 49.8629C28.2808 49.6005 27.9326 49.1894 27.4738 48.9522Z" fill="white"/>
<path d="M25.4569 49.0957L25.3359 49.1946C25.3769 49.16 25.4194 49.1275 25.4631 49.0968L25.4569 49.0957Z" fill="white"/>
<path d="M43.0608 54.0866C42.9526 53.9261 42.8017 53.7994 42.6254 53.7209L42.4554 53.7277C43.7495 56.0279 45.4971 58.0377 47.5912 59.6339L43.0608 54.0866Z" fill="white"/>
<path d="M42.2655 51.5681C42.8062 51.5681 43.2445 51.1272 43.2445 50.5834C43.2445 50.0395 42.8062 49.5986 42.2655 49.5986C41.7249 49.5986 41.2866 50.0395 41.2866 50.5834C41.2866 51.1272 41.7249 51.5681 42.2655 51.5681Z" fill="white"/>
<path d="M56.4714 61.5264C56.6642 61.5261 56.8489 61.449 56.9852 61.3119C57.1215 61.1748 57.1982 60.9889 57.1985 60.795V45.6799C57.1985 45.4859 57.1219 45.2999 56.9855 45.1627C56.8492 45.0255 56.6643 44.9485 56.4714 44.9485C56.2786 44.9485 56.0937 45.0255 55.9573 45.1627C55.821 45.2999 55.7444 45.4859 55.7444 45.6799V60.795C55.7447 60.9889 55.8214 61.1748 55.9577 61.3119C56.0939 61.449 56.2787 61.5261 56.4714 61.5264Z" fill="#3F3D56"/>
<path d="M56.4714 61.5265C56.6642 61.5262 56.8489 61.4491 56.9852 61.312C57.1215 61.1749 57.1982 60.989 57.1985 60.7951V57.5901C57.1147 57.4752 57.0053 57.3818 56.879 57.3174C56.7527 57.253 56.613 57.2195 56.4714 57.2195C56.3298 57.2195 56.1902 57.253 56.0639 57.3174C55.9376 57.3818 55.8281 57.4752 55.7444 57.5901V60.7951C55.7447 60.989 55.8214 61.1749 55.9577 61.312C56.0939 61.4491 56.2787 61.5262 56.4714 61.5265Z" fill="#2F2E41"/>
<path d="M56.4714 58.4385C56.6787 58.4382 56.8774 58.3552 57.0239 58.2077C57.1705 58.0603 57.253 57.8604 57.2533 57.6519V54.2049C57.1632 54.0814 57.0455 53.981 56.9097 53.9117C56.7738 53.8425 56.6237 53.8064 56.4714 53.8064C56.3191 53.8064 56.1689 53.8425 56.0331 53.9117C55.8973 53.981 55.7795 54.0814 55.6895 54.2049V57.6519C55.6898 57.8604 55.7722 58.0603 55.9188 58.2077C56.0654 58.3552 56.2641 58.4382 56.4714 58.4385Z" fill="#6C63FF"/>
<path d="M56.4714 57.8117C56.6226 57.8114 56.7676 57.7509 56.8745 57.6434C56.9814 57.5358 57.0415 57.39 57.0418 57.2379V54.7238C56.9761 54.6337 56.8902 54.5604 56.7911 54.5099C56.692 54.4594 56.5825 54.4331 56.4714 54.4331C56.3604 54.4331 56.2509 54.4594 56.1518 54.5099C56.0527 54.5604 55.9668 54.6337 55.9011 54.7238V57.2379C55.9014 57.39 55.9615 57.5358 56.0684 57.6434C56.1753 57.7509 56.3203 57.8114 56.4714 57.8117Z" fill="#3F3D56"/>
<path d="M34.042 78.5072C33.9144 78.3922 33.8373 78.2309 33.8277 78.0589C33.8181 77.8868 33.8767 77.7179 33.9908 77.5892L40.3429 70.4393C40.3995 70.3757 40.468 70.3238 40.5444 70.2868C40.6209 70.2497 40.7039 70.2282 40.7886 70.2234C40.8733 70.2186 40.9582 70.2307 41.0383 70.2589C41.1184 70.2871 41.1922 70.3309 41.2555 70.3878C41.3187 70.4447 41.3703 70.5136 41.4071 70.5905C41.4439 70.6674 41.4653 70.7509 41.4701 70.8361C41.4748 70.9213 41.4628 71.0067 41.4348 71.0873C41.4068 71.1679 41.3632 71.2421 41.3067 71.3058L34.9545 78.4557C34.8402 78.5841 34.6799 78.6616 34.5088 78.6713C34.3378 78.6809 34.1699 78.6219 34.042 78.5072Z" fill="#6C63FF"/>
<path d="M86.7375 90.2793C86.7375 91.4641 86.4596 92.371 86.4935 93.0959C84.5879 93.9327 82.6285 94.6396 80.6286 95.212C80.4024 95.2771 80.1762 95.3388 79.9484 95.4006C78.7156 91.6039 77.4813 88.1274 76.995 87.7585C75.8818 86.9182 75.3243 90.3947 75.3243 89.5544C75.3243 88.7142 75.8818 88.7142 74.4907 87.5943C73.0979 86.4745 73.9332 81.4345 73.9332 81.4345L71.9847 76.3945L74.1643 68.3558L76.995 57.9133H79.7788C79.7788 57.9133 79.8612 57.9735 79.9985 58.0856C80.6948 58.6577 82.7952 60.569 82.5626 62.6738C82.4931 63.3012 82.6482 65.1247 82.918 67.5529C83.7388 74.8846 85.6243 82.855 85.6243 84.9581C85.6243 87.7585 86.7375 88.5988 86.7375 90.2793Z" fill="#E6E6E6"/>
<path d="M84.4032 67.5254C84.4 67.5173 84.3984 67.5108 84.3951 67.5043C84.3327 67.3352 84.2599 67.1702 84.177 67.0102C83.7069 66.1212 84.2045 64.756 83.6745 63.2477C82.8182 60.8033 81.7745 59.3616 80.2445 58.0695C80.1992 58.0305 80.154 57.9931 80.1071 57.9541L80.1055 57.9525C79.0844 57.109 77.8533 56.3207 76.3248 55.339C76.0065 55.1343 75.6737 54.9213 75.328 54.6971C74.882 54.4094 74.9063 53.4505 74.9321 52.4363C74.9612 51.31 74.9919 50.143 74.4426 49.4149L74.407 49.3677L74.3505 49.3531C72.467 48.9784 70.546 48.8294 68.6278 48.9094H68.6261C67.8116 48.9398 67.0028 49.0592 66.2139 49.2653C66.1558 49.2816 66.0976 49.2978 66.0411 49.3174C65.9974 49.3287 65.9538 49.3434 65.9102 49.358L65.8746 49.371L65.8472 49.397C65.3156 49.9317 65.1928 50.8906 65.1347 51.8902V51.8918C65.1234 52.0739 65.1137 52.2559 65.1056 52.4379C65.0603 53.4098 65.0183 54.3281 64.6629 54.7263C63.87 55.6299 62.9118 56.3715 61.8403 56.9107C60.1713 57.7396 58.8513 57.7136 58.8319 57.7136L58.6784 57.7087L58.6639 57.8615C57.5555 59.9857 57.5975 65.4662 57.5636 71.3351C57.562 71.6618 57.5598 71.9901 57.5571 72.3201C57.5378 75.0538 57.4861 77.8347 57.2825 80.3685C57.1936 81.4574 57.0789 82.4992 56.9254 83.4728C56.1789 88.2137 52.7974 84.2773 51.1801 87.432C51.2332 87.7422 51.3227 88.045 51.4466 88.334C51.6324 88.4445 51.8231 88.5518 52.0121 88.6591C52.8507 89.1288 53.7048 89.5671 54.5746 89.9739C54.6231 89.9967 54.6715 90.0194 54.72 90.0406C56.3153 90.7831 57.9597 91.4141 59.6413 91.9291C59.9693 92.0299 60.2973 92.1258 60.6285 92.2168C63.5583 93.0304 66.5751 93.485 69.6133 93.5707C69.6257 93.5693 69.6381 93.5688 69.6505 93.5691C73.2436 93.4691 76.8132 92.9515 80.2881 92.0267C80.3365 92.0137 80.385 92.0007 80.4335 91.9877C80.6613 91.9259 80.8875 91.8641 81.1137 91.7991C83.1136 91.2267 85.073 90.5197 86.9786 89.683C86.9806 89.7544 86.9876 89.8255 86.9996 89.8959C87.0012 89.9189 87.0045 89.9417 87.0093 89.9642C87.0125 89.9382 87.0158 89.9122 87.0174 89.8862C87.0271 89.8098 87.0351 89.7318 87.0432 89.6537C88.032 79.954 85.9785 71.7187 84.4032 67.5254Z" fill="#3F3D56"/>
<path d="M62.1983 43.7529C63.1844 45.5668 64.7552 46.9888 66.6521 47.7847C68.5489 48.5806 70.6586 48.703 72.6338 48.1316C74.609 47.5603 76.3319 46.3293 77.5187 44.6413C78.7055 42.9534 79.2855 40.9092 79.1631 38.8454C79.0407 36.7816 78.2233 34.8213 76.8455 33.2873C75.4676 31.7532 73.6115 30.7369 71.5828 30.4058C69.5541 30.0747 67.4738 30.4484 65.6845 31.4655C63.8951 32.4826 62.5035 34.0823 61.7387 36.0013C61.6973 36.1055 61.66 36.2096 61.6228 36.3179C61.1904 37.5276 61.0181 38.8159 61.1173 40.0975C61.2166 41.3792 61.585 42.6251 62.1983 43.7529Z" fill="#FFB6B6"/>
<path d="M60.8981 36.3177C61.2874 35.2222 61.1176 35.7929 61.5109 34.7016C61.2542 35.6679 61.66 36.2094 61.6228 36.3177H72.3925V30.0198C69.2373 28.7619 66.1526 27.6915 64.2893 30.0198C62.6289 30.0199 61.0365 30.6835 59.8625 31.8645C58.6884 33.0456 58.0288 34.6474 58.0287 36.3177H60.8981Z" fill="#2F2E41"/>
<path d="M64.7158 53.8244C64.7241 53.7078 64.7365 53.5869 64.7531 53.4703C64.869 52.6123 65.1589 51.7876 65.4529 50.9712C65.7634 50.0923 66.0781 49.2093 66.3928 48.3304C65.9875 49.9257 66.1111 51.6105 66.7447 53.1288C68.5625 51.7043 67.4155 48.447 69.7922 48.447C75.5063 48.447 81.386 43.7861 81.386 38.0339C81.386 32.2858 78.9347 27.9873 73.2207 27.9873C67.5025 27.9873 62.865 30.6197 62.7532 36.3678C69.7922 38.0339 63.3867 53.2413 64.7158 53.8244Z" fill="#2F2E41"/>
<path d="M80.672 37.1528C84.3309 37.1528 87.297 34.169 87.297 30.4884C87.297 26.8077 84.3309 23.824 80.672 23.824C77.0131 23.824 74.047 26.8077 74.047 30.4884C74.047 34.169 77.0131 37.1528 80.672 37.1528Z" fill="#2F2E41"/>
<path d="M91 68.7086C90.9774 69.0516 90.9575 69.4167 90.9402 69.8041C90.5977 77.1 90.8934 86.9216 88.5846 92.2509C88.0676 92.5353 87.5452 92.8073 87.0174 93.0668C86.9964 93.0766 86.977 93.0863 86.9592 93.0961C86.817 93.166 86.6748 93.2342 86.5327 93.2992C86.5275 93.3037 86.5214 93.307 86.5149 93.309C84.9536 94.0511 83.3445 94.6869 81.6986 95.2122C81.4966 95.2772 81.293 95.339 81.0895 95.4007C81.0458 95.4137 81.0022 95.4267 80.9586 95.4397C77.8576 96.3622 74.6518 96.8806 71.4197 96.9821C71.2516 96.987 71.0868 96.9903 70.9269 96.9935C70.8703 96.9951 70.8154 96.9968 70.7605 96.9968C70.5795 96.9984 70.4002 97 70.2192 97C69.8541 97 69.4906 96.9946 69.1286 96.9838C66.0904 96.8981 63.0737 96.4435 60.1439 95.6299C59.8126 95.5389 59.4847 95.443 59.1567 95.3422C57.475 94.8272 55.8307 94.1962 54.2353 93.4537C54.1868 93.4325 54.1384 93.4098 54.0899 93.387C53.2207 92.9807 52.3665 92.5424 51.5275 92.0722C51.3384 91.9649 51.1478 91.8576 50.962 91.7471C50.838 91.4581 50.7485 91.1553 50.6954 90.8451C50.3286 89.0719 50.0346 90.2681 49.8245 86.5787C49.6323 83.1965 49.5095 79.8045 49.4642 77.8655C49.4497 77.3487 49.4449 76.9342 49.4432 76.6514C49.6145 75.4195 52.3676 74.0217 56.3826 72.6938C56.7623 72.5687 57.1549 72.4435 57.5572 72.32C58.6429 71.9836 59.8029 71.6537 61.0147 71.3351C64.1006 70.5225 67.5275 69.7764 70.9285 69.1605C72.6072 68.8582 74.2794 68.5867 75.9032 68.3559C78.7516 67.9496 81.4465 67.6685 83.7521 67.5531C83.9735 67.5417 84.19 67.5319 84.4032 67.5254C84.6327 67.5157 84.8572 67.5092 85.077 67.5043C88.3988 67.4312 90.6672 67.779 91 68.7086Z" fill="#2F2E41"/>
<path opacity="0.2" d="M91 68.7086C90.9774 69.0516 90.9575 69.4167 90.9403 69.8041C88.423 67.0769 61.3055 79.26 49.8245 86.5787C49.6323 83.1965 49.5095 79.8045 49.4642 77.8655C49.4497 77.3487 49.4449 76.9342 49.4432 76.6514C49.6145 75.4195 52.3676 74.0217 56.3826 72.6939C56.7623 72.5687 57.1549 72.4436 57.5572 72.32C58.6429 71.9836 59.8029 71.6536 61.0147 71.3351C64.1006 70.5224 67.5275 69.7765 70.9285 69.1605C72.6072 68.8582 74.2794 68.5867 75.9032 68.3559C78.7516 67.9496 81.4465 67.6685 83.7521 67.5531C83.9735 67.5417 84.19 67.5319 84.4032 67.5254C84.6326 67.5157 84.8572 67.5092 85.077 67.5043C88.3988 67.4312 90.6672 67.779 91 68.7086Z" fill="black"/>
<path d="M35.8519 77.1621C36.1062 77.4846 36.4277 77.7471 36.7938 77.9311C37.1598 78.1151 37.5615 78.2161 37.9705 78.227C38.3796 78.238 38.7861 78.1586 39.1613 77.9944C39.5365 77.8302 39.8714 77.5852 40.1424 77.2768L49.3434 81.0782L48.3505 75.9754L39.7653 73.1478C39.22 72.7243 38.5392 72.5167 37.8519 72.5643C37.1646 72.612 36.5185 72.9116 36.0361 73.4064C35.5538 73.9012 35.2686 74.5568 35.2346 75.249C35.2007 75.9412 35.4203 76.6219 35.8519 77.1621Z" fill="#FFB6B6"/>
<path d="M66.4584 55.9131L66.4079 55.9077L61.0425 56.2996C60.3613 56.3493 59.6984 56.5442 59.0978 56.8714C58.4972 57.1985 57.9726 57.6504 57.5589 58.1971C57.3667 58.4504 57.2002 58.7225 57.0621 59.0094L57.0607 59.0102C56.5982 59.9623 56.4588 61.0406 56.6639 62.08L59.1899 74.8715L53.112 74.316L50.8934 74.6974L48.2752 73.6348L42.9028 73.7268L42.7783 74.141L41.6513 77.8992L41.5629 78.1945L49.7665 83.3949L52.1449 82.6671L53.2654 83.5329L53.3192 83.5343L55.541 83.5785L65.0166 83.7654L67.6068 79.1494L68.0114 78.4256C71.0196 71.6467 71.7619 66.9143 71.5264 63.6541C71.403 61.9315 71.007 60.6221 70.5278 59.6353C69.0458 56.5858 66.5627 55.9388 66.4584 55.9131Z" fill="#3F3D56"/>
<path d="M81.5099 36.4052C80.2535 36.1211 79.0887 35.5226 78.1236 34.665C77.1584 33.8075 76.424 32.7187 75.9886 31.4997C75.5999 30.3656 75.4532 29.1202 74.8007 28.1109C75.7947 26.7379 76.5917 25.231 77.1684 23.6347C77.3917 23.0167 77.9145 21.8948 77.0282 21.5548C76.3221 21.284 75.5199 21.9377 75.1013 22.4535C74.7833 22.8444 74.5553 23.3012 74.4336 23.7912C74.2892 23.15 74.1448 22.5089 74.0005 21.8677C73.9821 21.8061 73.9409 21.7541 73.8854 21.7224C73.8298 21.6907 73.7643 21.6817 73.7024 21.6974C72.5194 21.9003 71.6615 23.0021 71.5125 24.1627C71.4311 24.7602 71.5663 25.3672 71.8931 25.8728C72.2731 26.4544 72.8296 26.8713 73.3592 27.3047C73.9223 27.7656 74.3997 28.2564 74.7025 28.9304C75.0171 29.6309 75.1588 30.3975 75.3676 31.1331C75.7638 32.5458 76.5316 33.8249 77.5899 34.8355C78.6482 35.8461 79.9579 36.5508 81.381 36.8754C81.6851 36.9423 81.8149 36.4723 81.5099 36.4052ZM74.8296 24.7494C74.7915 24.1369 74.9524 23.5286 75.288 23.0161C75.4559 22.7563 75.6664 22.5269 75.9105 22.3377C76.1419 22.1599 76.4833 21.9243 76.7895 21.9897C77.1866 22.0744 77.0268 22.5203 76.9425 22.7892C76.8312 23.1439 76.7089 23.4949 76.5754 23.8421C76.3156 24.5164 76.0139 25.1736 75.6723 25.8099C75.4949 26.1411 75.3054 26.4653 75.1074 26.7842C74.9709 26.1781 74.8345 25.572 74.698 24.9658C74.741 24.95 74.7774 24.92 74.8013 24.8807C74.8252 24.8414 74.8351 24.7951 74.8296 24.7494ZM71.9989 24.8464C71.9197 24.2926 72.0346 23.7282 72.3241 23.2504C72.6135 22.7726 73.0594 22.4111 73.585 22.228C73.9698 23.9368 74.3545 25.6455 74.7392 27.3543C74.6598 27.4721 74.5779 27.5881 74.4958 27.704C74.4743 27.6791 74.4546 27.6534 74.4322 27.6289C73.6253 26.7455 72.2182 26.1433 71.9989 24.8464Z" fill="#6C63FF"/>
</g>
<defs>
<clipPath id="clip0_52_184">
<rect width="91" height="97" fill="white"/>
</clipPath>
</defs>
</svg>
