<svg width="139" height="103" viewBox="0 0 139 103" fill="none" xmlns="http://www.w3.org/2000/svg">
<g clip-path="url(#clip0_52_270)">
<path d="M98.6632 75.5446H23.8098C23.1429 75.5439 22.5035 75.2779 22.0319 74.8052C21.5603 74.3325 21.295 73.6915 21.2942 73.023V11.9267C21.295 11.2582 21.5603 10.6172 22.0319 10.1445C22.5035 9.67173 23.1429 9.40581 23.8098 9.40503H98.6632C99.3302 9.4058 99.9696 9.67173 100.441 10.1445C100.913 10.6172 101.178 11.2582 101.179 11.9267V73.023C101.178 73.6915 100.913 74.3325 100.441 74.8052C99.9696 75.2779 99.3302 75.5439 98.6632 75.5446Z" fill="#E6E6E6"/>
<path d="M25.5072 11.1997C24.8647 11.2005 24.2488 11.4566 23.7945 11.912C23.3402 12.3674 23.0847 12.9848 23.084 13.6288V71.3219C23.0847 71.9659 23.3403 72.5833 23.7946 73.0386C24.2488 73.494 24.8648 73.7501 25.5072 73.7508H76.7414C82.746 73.744 88.5028 71.35 92.7487 67.0939C96.9946 62.8378 99.3829 57.0672 99.3897 51.0482V13.6288C99.389 12.9848 99.1335 12.3674 98.6792 11.912C98.2249 11.4566 97.609 11.2005 96.9665 11.1997L25.5072 11.1997Z" fill="white"/>
<path d="M85.0137 37.147H71.441C71.1579 37.1467 70.8865 37.0338 70.6864 36.8332C70.4862 36.6325 70.3736 36.3605 70.3733 36.0767V29.3051C70.3736 29.0214 70.4862 28.7493 70.6864 28.5487C70.8865 28.348 71.1579 28.2352 71.441 28.2349H85.0137C85.2968 28.2352 85.5681 28.348 85.7683 28.5487C85.9685 28.7493 86.0811 29.0214 86.0814 29.3051C86.9212 31.7014 87.0405 33.9784 86.0814 36.0767C86.0811 36.3605 85.9685 36.6325 85.7683 36.8332C85.5681 37.0338 85.2968 37.1467 85.0137 37.147Z" fill="#E6E6E6"/>
<path d="M83.4058 36.4924H71.8744C71.6339 36.4922 71.4033 36.3963 71.2333 36.2258C71.0632 36.0553 70.9676 35.8242 70.9673 35.5831V29.83C70.9676 29.5889 71.0632 29.3577 71.2333 29.1873C71.4033 29.0168 71.6339 28.9209 71.8744 28.9207H83.4058C83.6463 28.9209 83.8769 29.0168 84.0469 29.1873C84.217 29.3577 84.3127 29.5889 84.3129 29.83C85.0912 31.8789 85.2164 33.8177 84.3129 35.5831C84.3127 35.8242 84.217 36.0553 84.0469 36.2258C83.8769 36.3963 83.6463 36.4922 83.4058 36.4924Z" fill="white"/>
<path d="M82.7839 40.6941H73.6408C73.3718 40.6945 73.1137 40.5878 72.9232 40.3974C72.7327 40.2071 72.6254 39.9487 72.6249 39.6791C72.6244 39.4095 72.7307 39.1508 72.9205 38.9597C73.1103 38.7687 73.368 38.661 73.637 38.6604H82.7839C83.0526 38.6609 83.3101 38.7683 83.4999 38.9589C83.6898 39.1495 83.7964 39.4079 83.7964 39.6772C83.7964 39.9466 83.6898 40.2049 83.4999 40.3956C83.3101 40.5862 83.0526 40.6936 82.7839 40.6941Z" fill="#E6E6E6"/>
<path d="M76.6364 30.4741C76.5312 30.4745 76.4305 30.5166 76.3561 30.5912C76.2818 30.6658 76.24 30.7668 76.2397 30.8723V35.1824C76.2397 35.252 76.258 35.3204 76.2926 35.3807C76.3272 35.441 76.377 35.4912 76.4371 35.5261C76.4971 35.5611 76.5653 35.5797 76.6347 35.5799C76.7041 35.5802 76.7724 35.5622 76.8327 35.5277L80.6279 33.3586C80.6889 33.3238 80.7396 33.2734 80.7748 33.2125C80.81 33.1516 80.8284 33.0825 80.8283 33.0121C80.8281 32.9418 80.8092 32.8727 80.7737 32.8121C80.7382 32.7514 80.6872 32.7013 80.626 32.6668L76.831 30.5257C76.7717 30.492 76.7046 30.4742 76.6364 30.4741Z" fill="#E6E6E6"/>
<path d="M132.006 94.7536C131.797 94.4868 131.512 94.289 131.19 94.1856C130.867 94.0823 130.521 94.0782 130.196 94.1738L130.125 94.195L129.488 96.6888C129.392 96.3171 129.188 95.4781 129.059 94.6568L129.048 94.5889L128.985 94.6167C128.319 94.9119 127.693 95.2903 127.121 95.7429C126.109 96.557 125.285 97.5824 124.708 98.7478C124.131 99.9131 123.813 101.191 123.778 102.491L123.777 102.539L123.776 102.569L123.86 102.539L125.671 101.89C126.473 101.961 127.28 101.852 128.034 101.57C128.788 101.288 129.47 100.841 130.03 100.261C130.761 99.4876 131.263 98.4927 131.748 97.5301C131.89 97.2497 132.036 96.9604 132.185 96.6821C132.351 96.3796 132.422 96.0342 132.39 95.6904C132.358 95.3466 132.225 95.0203 132.006 94.7536Z" fill="#F2F2F2"/>
<path d="M85.766 31.1567C85.8024 31.3455 85.8796 31.524 85.9922 31.6796C86.1048 31.8353 86.25 31.9643 86.4178 32.0576C86.5855 32.1508 86.7716 32.2061 86.9629 32.2195C87.1543 32.2329 87.3462 32.2041 87.5252 32.1351L92.9368 38.4455L93.6219 36.1159L88.2568 30.3426C88.1213 30.0488 87.8829 29.815 87.5868 29.6857C87.2908 29.5563 86.9577 29.5402 86.6507 29.6406C86.3436 29.7409 86.084 29.9507 85.9209 30.2301C85.7579 30.5096 85.7028 30.8392 85.766 31.1567Z" fill="#FFB8B8"/>
<path d="M107.576 101.031H105.785L104.933 94.1062H107.576L107.576 101.031Z" fill="#FFB6B6"/>
<path d="M107.528 100.444L105.616 99.6646L105.561 99.6421L104.505 100.444C103.909 100.444 103.338 100.682 102.916 101.104C102.495 101.527 102.258 102.1 102.258 102.697V102.77H108.032V100.444H107.528Z" fill="#2F2E41"/>
<path d="M120.351 101.031H118.561L117.709 94.1062H120.352L120.351 101.031Z" fill="#FFB6B6"/>
<path d="M120.304 100.444L118.391 99.6646L118.337 99.6421L117.281 100.444C116.685 100.444 116.113 100.682 115.692 101.104C115.27 101.527 115.033 102.1 115.033 102.697V102.77H120.808V100.444H120.304Z" fill="#2F2E41"/>
<path d="M116.125 59.6819C116.125 59.6819 118.371 62.0244 118.371 63.9491C118.371 65.8739 117.809 68.5167 118.371 69.0951C118.933 69.6735 119.634 70.3771 118.792 71.2215C117.95 72.0659 117.529 72.4881 118.09 73.051C118.652 73.6139 118.371 83.4648 118.371 83.4648L121.319 96.6931H117.605L112.896 83.4648L111.632 72.488L107.546 83.0426L107.997 96.8066L104.114 96.6931L102.507 82.0575C102.507 82.0575 104.893 68.1355 104.472 67.7787C104.051 67.4219 104.472 66.7016 104.472 66.7016L105.595 61.3706L116.125 59.6819Z" fill="#2F2E41"/>
<path d="M111.727 43.0731C111.727 43.0731 112.491 40.0562 108.972 39.1913C105.453 38.3263 95.3945 37.215 95.3945 37.215L90.3112 31.8081L88.5887 34.3155L94.2872 41.4139L107.789 44.1939L111.727 43.0731Z" fill="#3F3D56"/>
<path d="M89.4259 34.1308C89.5838 33.9258 89.7073 33.6964 89.7917 33.4517L90.5207 31.6561L90.3314 31.6482C90.0696 31.5988 89.8002 31.6054 89.5411 31.6677C89.282 31.7299 89.0389 31.8463 88.8278 32.0093C88.6167 32.1723 88.4424 32.3781 88.3162 32.6134C88.19 32.8486 88.1148 33.1079 88.0956 33.3743C88.0717 33.6047 88.113 33.8373 88.2147 34.0453C88.2665 34.1484 88.3419 34.2378 88.4348 34.306C88.5277 34.3743 88.6354 34.4196 88.7491 34.4381C88.8782 34.445 89.0071 34.4207 89.1249 34.3672C89.2427 34.3138 89.346 34.2327 89.4259 34.1308Z" fill="#E6E6E6"/>
<path d="M104.879 62.0895L104.457 65.1499C104.457 65.1499 105.3 66.0567 105.721 65.9433C106.142 65.83 107.686 65.1702 107.686 65.1702C107.686 65.1702 109.511 66.17 110.494 66.2834C111.477 66.3967 116.671 65.7166 116.812 65.3766C116.952 65.0365 118.584 63.7054 118.584 63.7054L117.935 59.8225L104.879 62.0895Z" fill="#E6E6E6"/>
<path d="M118.557 51.3832C118.557 51.3832 118.2 54.3342 118.481 54.6058C118.762 54.876 118.2 56.5859 117.639 57.7117C117.077 58.8375 118.06 58.9782 118.06 59.8226C118.06 60.6669 118.481 63.7629 118.481 63.7629C118.481 63.7629 114.129 64.0444 113.427 63.3408C112.725 62.6371 111.602 63.2 110.058 64.748C108.513 66.296 105.159 65.0295 104.457 64.3258C103.755 63.6222 105.004 61.0891 105.425 60.598C105.846 60.1069 105.019 60.6754 104.598 59.1189C104.177 57.5625 105.004 57.7117 105.705 57.008C106.407 56.3044 105.705 55.0379 105.144 53.7713C104.582 52.5048 105.004 43.0761 105.004 40.8244C105.004 38.5728 108.092 38.2913 108.092 38.2913L109.315 36.7504L110.213 35.6175L111.974 35.5472L112.02 35.5458L113.723 35.4768L114.55 36.4422L116.375 38.5728L118.481 38.995C120.166 39.5579 119.745 43.0761 119.745 43.0761L118.557 51.3832Z" fill="#3F3D56"/>
<path d="M111.887 34.9365C113.88 34.9365 115.496 33.3169 115.496 31.3191C115.496 29.3212 113.88 27.7017 111.887 27.7017C109.894 27.7017 108.278 29.3212 108.278 31.3191C108.278 33.3169 109.894 34.9365 111.887 34.9365Z" fill="#FFB6B6"/>
<path d="M116.071 30.1023C115.079 29.4921 115.206 27.8967 114.25 27.3395C113.774 27.0649 113.24 26.9094 112.692 26.8863C112.143 26.8632 111.598 26.9732 111.101 27.207C110.427 26.9181 109.62 27.1487 109.082 27.6703C108.543 28.192 108.251 28.9615 108.165 29.7354C108.103 30.513 108.159 31.2955 108.33 32.0564C108.384 31.7507 108.437 31.445 108.491 31.1393L111.336 30.516C111.084 30.7428 110.832 30.9697 110.58 31.1965C111.869 31.4905 113.22 31.2786 114.358 30.6043C115.596 31.1608 115.372 32.4107 114.285 34.0695C114.706 34.7731 117.202 30.7976 116.071 30.1023Z" fill="#2F2E41"/>
<path d="M114.55 36.4421C114.542 36.4487 114.534 36.4548 114.525 36.4604C114.227 36.6382 113.887 36.7307 113.541 36.7278C113.087 36.7657 112.637 36.6242 112.287 36.3337C112.103 36.1592 111.372 36.5279 110.892 36.732C110.388 36.9412 109.823 36.9478 109.315 36.7503L110.213 35.6174L111.694 35.2883H112.064L113.723 35.4767L114.55 36.4421Z" fill="#E6E6E6"/>
<path d="M138.781 102.943L88.5474 103C88.5185 103 88.4899 102.995 88.4631 102.984C88.4363 102.973 88.412 102.956 88.3915 102.936C88.3709 102.916 88.3546 102.891 88.3434 102.865C88.3322 102.838 88.3263 102.809 88.3262 102.78C88.326 102.751 88.3316 102.723 88.3425 102.696C88.3534 102.669 88.3695 102.645 88.3898 102.624C88.4102 102.603 88.4343 102.587 88.461 102.576C88.4876 102.565 88.5162 102.559 88.5451 102.559H88.5474L138.781 102.502C138.839 102.502 138.895 102.525 138.936 102.567C138.977 102.608 139 102.664 139 102.722C139 102.781 138.977 102.837 138.936 102.878C138.895 102.919 138.839 102.943 138.781 102.943Z" fill="#CACACA"/>
<path d="M78.6331 28.8495H78.2634V2.34424H92.8034V2.71483H78.6331V28.8495Z" fill="#3F3D56"/>
<path d="M104.111 0H94.3141C93.6768 0 93.0655 0.253789 92.6149 0.705535C92.1642 1.15728 91.911 1.76998 91.911 2.40884C91.911 3.04771 92.1642 3.66041 92.6149 4.11216C93.0655 4.5639 93.6768 4.81769 94.3141 4.81769H104.111C104.749 4.81769 105.36 4.5639 105.811 4.11216C106.261 3.66041 106.514 3.04771 106.514 2.40884C106.514 1.76998 106.261 1.15728 105.811 0.705535C105.36 0.253789 104.749 0 104.111 0Z" fill="#6C63FF"/>
<path d="M78.2339 31.2742C79.4534 31.2742 80.4421 30.2832 80.4421 29.0607C80.4421 27.8382 79.4534 26.8472 78.2339 26.8472C77.0143 26.8472 76.0256 27.8382 76.0256 29.0607C76.0256 30.2832 77.0143 31.2742 78.2339 31.2742Z" fill="#6C63FF"/>
<path d="M51.6241 37.3783L61.3115 35.1312L64.0922 34.4861C64.44 34.4055 64.2955 33.8687 63.9475 33.9494L54.2601 36.1965L51.4795 36.8415C51.1316 36.9222 51.2761 37.459 51.6241 37.3783Z" fill="#F2F2F2"/>
<path d="M61.6276 31.5261L66.8136 33.9174C66.9906 33.9787 67.1564 34.0687 67.3044 34.1837C67.4475 34.3242 67.3433 34.4594 67.2265 34.5818C66.8775 34.9086 66.5088 35.2136 66.1226 35.4951L63.9132 37.2957C63.6358 37.5217 64.0272 37.9161 64.302 37.6922L66.2263 36.124L67.1885 35.3399C67.4611 35.1177 67.7929 34.891 67.9025 34.5371C68.1326 33.7936 67.2243 33.498 66.7196 33.2652L64.4612 32.2239L61.91 31.0475C61.5884 30.8992 61.3036 31.3767 61.6276 31.5261Z" fill="#F2F2F2"/>
<path d="M133.194 49.7303C132.27 49.1024 131.148 48.8691 130.05 48.7899C128.803 48.7219 127.554 48.7234 126.307 48.7943C125.012 48.8458 123.719 48.9397 122.429 49.0762C121.141 49.2128 119.859 49.3919 118.581 49.6133C117.438 49.7918 116.306 50.0401 115.193 50.3568C114.139 50.6491 113.146 51.1297 112.262 51.7752C111.487 52.36 110.89 53.1513 110.541 54.059C110.197 54.9103 110.139 55.8502 110.374 56.7376C110.5 57.1686 110.714 57.5683 111.004 57.9106C111.339 58.2861 111.736 58.6012 112.178 58.842C113.094 59.3666 114.133 59.682 114.962 60.3536C115.18 60.5293 115.379 60.7278 115.556 60.9459C115.676 61.1147 115.841 61.2454 116.033 61.3224C116.215 61.3861 116.412 61.3944 116.598 61.3463C116.785 61.2981 116.953 61.1958 117.081 61.052C117.247 60.8243 117.386 60.5776 117.494 60.3171L117.931 59.4714C117.96 59.3974 117.997 59.3265 118.04 59.2599C118.073 59.2208 118.014 59.2608 118.025 59.2504C118.032 59.2448 118.044 59.2449 118.051 59.2404C118.088 59.2224 118.125 59.2078 118.164 59.197C118.569 59.0424 118.975 58.8927 119.383 58.7478C120.89 58.2096 122.414 57.7136 123.963 57.3118C124.76 57.0975 125.568 56.928 126.384 56.8041C127.44 56.6533 128.513 56.6708 129.574 56.5677C130.717 56.4566 131.896 56.2248 132.876 55.594C133.686 55.1005 134.31 54.3515 134.651 53.4645C134.799 53.0417 134.849 52.5911 134.799 52.146C134.672 51.139 134.015 50.2886 133.194 49.7303Z" fill="#E6E6E6"/>
<path d="M131.303 50.2963C130.468 49.7289 129.454 49.518 128.462 49.4465C127.335 49.385 126.206 49.3864 125.079 49.4505C123.909 49.497 122.741 49.5818 121.575 49.7052C120.411 49.8286 119.252 49.9904 118.098 50.1906C117.065 50.3518 116.042 50.5762 115.036 50.8624C114.083 51.1266 113.186 51.5608 112.388 52.1442C111.687 52.6727 111.148 53.3877 110.832 54.208C110.522 54.9773 110.469 55.8267 110.682 56.6286C110.795 57.0181 110.989 57.3793 111.251 57.6886C111.554 58.0279 111.912 58.3126 112.311 58.5302C113.139 59.0043 114.078 59.2893 114.827 59.8962C115.024 60.055 115.205 60.2345 115.364 60.4315C115.472 60.584 115.622 60.7021 115.795 60.7717C115.96 60.8293 116.137 60.8368 116.306 60.7933C116.474 60.7498 116.626 60.6573 116.742 60.5274C116.892 60.3216 117.017 60.0986 117.115 59.8632L117.51 59.099C117.537 59.0321 117.57 58.9681 117.609 58.9079C117.639 58.8725 117.586 58.9087 117.596 58.8994C117.601 58.8942 117.613 58.8944 117.619 58.8903C117.652 58.874 117.686 58.8609 117.721 58.8511C118.087 58.7114 118.454 58.5761 118.823 58.4451C120.184 57.9588 121.562 57.5105 122.961 57.1475C123.681 56.9538 124.412 56.8006 125.149 56.6887C126.104 56.5523 127.073 56.5682 128.032 56.475C129.065 56.3747 130.13 56.1651 131.016 55.5952C131.748 55.1491 132.312 54.4723 132.62 53.6707C132.753 53.2887 132.799 52.8814 132.753 52.4792C132.638 51.5693 132.045 50.8007 131.303 50.2963Z" fill="white"/>
<path d="M129.554 51.3209L115.949 53.8362C115.91 53.8437 115.87 53.8433 115.831 53.8353C115.793 53.8272 115.756 53.8115 115.723 53.7891C115.69 53.7668 115.662 53.7381 115.641 53.7049C115.619 53.6717 115.604 53.6345 115.597 53.5955C115.589 53.5564 115.59 53.5163 115.598 53.4775C115.606 53.4387 115.622 53.4018 115.644 53.3691C115.667 53.3363 115.695 53.3084 115.729 53.2867C115.762 53.2651 115.799 53.2503 115.838 53.2431L115.84 53.2428L129.445 50.7274C129.484 50.7202 129.524 50.7208 129.563 50.7291C129.601 50.7373 129.638 50.7532 129.67 50.7756C129.703 50.7981 129.731 50.8268 129.752 50.86C129.774 50.8933 129.789 50.9305 129.796 50.9694C129.803 51.0084 129.802 51.0484 129.794 51.0871C129.786 51.1259 129.77 51.1626 129.748 51.1953C129.725 51.2279 129.697 51.2558 129.663 51.2773C129.63 51.2989 129.593 51.3137 129.554 51.3209Z" fill="#E6E6E6"/>
<path d="M129.889 53.1422L116.284 55.6575C116.245 55.665 116.205 55.6646 116.166 55.6565C116.128 55.6484 116.091 55.6328 116.058 55.6104C116.025 55.588 115.997 55.5594 115.976 55.5262C115.954 55.4929 115.939 55.4558 115.932 55.4167C115.925 55.3777 115.925 55.3376 115.933 55.2988C115.941 55.2599 115.957 55.2231 115.98 55.1904C116.002 55.1576 116.031 55.1297 116.064 55.108C116.097 55.0864 116.134 55.0716 116.173 55.0644L116.175 55.0641L129.78 52.5487C129.819 52.5415 129.859 52.5421 129.898 52.5504C129.936 52.5586 129.973 52.5744 130.006 52.5969C130.038 52.6194 130.066 52.6481 130.087 52.6813C130.109 52.7146 130.124 52.7517 130.131 52.7907C130.138 52.8297 130.138 52.8697 130.129 52.9084C130.121 52.9472 130.105 52.9839 130.083 53.0166C130.06 53.0492 130.032 53.0771 129.999 53.0986C129.965 53.1202 129.928 53.135 129.889 53.1422Z" fill="#E6E6E6"/>
<path d="M118.205 57.1857L116.619 57.4789C116.541 57.4931 116.46 57.4755 116.395 57.4301C116.329 57.3847 116.284 57.3152 116.27 57.2367C116.255 57.1581 116.272 57.0771 116.317 57.0113C116.362 56.9454 116.432 56.9002 116.51 56.8854L118.096 56.5923C118.174 56.578 118.255 56.5955 118.32 56.6408C118.386 56.6862 118.431 56.7559 118.445 56.8344C118.46 56.913 118.443 56.9941 118.397 57.0599C118.352 57.1258 118.283 57.171 118.205 57.1857Z" fill="#E6E6E6"/>
<path d="M117.056 64.7576C117.751 64.6291 118.21 63.9603 118.082 63.2638C117.954 62.5672 117.287 62.1067 116.592 62.2352C115.897 62.3636 115.438 63.0324 115.566 63.729C115.694 64.4255 116.361 64.8861 117.056 64.7576Z" fill="#D1D3D4"/>
<path d="M46.6459 36.8038H35.0249C34.4855 36.8032 33.9683 36.5881 33.5868 36.2057C33.2053 35.8233 32.9907 35.3049 32.9901 34.7641V27.0868C32.9907 26.546 33.2053 26.0276 33.5868 25.6452C33.9683 25.2629 34.4855 25.0478 35.0249 25.0471H46.6459C47.1854 25.0478 47.7026 25.2629 48.0841 25.6452C48.4655 26.0276 48.6801 26.546 48.6807 27.0868V34.7641C48.6801 35.3049 48.4655 35.8233 48.084 36.2057C47.7026 36.5881 47.1854 36.8032 46.6459 36.8038Z" fill="#E6E6E6"/>
<path d="M45.3689 36.3902H35.2549C34.7854 36.3897 34.3353 36.2025 34.0033 35.8697C33.6713 35.5369 33.4846 35.0857 33.484 34.615V27.9334C33.4846 27.4627 33.6713 27.0115 34.0033 26.6788C34.3353 26.346 34.7854 26.1588 35.2549 26.1582H45.3689C45.8384 26.1588 46.2885 26.346 46.6205 26.6788C46.9525 27.0115 47.1393 27.4627 47.1398 27.9334V34.6151C47.1393 35.0857 46.9525 35.5369 46.6205 35.8697C46.2885 36.2025 45.8384 36.3897 45.3689 36.3902Z" fill="white"/>
<path d="M48.2827 43.7207H33.3714C33.2793 43.7205 33.191 43.6837 33.1259 43.6183C33.0608 43.5529 33.0243 43.4643 33.0243 43.372C33.0243 43.2796 33.0608 43.191 33.1259 43.1256C33.191 43.0602 33.2793 43.0234 33.3714 43.0232H48.2827C48.3748 43.0234 48.4631 43.0602 48.5282 43.1256C48.5933 43.191 48.6298 43.2796 48.6298 43.372C48.6298 43.4643 48.5933 43.5529 48.5282 43.6183C48.4631 43.6837 48.3748 43.7205 48.2827 43.7207Z" fill="#E6E6E6"/>
<path d="M48.2827 41.7278H33.3714C33.2793 41.7276 33.191 41.6908 33.1259 41.6254C33.0608 41.56 33.0243 41.4714 33.0243 41.379C33.0243 41.2867 33.0608 41.1981 33.1259 41.1327C33.191 41.0673 33.2793 41.0305 33.3714 41.0303H48.2827C48.3748 41.0305 48.4631 41.0673 48.5282 41.1327C48.5933 41.1981 48.6298 41.2867 48.6298 41.379C48.6298 41.4714 48.5933 41.56 48.5282 41.6254C48.4631 41.6908 48.3748 41.7276 48.2827 41.7278Z" fill="#E6E6E6"/>
<path d="M48.2827 45.7136H33.3715C33.2792 45.7136 33.1907 45.6769 33.1255 45.6115C33.0602 45.5461 33.0236 45.4574 33.0236 45.3649C33.0236 45.2724 33.0602 45.1837 33.1255 45.1183C33.1907 45.0529 33.2792 45.0161 33.3715 45.0161H48.2827C48.375 45.0161 48.4635 45.0529 48.5288 45.1183C48.594 45.1837 48.6307 45.2724 48.6307 45.3649C48.6307 45.4574 48.594 45.5461 48.5288 45.6115C48.4635 45.6769 48.375 45.7136 48.2827 45.7136Z" fill="#E6E6E6"/>
<path d="M48.2827 47.7066H33.3715C33.2792 47.7066 33.1907 47.6698 33.1255 47.6044C33.0602 47.539 33.0236 47.4503 33.0236 47.3578C33.0236 47.2653 33.0602 47.1766 33.1255 47.1112C33.1907 47.0458 33.2792 47.009 33.3715 47.009H48.2827C48.375 47.009 48.4635 47.0458 48.5288 47.1112C48.594 47.1766 48.6307 47.2653 48.6307 47.3578C48.6307 47.4503 48.594 47.539 48.5288 47.6044C48.4635 47.6698 48.375 47.7066 48.2827 47.7066Z" fill="#E6E6E6"/>
<path d="M48.2827 49.6995H33.3715C33.2792 49.6995 33.1907 49.6627 33.1255 49.5973C33.0602 49.5319 33.0236 49.4432 33.0236 49.3507C33.0236 49.2582 33.0602 49.1695 33.1255 49.1041C33.1907 49.0387 33.2792 49.002 33.3715 49.002H48.2827C48.375 49.002 48.4635 49.0387 48.5288 49.1041C48.594 49.1695 48.6307 49.2582 48.6307 49.3507C48.6307 49.4432 48.594 49.5319 48.5288 49.5973C48.4635 49.6627 48.375 49.6995 48.2827 49.6995Z" fill="#E6E6E6"/>
<path d="M48.2827 51.6924H33.3714C33.2793 51.6922 33.191 51.6554 33.1259 51.59C33.0608 51.5246 33.0243 51.436 33.0243 51.3436C33.0243 51.2513 33.0608 51.1627 33.1259 51.0973C33.191 51.0319 33.2793 50.9951 33.3714 50.9949H48.2827C48.3748 50.9951 48.4631 51.0319 48.5282 51.0973C48.5933 51.1627 48.6298 51.2513 48.6298 51.3436C48.6298 51.436 48.5933 51.5246 48.5282 51.59C48.4631 51.6554 48.3748 51.6922 48.2827 51.6924Z" fill="#E6E6E6"/>
<path d="M40.0816 47.1218H40.4513V61.3976H13.7111V61.027H40.0816V47.1218Z" fill="#3F3D56"/>
<path d="M2.40308 63.7418H12.2003C12.8376 63.7418 13.4488 63.488 13.8995 63.0362C14.3502 62.5845 14.6034 61.9718 14.6034 61.3329C14.6034 60.6941 14.3502 60.0814 13.8995 59.6296C13.4488 59.1779 12.8376 58.9241 12.2003 58.9241H2.40308C1.76575 58.9241 1.15451 59.1779 0.703848 59.6296C0.253182 60.0814 0 60.6941 0 61.3329C0 61.9718 0.253182 62.5845 0.703848 63.0362C1.15451 63.488 1.76575 63.7418 2.40308 63.7418Z" fill="#6C63FF"/>
<path d="M40.5239 48.1976C41.7435 48.1976 42.7321 47.2065 42.7321 45.984C42.7321 44.7615 41.7435 43.7705 40.5239 43.7705C39.3043 43.7705 38.3157 44.7615 38.3157 45.984C38.3157 47.2065 39.3043 48.1976 40.5239 48.1976Z" fill="#6C63FF"/>
<path d="M51.9376 46.599C55.1797 47.2897 54.355 47.4245 57.597 48.1152L60.3888 48.71C60.738 48.7844 60.8336 48.2368 60.4842 48.1623C57.2422 47.4716 58.0669 47.3368 54.8248 46.6461L52.0331 46.0514C51.6838 45.977 51.5882 46.5246 51.9376 46.599Z" fill="#F2F2F2"/>
<path d="M59.4049 44.9829L63.0947 49.349C63.2292 49.4796 63.3415 49.6314 63.427 49.7984C63.4974 49.9865 63.346 50.0648 63.1884 50.1261C62.7343 50.2742 62.2715 50.3942 61.8028 50.4855L59.0409 51.1801C58.6942 51.2673 58.8823 51.7906 59.2258 51.7043L61.6313 51.0993L62.8341 50.7969C63.1748 50.7112 63.5712 50.6465 63.8198 50.3723C64.3421 49.7962 63.6439 49.1432 63.2848 48.7182L61.678 46.8169L59.8628 44.6691C59.634 44.3983 59.1744 44.7102 59.4049 44.9829Z" fill="#F2F2F2"/>
<path d="M71.104 64.015C73.9401 64.015 76.2392 61.7104 76.2392 58.8675C76.2392 56.0246 73.9401 53.72 71.104 53.72C68.2679 53.72 65.9688 56.0246 65.9688 58.8675C65.9688 61.7104 68.2679 64.015 71.104 64.015Z" fill="#E6E6E6"/>
<path d="M70.6034 63.3586C72.7595 63.3586 74.5074 61.6066 74.5074 59.4453C74.5074 57.284 72.7595 55.532 70.6034 55.532C68.4473 55.532 66.6995 57.284 66.6995 59.4453C66.6995 61.6066 68.4473 63.3586 70.6034 63.3586Z" fill="white"/>
<path d="M69.903 62.1244C69.8143 62.1244 69.7268 62.1037 69.6475 62.064C69.5682 62.0242 69.4992 61.9665 69.446 61.8953L68.0451 60.0229C68 59.9628 67.9672 59.8943 67.9486 59.8215C67.9299 59.7487 67.9258 59.6729 67.9364 59.5984C67.9469 59.524 67.972 59.4524 68.0102 59.3876C68.0484 59.3229 68.0989 59.2664 68.1589 59.2212C68.2189 59.1761 68.2872 59.1432 68.3598 59.1245C68.4325 59.1058 68.5081 59.1017 68.5824 59.1123C68.6566 59.1229 68.7281 59.148 68.7927 59.1863C68.8572 59.2246 68.9136 59.2752 68.9587 59.3354L68.959 59.3358L69.8756 60.5607L72.2296 57.0212C72.2712 56.9586 72.3247 56.9047 72.387 56.8628C72.4494 56.8208 72.5193 56.7916 72.593 56.7768C72.6666 56.762 72.7424 56.7619 72.816 56.7765C72.8897 56.7911 72.9597 56.8201 73.0222 56.8618C73.0847 56.9035 73.1383 56.9572 73.1801 57.0198C73.2218 57.0823 73.2509 57.1525 73.2656 57.2263C73.2802 57.3001 73.2802 57.3761 73.2656 57.4499C73.251 57.5237 73.2219 57.5939 73.1802 57.6565L70.3783 61.8694C70.3276 61.9456 70.2595 62.0085 70.1795 62.0529C70.0996 62.0972 70.0102 62.1217 69.9189 62.1242C69.9136 62.1243 69.9083 62.1244 69.903 62.1244Z" fill="#E6E6E6"/>
<path d="M119.054 64.1702C119.22 64.0728 119.362 63.9402 119.47 63.7818C119.579 63.6233 119.652 63.443 119.683 63.2533C119.715 63.0637 119.705 62.8694 119.653 62.6842C119.602 62.4989 119.511 62.3272 119.386 62.1812L123.509 54.9587L121.09 55.0905L117.456 62.0894C117.225 62.3158 117.085 62.6192 117.063 62.9421C117.04 63.265 117.136 63.585 117.333 63.8415C117.53 64.098 117.814 64.2731 118.132 64.3337C118.449 64.3943 118.777 64.3361 119.054 64.1702Z" fill="#FFB8B8"/>
<path d="M114.41 38.8542C114.41 38.8542 118.777 37.447 119.9 40.8244C121.023 44.2019 124.799 53.3491 124.799 53.3491L120.743 61.652L118.918 59.6818L120.868 53.912L115.252 45.4684L114.41 38.8542Z" fill="#3F3D56"/>
<path d="M120.882 60.804C120.75 60.5811 120.584 60.381 120.388 60.2117L118.995 58.8674L118.917 59.0407C118.774 59.2662 118.681 59.5193 118.642 59.7837C118.604 60.048 118.622 60.3174 118.694 60.5744C118.767 60.8313 118.893 61.0699 119.064 61.2746C119.236 61.4793 119.448 61.6454 119.688 61.7621C119.892 61.8698 120.123 61.9175 120.354 61.8999C120.468 61.8899 120.579 61.8528 120.677 61.7916C120.774 61.7305 120.856 61.647 120.916 61.548C120.97 61.4304 120.995 61.3014 120.989 61.1719C120.983 61.0424 120.947 60.9162 120.882 60.804Z" fill="#E6E6E6"/>
<path d="M71.0595 65.7925H70.6898V80.0682H83.1964V79.6976H71.0595V65.7925Z" fill="#3F3D56"/>
<path d="M96.9074 80.0036C96.9068 79.3649 96.6535 78.7525 96.2029 78.3009C95.7524 77.8493 95.1415 77.5953 94.5043 77.5947H84.7072C84.0698 77.5947 83.4586 77.8485 83.0079 78.3003C82.5573 78.752 82.3041 79.3647 82.3041 80.0036C82.3041 80.6424 82.5573 81.2551 83.0079 81.7069C83.4586 82.1586 84.0698 82.4124 84.7072 82.4124H94.5043C95.1415 82.4118 95.7524 82.1578 96.2029 81.7062C96.6535 81.2546 96.9068 80.6422 96.9074 80.0036Z" fill="#6C63FF"/>
<path d="M70.6172 66.8685C71.8367 66.8685 72.8254 65.8774 72.8254 64.6549C72.8254 63.4324 71.8367 62.4414 70.6172 62.4414C69.3976 62.4414 68.4089 63.4324 68.4089 64.6549C68.4089 65.8774 69.3976 66.8685 70.6172 66.8685Z" fill="#6C63FF"/>
</g>
<defs>
<clipPath id="clip0_52_270">
<rect width="139" height="103" fill="white"/>
</clipPath>
</defs>
</svg>
