<svg width="24" height="25" viewBox="0 0 24 25" fill="none" xmlns="http://www.w3.org/2000/svg">
<path fill-rule="evenodd" clip-rule="evenodd" d="M10.5832 2.76123L10.5628 2.76123C10.4493 2.76122 10.3609 2.7612 10.2773 2.76626C9.2169 2.83049 8.28831 3.49978 7.89204 4.48549C7.86063 4.56362 7.80894 4.71879 7.77207 4.82948L7.76819 4.84112C7.66509 5.12104 7.47892 5.36347 7.2634 5.53657C7.03593 5.54393 6.81866 5.55343 6.61098 5.56568C4.96702 5.66267 3.92376 5.93245 3.17341 6.68281C2.92875 6.92747 2.73518 7.20327 2.58203 7.52088C2.63961 7.54053 2.69571 7.56755 2.74904 7.60222C4.84933 8.9674 6.16892 9.82131 7.26539 10.3691C7.33185 10.0229 7.63634 9.76132 8.00192 9.76132C8.41614 9.76132 8.75192 10.0971 8.75192 10.5113V10.9692C10.8714 11.6088 13.1325 11.6088 15.2519 10.9693V10.5113C15.2519 10.0971 15.5877 9.76132 16.0019 9.76132C16.3675 9.76132 16.672 10.0229 16.7385 10.3692C17.835 9.82138 19.1546 8.96746 21.255 7.60222C21.3082 7.56761 21.3642 7.54062 21.4217 7.52098C21.2685 7.20333 21.0749 6.9275 20.8303 6.68281C20.0799 5.93245 19.0366 5.66267 17.3927 5.56568C17.1955 5.55405 16.9898 5.5449 16.7748 5.53771C16.7612 5.52668 16.7476 5.51529 16.734 5.50355C16.4933 5.29558 16.3051 5.02134 16.2103 4.76411L16.2071 4.75468C16.1712 4.64699 16.1433 4.56318 16.1121 4.48549C15.7158 3.49978 14.7872 2.83049 13.7268 2.76626C13.6432 2.7612 13.5548 2.76122 13.4413 2.76123L10.5832 2.76123ZM14.8195 5.32692L14.8149 5.31619L14.8101 5.30409L14.8055 5.29215L14.8019 5.2822L14.8001 5.27719L14.7958 5.26496L14.792 5.25367L14.7899 5.2474L14.7872 5.23906L14.7849 5.23202L14.7832 5.22633C14.7438 5.10831 14.7317 5.07327 14.7203 5.04499C14.5402 4.59694 14.1181 4.29271 13.6361 4.26352C13.6038 4.26157 13.5643 4.26123 13.4209 4.26123H10.5832C10.4398 4.26123 10.4003 4.26157 10.368 4.26352C9.88608 4.29271 9.46405 4.59684 9.28388 5.04477L9.28123 5.05175L9.27327 5.07368C9.26663 5.09227 9.25856 5.11552 9.24924 5.1428C9.23271 5.19117 9.21415 5.24669 9.19535 5.30309L9.19352 5.309L9.19128 5.31604L9.18855 5.32437L9.18646 5.33064L9.18262 5.34194L9.17838 5.35418L9.17661 5.35919L9.17297 5.36914L9.16839 5.3811L9.16351 5.39322L9.15934 5.40313L9.15869 5.40459C9.14476 5.44044 9.13001 5.47621 9.11446 5.51187C9.39809 5.51123 9.69367 5.51123 10.0018 5.51123H14.0018C14.3133 5.51123 14.6119 5.51123 14.8983 5.51189C14.8699 5.45079 14.8435 5.38907 14.8195 5.32692Z" fill="#212121"/>
<path opacity="0.5" d="M2.16208 9.01074C2 10.1145 2 11.5606 2 13.5111C2 17.2823 2 19.1679 3.17157 20.3395C4.34315 21.5111 6.22876 21.5111 10 21.5111H14C17.7712 21.5111 19.6569 21.5111 20.8284 20.3395C22 19.1679 22 17.2823 22 13.5111C22 11.5607 22 10.1147 21.8379 9.01094C19.5613 10.4908 18.1021 11.4345 16.7501 12.0157V12.5111C16.7501 12.9254 16.4143 13.2611 16.0001 13.2611C15.5914 13.2611 15.259 12.9342 15.2503 12.5276C13.12 13.0892 10.8802 13.0891 8.74991 12.5275C8.74121 12.9342 8.40883 13.2611 8.00009 13.2611C7.58587 13.2611 7.25009 12.9254 7.25009 12.5111V12.0156C5.89804 11.4344 4.43881 10.4906 2.16208 9.01074Z" fill="#212121"/>
</svg>