<svg width="365" height="257" viewBox="0 0 365 257" fill="none" xmlns="http://www.w3.org/2000/svg">
<path d="M186.413 256.455C197.391 256.455 206.29 247.564 206.29 236.595C206.29 225.627 197.391 216.735 186.413 216.735C175.435 216.735 166.535 225.627 166.535 236.595C166.535 247.564 175.435 256.455 186.413 256.455Z" fill="#FFDD2D"/>
<path d="M305.162 255.34C316.283 252.003 328.105 248.523 336.924 240.591C344.805 233.502 350.126 222.678 346.861 212.048C343.603 201.439 333.844 194.365 323.768 190.847C318.053 188.851 312.074 187.744 306.098 186.875C299.601 185.929 293.075 185.155 286.553 184.409C260.143 181.391 233.633 179.548 207.024 178.878C193.894 178.548 180.767 178.556 167.635 178.746C155.908 178.916 143.557 178.912 132.677 173.932C124.217 170.059 116.539 163.014 114.181 153.755C111.46 143.068 116.479 132.184 123.679 124.443C127.474 120.363 131.91 116.929 136.486 113.772C141.45 110.346 146.587 107.163 151.835 104.192C162.172 98.3432 172.978 93.3655 184.143 89.3106C189.65 87.3097 195.24 85.5835 200.878 83.9909C205.638 82.6462 210.414 81.2995 215.015 79.4674C223.909 75.9255 232.369 69.9259 234.631 60.0901C236.774 50.7682 233.16 40.6484 226.825 33.7233C219.495 25.7115 208.443 22.1993 197.847 21.6311C185.951 20.9931 174.33 23.9677 163.149 27.7428C151.224 31.7692 139.556 36.3989 127.379 39.6603C115.304 42.8912 102.995 45.1772 90.5643 46.4976C84.479 47.145 78.2099 47.876 72.0885 47.3804C66.9582 46.965 61.8541 45.4575 58.0731 41.8197C54.8311 38.7004 52.8999 34.4136 53.5638 29.8896C53.6844 29.0679 54.9337 29.4173 54.8139 30.2339C54.0056 35.7409 57.7522 40.8154 62.3691 43.4147C67.705 46.4189 74.198 46.423 80.1386 46.0795C93.0196 45.3022 105.813 43.4543 118.387 40.555C130.743 37.7355 142.657 33.7049 154.557 29.3992C165.86 25.3099 177.415 21.3188 189.49 20.4331C199.967 19.6645 210.989 21.1896 220.116 26.6602C228.138 31.468 234.037 39.486 235.916 48.6869C237.753 57.6778 235.209 66.7273 228.397 73.0014C221.345 79.4976 211.674 82.2749 202.662 84.8328C191.231 88.077 180.046 91.8693 169.219 96.7934C158.245 101.77 147.72 107.682 137.761 114.464C128.148 121.027 118.661 129.286 115.621 140.995C114.204 146.449 114.466 152.234 116.835 157.386C118.943 161.967 122.413 165.82 126.455 168.792C136.1 175.883 148.257 177.339 159.907 177.484C172.992 177.646 186.078 177.205 199.167 177.42C225.843 177.857 252.464 179.48 279.031 182.287C285.688 182.991 292.337 183.769 298.977 184.621C304.949 185.388 310.942 186.15 316.814 187.512C327.255 189.933 337.415 194.589 343.904 203.433C346.784 207.267 348.569 211.81 349.067 216.578C349.521 221.554 348.302 226.538 346.05 230.964C341.067 240.761 331.733 246.992 321.82 251.086C316.511 253.278 311.003 254.939 305.507 256.589C304.706 256.829 304.364 255.579 305.162 255.34Z" fill="#F2F2F2"/>
<path d="M54.4001 40.3682C60.1278 40.3682 64.771 35.729 64.771 30.0064C64.771 24.2837 60.1278 19.6445 54.4001 19.6445C48.6725 19.6445 44.0293 24.2837 44.0293 30.0064C44.0293 35.729 48.6725 40.3682 54.4001 40.3682Z" fill="#F2F2F2"/>
<path d="M126.348 60.0122C132.076 60.0122 136.719 55.3731 136.719 49.6504C136.719 43.9277 132.076 39.2886 126.348 39.2886C120.621 39.2886 115.978 43.9277 115.978 49.6504C115.978 55.3731 120.621 60.0122 126.348 60.0122Z" fill="#F2F2F2"/>
<path d="M187.277 20.7237C193.005 20.7237 197.648 16.0845 197.648 10.3618C197.648 4.63915 193.005 0 187.277 0C181.549 0 176.906 4.63915 176.906 10.3618C176.906 16.0845 181.549 20.7237 187.277 20.7237Z" fill="#F2F2F2"/>
<path d="M225.303 64.7613C231.031 64.7613 235.674 60.1221 235.674 54.3994C235.674 48.6767 231.031 44.0376 225.303 44.0376C219.576 44.0376 214.933 48.6767 214.933 54.3994C214.933 60.1221 219.576 64.7613 225.303 64.7613Z" fill="#F2F2F2"/>
<path d="M173.882 115.707C179.609 115.707 184.252 111.068 184.252 105.345C184.252 99.6225 179.609 94.9834 173.882 94.9834C168.154 94.9834 163.511 99.6225 163.511 105.345C163.511 111.068 168.154 115.707 173.882 115.707Z" fill="#F2F2F2"/>
<path d="M108.632 140.316C114.359 140.316 119.002 135.677 119.002 129.955C119.002 124.232 114.359 119.593 108.632 119.593C102.904 119.593 98.2607 124.232 98.2607 129.955C98.2607 135.677 102.904 140.316 108.632 140.316Z" fill="#F2F2F2"/>
<path d="M177.77 178.742C183.498 178.742 188.141 174.103 188.141 168.38C188.141 162.657 183.498 158.018 177.77 158.018C172.043 158.018 167.399 162.657 167.399 168.38C167.399 174.103 172.043 178.742 177.77 178.742Z" fill="#F2F2F2"/>
<path d="M252.094 200.329C257.822 200.329 262.465 195.689 262.465 189.967C262.465 184.244 257.822 179.605 252.094 179.605C246.367 179.605 241.724 184.244 241.724 189.967C241.724 195.689 246.367 200.329 252.094 200.329Z" fill="#F2F2F2"/>
<path d="M338.951 195.58C344.679 195.58 349.322 190.94 349.322 185.218C349.322 179.495 344.679 174.856 338.951 174.856C333.223 174.856 328.58 179.495 328.58 185.218C328.58 190.94 333.223 195.58 338.951 195.58Z" fill="#F2F2F2"/>
<path d="M184.283 29.3599C153.217 29.5791 127.781 54.8025 127.34 85.8389C127.336 86.1255 127.334 88.1403 127.334 90.7756C127.334 94.6395 128.87 98.345 131.605 101.077C134.339 103.81 138.048 105.345 141.915 105.345C143.832 105.345 145.731 104.967 147.501 104.233C149.272 103.5 150.881 102.425 152.236 101.069C153.591 99.7143 154.665 98.1057 155.397 96.3356C156.13 94.5656 156.506 92.6686 156.504 90.7533C156.503 88.9606 156.502 87.7199 156.502 87.6437C156.501 82.8471 157.75 78.1328 160.125 73.9646C162.501 69.7964 165.922 66.3179 170.051 63.8712C174.18 61.4245 178.876 60.094 183.676 60.0104C188.476 59.9269 193.215 61.0933 197.427 63.3948C201.639 65.6963 205.179 69.0537 207.699 73.1368C210.218 77.2198 211.631 81.8878 211.797 86.6816C211.963 91.4753 210.877 96.2298 208.647 100.477C206.416 104.725 203.117 108.319 199.074 110.906L199.079 110.912C199.079 110.912 178.325 124.261 171.998 142.574L172.003 142.575C170.891 146.327 170.327 150.219 170.33 154.132C170.33 155.741 170.424 169.814 170.607 181.236C170.671 185.177 172.283 188.935 175.096 191.699C177.908 194.463 181.696 196.012 185.641 196.011C187.623 196.011 189.586 195.619 191.416 194.859C193.246 194.098 194.908 192.983 196.305 191.578C197.703 190.173 198.808 188.506 199.558 186.673C200.308 184.84 200.688 182.876 200.676 180.896C200.612 170.435 200.578 158.254 200.578 157.37C200.578 146.126 211.435 134.922 220.353 127.616C230.623 119.202 238.013 107.737 240.981 94.8035C241.638 92.1408 242 89.414 242.061 86.6723C242.061 79.1109 240.564 71.6242 237.655 64.6436C234.746 57.663 230.484 51.3265 225.113 45.9991C219.742 40.6718 213.37 36.4588 206.362 33.6031C199.355 30.7474 191.851 29.3053 184.283 29.3599Z" fill="#FFDD2D"/>
<path d="M271.564 117.864C278.724 117.864 284.528 112.065 284.528 104.912C284.528 97.7584 278.724 91.9595 271.564 91.9595C264.405 91.9595 258.601 97.7584 258.601 104.912C258.601 112.065 264.405 117.864 271.564 117.864Z" fill="#2F2E41"/>
<path d="M247.609 251.33H242.312L239.791 230.914H247.61L247.609 251.33Z" fill="#A0616A"/>
<path d="M238.528 249.817H248.745V256.245H232.095C232.095 255.401 232.261 254.565 232.584 253.785C232.908 253.005 233.382 252.297 233.979 251.7C234.576 251.103 235.285 250.63 236.066 250.307C236.846 249.984 237.683 249.817 238.528 249.817Z" fill="#2F2E41"/>
<path d="M288.661 251.33H283.363L280.843 230.914H288.662L288.661 251.33Z" fill="#A0616A"/>
<path d="M279.579 249.817H289.796V256.245H273.146C273.146 255.401 273.313 254.565 273.636 253.785C273.959 253.005 274.433 252.297 275.031 251.7C275.628 251.103 276.337 250.63 277.118 250.307C277.898 249.984 278.735 249.817 279.579 249.817Z" fill="#2F2E41"/>
<path d="M269.595 117.94C275.456 117.94 280.208 113.192 280.208 107.335C280.208 101.479 275.456 96.7314 269.595 96.7314C263.733 96.7314 258.981 101.479 258.981 107.335C258.981 113.192 263.733 117.94 269.595 117.94Z" fill="#A0616A"/>
<path d="M275.92 152.149L280.669 141.247C281.823 138.69 282.153 135.838 281.615 133.085C281.077 130.332 279.697 127.813 277.666 125.877C277.249 125.465 276.806 125.08 276.339 124.724C273.996 122.893 271.108 121.895 268.133 121.888C266.133 121.895 264.158 122.334 262.343 123.174C262.187 123.243 262.036 123.317 261.881 123.39C261.582 123.533 261.289 123.688 261.004 123.848C259.143 124.915 257.56 126.404 256.382 128.195C255.203 129.986 254.462 132.028 254.219 134.158L252.123 151.704C251.596 153.081 232.79 202.818 239.367 240.79C239.437 241.195 239.635 241.568 239.932 241.853C240.229 242.138 240.61 242.321 241.018 242.374L247.686 243.281C248.173 243.347 248.667 243.227 249.068 242.944C249.47 242.662 249.749 242.237 249.85 241.757L261.038 188.475C261.108 188.144 261.287 187.846 261.546 187.629C261.805 187.411 262.13 187.287 262.468 187.275C262.807 187.264 263.139 187.366 263.413 187.566C263.686 187.765 263.884 188.051 263.976 188.376L279.783 244.408C279.896 244.815 280.139 245.174 280.476 245.43C280.812 245.685 281.223 245.824 281.646 245.824C281.772 245.823 281.898 245.812 282.022 245.789L290.167 244.222C290.641 244.134 291.064 243.872 291.354 243.487C291.644 243.103 291.781 242.625 291.736 242.145C290.539 228.809 284.178 162.005 275.92 152.149Z" fill="#2F2E41"/>
<path d="M228.349 116.16C228.275 116.791 228.341 117.43 228.541 118.032C228.741 118.634 229.071 119.186 229.507 119.647C229.944 120.108 230.476 120.468 231.067 120.701C231.658 120.935 232.293 121.036 232.927 120.997L238.859 135.242L243.347 128.595L237.025 116.088C236.89 115.028 236.371 114.054 235.565 113.351C234.76 112.648 233.724 112.265 232.655 112.274C231.585 112.283 230.556 112.683 229.762 113.4C228.969 114.116 228.466 115.098 228.349 116.16Z" fill="#A0616A"/>
<path d="M269.006 166.491C269.637 166.416 270.244 166.204 270.783 165.869C271.323 165.534 271.782 165.085 272.13 164.553C272.477 164.022 272.703 163.421 272.792 162.792C272.882 162.164 272.832 161.524 272.647 160.916L285.129 151.833L277.615 149.021L266.914 158.078C265.913 158.456 265.087 159.188 264.59 160.134C264.094 161.081 263.962 162.176 264.22 163.213C264.478 164.25 265.107 165.157 265.99 165.761C266.872 166.365 267.945 166.625 269.006 166.491Z" fill="#A0616A"/>
<path d="M248.658 144.738C248.179 144.738 247.702 144.691 247.233 144.598C246.097 144.382 245.033 143.89 244.132 143.166C243.232 142.442 242.524 141.508 242.07 140.446L233.758 130.32C233.583 130.106 233.455 129.857 233.383 129.59C233.312 129.322 233.298 129.042 233.344 128.769C233.389 128.496 233.493 128.236 233.647 128.006C233.801 127.776 234.003 127.582 234.238 127.436L240.152 123.779C240.37 123.644 240.613 123.553 240.867 123.512C241.12 123.472 241.379 123.482 241.629 123.541C241.879 123.601 242.114 123.71 242.321 123.861C242.529 124.012 242.704 124.203 242.838 124.422L248.695 134.065L259.914 125.781C260.807 125.313 261.839 125.182 262.821 125.411C263.803 125.641 264.67 126.216 265.263 127.031C265.856 127.846 266.135 128.847 266.051 129.851C265.966 130.855 265.522 131.795 264.801 132.5L253.604 142.705C252.288 144.008 250.511 144.739 248.658 144.738Z" fill="#2F2E41"/>
<path d="M278.971 159.967C278.956 159.967 278.941 159.967 278.926 159.966C278.653 159.96 278.385 159.896 278.138 159.779C277.892 159.662 277.673 159.495 277.495 159.288L272.238 153.16C272.059 152.952 271.926 152.707 271.848 152.444C271.771 152.18 271.75 151.903 271.788 151.63C271.825 151.358 271.92 151.097 272.066 150.864C272.213 150.631 272.407 150.432 272.635 150.279L282.48 143.722L273.562 133.01C273.043 132.146 272.852 131.124 273.025 130.131C273.198 129.138 273.723 128.241 274.503 127.603C275.284 126.965 276.268 126.628 277.276 126.655C278.285 126.682 279.249 127.071 279.995 127.75L290.834 138.333C291.687 139.112 292.338 140.086 292.731 141.171C293.125 142.256 293.249 143.421 293.093 144.565C292.936 145.709 292.505 146.798 291.835 147.738C291.165 148.679 290.276 149.443 289.245 149.964L280.386 159.357C280.205 159.549 279.985 159.703 279.742 159.807C279.499 159.912 279.236 159.967 278.971 159.967Z" fill="#2F2E41"/>
<path d="M266.896 137.387C266.812 137.387 266.728 137.382 266.644 137.371C266.278 137.326 265.932 137.178 265.648 136.943C265.364 136.708 265.153 136.397 265.041 136.046L261.09 123.944C260.991 123.638 261.006 123.307 261.133 123.011C261.259 122.716 261.489 122.476 261.779 122.336L261.907 122.276C262.023 122.221 262.138 122.166 262.256 122.114C264.098 121.26 266.103 120.815 268.134 120.809C270.77 120.813 273.347 121.587 275.55 123.035C275.845 123.231 276.051 123.536 276.124 123.882C276.197 124.229 276.13 124.591 275.939 124.889L268.528 136.489C268.355 136.764 268.114 136.991 267.828 137.148C267.543 137.305 267.222 137.387 266.896 137.387Z" fill="#E6E6E6"/>
<path d="M281.785 99.1294C284.128 99.1294 286.027 97.2319 286.027 94.8911C286.027 92.5504 284.128 90.6528 281.785 90.6528C279.442 90.6528 277.543 92.5504 277.543 94.8911C277.543 97.2319 279.442 99.1294 281.785 99.1294Z" fill="#2F2E41"/>
<path d="M267.243 90.2324C264.263 90.2324 261.405 91.4151 259.298 93.5202C257.192 95.6254 256.008 98.4806 256.008 101.458V106.207H261.854L264.65 101.458L265.489 106.207H283.231L278.478 101.458C278.478 98.4806 277.294 95.6254 275.187 93.5202C273.08 91.4151 270.223 90.2324 267.243 90.2324Z" fill="#2F2E41"/>
<path d="M283.965 91.9879C284.434 90.5224 285.405 89.269 286.708 88.4481C288.01 87.6272 289.561 87.2914 291.086 87.4997C293.79 87.9512 295.927 90.1223 297.201 92.5472C298.474 94.9721 299.062 97.686 299.918 100.287C300.775 102.889 301.989 105.504 304.15 107.188C306.312 108.872 309.628 109.329 311.751 107.597C311.509 109.402 310.704 111.086 309.452 112.409C308.199 113.733 306.562 114.629 304.771 114.972C302.98 115.315 301.127 115.087 299.474 114.32C297.82 113.552 296.45 112.285 295.557 110.697C294.436 108.706 294.147 106.373 293.815 104.113C293.483 101.853 293.051 99.5149 291.714 97.6624C290.377 95.81 287.874 94.6001 285.749 95.4439L283.965 91.9879Z" fill="#2F2E41"/>
<path d="M146.033 98.4539C142.165 98.4535 138.457 96.9183 135.722 94.1861C132.988 91.4538 131.451 87.7482 131.451 83.8843C131.451 81.2491 131.453 79.2342 131.457 78.9477C131.58 69.9214 133.855 61.0545 138.094 53.0825C131.129 62.608 127.3 74.0605 127.136 85.8556C127.132 86.1421 127.13 88.157 127.13 90.7922C127.13 94.6561 128.666 98.3617 131.401 101.094C134.135 103.826 137.844 105.361 141.711 105.362C144.889 105.361 147.98 104.323 150.514 102.407C153.047 100.491 154.886 97.8005 155.75 94.745C153.08 97.1372 149.619 98.4583 146.033 98.4539Z" fill="#3F3D56"/>
<path d="M185.272 60.0593C189.742 60.2726 194.095 61.5669 197.954 63.8309C201.814 66.095 205.067 69.2612 207.432 73.0577C209.797 76.8542 211.205 81.1676 211.535 85.6275C211.864 90.0873 211.105 94.5604 209.323 98.6627C211.901 95.6382 213.795 92.0939 214.877 88.2716C215.96 84.4492 216.204 80.4386 215.595 76.5132C214.985 72.5878 213.535 68.8398 211.345 65.5249C209.154 62.21 206.273 59.4061 202.9 57.3042C199.526 55.2024 195.738 53.8521 191.795 53.3453C187.852 52.8386 183.845 53.1874 180.049 54.368C176.253 55.5485 172.756 57.533 169.797 60.1861C166.838 62.8393 164.486 66.0988 162.902 69.7423C165.64 66.5247 169.081 63.9783 172.959 62.2994C176.837 60.6206 181.05 59.8541 185.272 60.0593Z" fill="#3F3D56"/>
<path d="M189.758 189.12C185.813 189.121 182.026 187.572 179.213 184.808C176.401 182.044 174.789 178.286 174.725 174.345C174.542 162.922 174.447 148.849 174.447 147.241C174.445 143.328 175.008 139.436 176.121 135.684L176.116 135.683C176.773 133.8 177.566 131.967 178.49 130.199C175.654 133.974 173.398 138.151 171.795 142.591L171.8 142.592C170.687 146.343 170.123 150.236 170.126 154.149C170.126 155.757 170.221 169.83 170.404 181.253C170.468 185.194 172.08 188.952 174.892 191.716C177.705 194.48 181.492 196.029 185.437 196.028C188.69 196.027 191.855 194.973 194.457 193.023C197.059 191.073 198.959 188.333 199.871 185.213C197.106 187.732 193.499 189.125 189.758 189.12Z" fill="#3F3D56"/>
<path d="M54.681 251.527L59.9783 251.527L62.4989 231.11L54.6797 231.111L54.681 251.527Z" fill="#FFB8B8"/>
<path d="M70.1953 256.441L53.5455 256.442L53.5452 250.015L63.7621 250.014C65.4682 250.014 67.1045 250.691 68.311 251.897C69.5174 253.102 70.1952 254.737 70.1953 256.441Z" fill="#2F2E41"/>
<path d="M35.6673 251.527L40.9647 251.527L43.4852 231.11L35.666 231.111L35.6673 251.527Z" fill="#FFB8B8"/>
<path d="M51.1826 256.441L34.5328 256.442L34.5325 250.015L44.7494 250.014C46.4555 250.014 48.0918 250.691 49.2983 251.897C50.5047 253.102 51.1825 254.737 51.1826 256.441Z" fill="#2F2E41"/>
<path d="M40.2971 245.248L35.1225 244.976C34.8556 244.962 34.5942 244.895 34.3534 244.78C34.1126 244.664 33.8972 244.502 33.7196 244.302C33.542 244.103 33.4058 243.87 33.3189 243.618C33.2319 243.365 33.196 243.098 33.2131 242.832L39.3979 174.415L67.8793 182.094L70.6233 181.346L62.0422 241.913C61.9691 242.368 61.7427 242.786 61.4002 243.095C61.0578 243.405 60.62 243.589 60.159 243.616L54.5808 243.876C54.3019 243.891 54.0228 243.849 53.7611 243.751C53.4995 243.653 53.261 243.502 53.0607 243.307C52.8604 243.113 52.7027 242.879 52.5976 242.62C52.4924 242.362 52.4421 242.084 52.4498 241.805L53.4605 205.454C53.4652 205.286 53.4068 205.122 53.2967 204.995C53.1866 204.868 53.0328 204.786 52.8656 204.767C52.6984 204.747 52.53 204.791 52.3935 204.89C52.257 204.988 52.1624 205.134 52.1282 205.298L42.3809 243.643C42.2889 244.098 42.0418 244.507 41.6818 244.8C41.3218 245.093 40.8711 245.253 40.4065 245.251C40.3703 245.251 40.3338 245.25 40.2971 245.248Z" fill="#2F2E41"/>
<path d="M55.6318 118.436C61.4934 118.436 66.2451 113.688 66.2451 107.832C66.2451 101.975 61.4934 97.2275 55.6318 97.2275C49.7703 97.2275 45.0186 101.975 45.0186 107.832C45.0186 113.688 49.7703 118.436 55.6318 118.436Z" fill="#FFB8B8"/>
<path d="M37.961 138.986L39.1279 164.142L39.5498 173.295C39.5666 173.693 39.702 174.077 39.9387 174.398C40.1753 174.72 40.5025 174.963 40.8783 175.097L68.2469 185.003C68.468 185.085 68.7023 185.126 68.9381 185.124C69.2077 185.125 69.4748 185.072 69.7234 184.968C69.972 184.864 70.1971 184.711 70.3852 184.518C70.5733 184.325 70.7206 184.096 70.8182 183.845C70.9158 183.594 70.9618 183.326 70.9534 183.057L69.8314 137.824C69.7577 134.113 68.3904 130.544 65.9653 127.732C63.5401 124.92 60.2091 123.042 56.5464 122.421C56.2817 122.381 56.0124 122.34 55.7431 122.304C53.4719 122.023 51.1665 122.242 48.9892 122.946C46.8118 123.65 44.8154 124.822 43.1403 126.38C41.4058 127.974 40.0429 129.93 39.1479 132.108C38.2529 134.286 37.8477 136.634 37.961 138.986Z" fill="#CCCCCC"/>
<path d="M81.3217 179.983C80.6744 179.783 80.083 179.433 79.5947 178.964C79.1064 178.494 78.7347 177.917 78.5093 177.278C78.284 176.64 78.2111 175.957 78.2966 175.286C78.3821 174.614 78.6236 173.971 79.0017 173.409L69.7207 161.079L77.7297 160.583L85.3153 172.369C86.1273 172.996 86.6924 173.889 86.9114 174.891C87.1304 175.893 86.9893 176.94 86.5129 177.848C86.0364 178.757 85.2551 179.469 84.3058 179.859C83.3566 180.249 82.3001 180.293 81.3217 179.983Z" fill="#FFB8B8"/>
<path d="M74.7959 171.178C74.55 171.078 74.3264 170.931 74.1379 170.744C73.9494 170.558 73.7998 170.335 73.6978 170.091L59.7152 136.806C59.4409 136.154 59.2978 135.455 59.294 134.748C59.2903 134.041 59.426 133.34 59.6935 132.685C59.961 132.031 60.3549 131.435 60.8528 130.933C61.3507 130.431 61.9428 130.031 62.5953 129.758C63.2478 129.484 63.9478 129.342 64.6554 129.338C65.363 129.335 66.0643 129.471 66.7192 129.739C67.3741 130.007 67.9698 130.401 68.4722 130.899C68.9746 131.397 69.3739 131.989 69.6472 132.641L83.6298 165.926C83.8365 166.42 83.8388 166.975 83.6362 167.47C83.4336 167.965 83.0428 168.36 82.5493 168.568L76.3417 171.171C76.0974 171.274 75.8349 171.328 75.5695 171.329C75.3042 171.33 75.0412 171.279 74.7959 171.178Z" fill="#CCCCCC"/>
<path d="M52.2198 170.004L65.6498 144.311C65.9087 143.817 66.3533 143.446 66.886 143.279C67.4186 143.112 67.9958 143.163 68.4909 143.42L87.9844 153.592C88.479 153.851 88.8506 154.295 89.0177 154.827C89.1849 155.36 89.134 155.936 88.8761 156.431L75.4462 182.123C75.1872 182.618 74.7426 182.989 74.2099 183.156C73.6773 183.323 73.1001 183.272 72.605 183.014L53.1115 172.842C52.6169 172.584 52.2453 172.139 52.0782 171.607C51.911 171.075 51.962 170.498 52.2198 170.004Z" fill="#3F3D56"/>
<path d="M61.2257 158.265C60.987 157.632 60.6033 157.062 60.1052 156.603C59.6072 156.144 59.0086 155.807 58.3572 155.62C57.7058 155.433 57.0196 155.401 56.3535 155.526C55.6874 155.651 55.0597 155.929 54.5206 156.34L41.6527 147.811L41.6309 155.828L53.8537 162.698C54.5284 163.471 55.454 163.982 56.468 164.141C57.482 164.3 58.5198 164.098 59.3993 163.569C60.2788 163.04 60.9439 162.219 61.2779 161.249C61.6118 160.279 61.5934 159.223 61.2257 158.265Z" fill="#FFB8B8"/>
<path d="M44.9569 160.069L34.4405 151.746C33.3029 151.364 32.2749 150.712 31.4449 149.846C30.6148 148.98 30.0075 147.926 29.675 146.774C29.3426 145.622 29.2949 144.406 29.5361 143.232C29.7773 142.057 30.3002 140.958 31.0599 140.03L40.6085 127.527C41.272 126.717 42.2052 126.172 43.2375 125.993C44.2697 125.814 45.3321 126.012 46.2304 126.551C47.1287 127.089 47.8029 127.933 48.1297 128.928C48.4566 129.922 48.4143 131.001 48.0105 131.967L40.4554 144.315L51.5583 149.577C51.8164 149.699 52.0457 149.875 52.2309 150.092C52.4161 150.31 52.553 150.564 52.6326 150.838C52.7121 151.112 52.7326 151.4 52.6925 151.683C52.6524 151.966 52.5527 152.237 52.4001 152.478L47.9183 159.565C47.7668 159.804 47.5667 160.008 47.3309 160.165C47.0952 160.322 46.8291 160.428 46.5499 160.476C46.5388 160.478 46.5276 160.48 46.5165 160.481C46.2421 160.523 45.9621 160.507 45.6939 160.436C45.4256 160.365 45.1748 160.24 44.9569 160.069Z" fill="#CCCCCC"/>
<path d="M47.6124 114.932C47.5669 114.799 47.5525 114.657 47.5702 114.518C47.588 114.378 47.6375 114.245 47.7149 114.127C47.7923 114.01 47.8956 113.911 48.0169 113.84C48.1382 113.769 48.2742 113.726 48.4146 113.715C48.7021 113.731 48.9834 113.804 49.2415 113.932C49.4997 114.059 49.7294 114.237 49.9167 114.455C50.3008 114.898 50.748 115.282 51.2438 115.594C51.7572 115.853 52.4535 115.816 52.7462 115.323C53.0211 114.86 52.8327 114.24 52.6664 113.702C52.243 112.334 52.006 110.915 51.962 109.484C51.9141 107.887 52.1397 106.219 53.0249 104.973C54.1674 103.365 56.2103 102.755 58.1436 102.799C60.0769 102.843 61.9788 103.439 63.8938 103.816C64.5549 103.946 65.332 104.013 65.7742 103.501C66.2444 102.957 66.0717 102.076 65.8717 101.341C65.3528 99.4335 64.8022 97.4617 63.5965 95.9214C62.2928 94.3209 60.4305 93.2734 58.3848 92.9898C56.4207 92.7467 54.427 92.9729 52.5675 93.6497C49.5378 94.6037 46.8719 96.4593 44.9264 98.9681C42.9208 101.636 42.0541 104.989 42.516 108.294C42.9671 111.172 44.4937 113.772 46.7878 115.571L47.6124 114.932Z" fill="#2F2E41"/>
<path d="M182.034 251.611C179.21 250.383 176.711 248.515 174.733 246.156C172.756 243.797 171.354 241.011 170.639 238.018C169.923 235.025 169.914 231.906 170.612 228.909C171.309 225.912 172.694 223.117 174.658 220.747C172.381 222.407 170.484 224.533 169.093 226.982C167.701 229.431 166.847 232.148 166.587 234.952C166.327 237.756 166.666 240.584 167.583 243.246C168.5 245.909 169.974 248.347 171.906 250.398C173.838 252.448 176.184 254.065 178.79 255.14C181.395 256.215 184.199 256.724 187.016 256.634C189.833 256.544 192.599 255.856 195.13 254.616C197.661 253.376 199.898 251.612 201.695 249.442C198.893 251.488 195.603 252.765 192.154 253.146C188.704 253.526 185.215 252.997 182.034 251.611Z" fill="#3F3D56"/>
</svg>