<svg width="25" height="25" viewBox="0 0 25 25" fill="none" xmlns="http://www.w3.org/2000/svg">
<path opacity="0.5" d="M3.5 10.5C3.5 6.72876 3.5 4.84315 4.67157 3.67157C5.84315 2.5 7.72876 2.5 11.5 2.5H13.5C17.2712 2.5 19.1569 2.5 20.3284 3.67157C21.5 4.84315 21.5 6.72876 21.5 10.5V14.5C21.5 18.2712 21.5 20.1569 20.3284 21.3284C19.1569 22.5 17.2712 22.5 13.5 22.5H11.5C7.72876 22.5 5.84315 22.5 4.67157 21.3284C3.5 20.1569 3.5 18.2712 3.5 14.5V10.5Z" fill="#212121"/>
<path fill-rule="evenodd" clip-rule="evenodd" d="M7.75 10.5C7.75 10.0858 8.08579 9.75 8.5 9.75H16.5C16.9142 9.75 17.25 10.0858 17.25 10.5C17.25 10.9142 16.9142 11.25 16.5 11.25H8.5C8.08579 11.25 7.75 10.9142 7.75 10.5Z" fill="#212121"/>
<path fill-rule="evenodd" clip-rule="evenodd" d="M7.75 14.5C7.75 14.0858 8.08579 13.75 8.5 13.75H13.5C13.9142 13.75 14.25 14.0858 14.25 14.5C14.25 14.9142 13.9142 15.25 13.5 15.25H8.5C8.08579 15.25 7.75 14.9142 7.75 14.5Z" fill="#212121"/>
</svg>
