<svg width="25" height="24" viewBox="0 0 25 24" fill="none" xmlns="http://www.w3.org/2000/svg">
<path fill-rule="evenodd" clip-rule="evenodd" d="M13.5667 13.5002C12.9274 12.9555 11.9872 12.9555 11.348 13.5002C11.0741 13.7337 10.7335 13.8747 10.3747 13.9034C9.53749 13.9702 8.87267 14.635 8.80586 15.4722C8.77723 15.831 8.63615 16.1716 8.40271 16.4455C7.85795 17.0847 7.85795 18.0249 8.40271 18.6642C8.63615 18.9381 8.77723 19.2787 8.80586 19.6375C8.87267 20.4747 9.53749 21.1395 10.3747 21.2063C10.7335 21.2349 11.0741 21.376 11.348 21.6095C11.9872 22.1542 12.9274 22.1542 13.5667 21.6095C13.8406 21.376 14.1812 21.2349 14.54 21.2063C15.3772 21.1395 16.042 20.4747 16.1088 19.6375C16.1374 19.2787 16.2785 18.9381 16.512 18.6642C17.0567 18.0249 17.0567 17.0847 16.512 16.4455C16.2785 16.1716 16.1374 15.831 16.1088 15.4722C16.042 14.635 15.3772 13.9702 14.54 13.9034C14.1812 13.8747 13.8406 13.7337 13.5667 13.5002ZM14.4693 17.1033C14.7721 16.8207 14.7884 16.3461 14.5058 16.0433C14.2232 15.7405 13.7486 15.7241 13.4458 16.0067L11.8147 17.5291L11.4693 17.2067C11.1664 16.9241 10.6919 16.9405 10.4092 17.2433C10.1266 17.5461 10.143 18.0207 10.4458 18.3033L11.3029 19.1033C11.5911 19.3723 12.0382 19.3723 12.3264 19.1033L14.4693 17.1033Z" fill="#212121"/>
<path opacity="0.5" d="M2.45703 12.0002V8.00021C2.45703 5.17179 2.45703 3.75757 3.33571 2.87889C4.21439 2.00021 5.6286 2.00021 8.45703 2.00021H16.457C19.2855 2.00021 20.6997 2.00021 21.5784 2.87889C22.457 3.75757 22.457 5.17179 22.457 8.00021V12.0002C22.457 14.8286 22.457 16.2429 21.5784 17.1215C20.7426 17.9573 19.4223 17.9981 16.8612 18.0001C17.0038 17.4704 16.8872 16.8864 16.5115 16.4455C16.278 16.1716 16.137 15.831 16.1083 15.4722C16.0415 14.635 15.3767 13.9702 14.5395 13.9034C14.1807 13.8747 13.8401 13.7337 13.5662 13.5002C12.9269 12.9555 11.9868 12.9555 11.3475 13.5002C11.0736 13.7337 10.733 13.8747 10.3742 13.9034C9.537 13.9702 8.87218 14.635 8.80537 15.4722C8.77674 15.831 8.63566 16.1716 8.40222 16.4455C8.02651 16.8864 7.90993 17.4704 8.05246 18.0001C5.49168 17.9981 4.17146 17.9573 3.33571 17.1215C2.45703 16.2429 2.45703 14.8286 2.45703 12.0002Z" fill="#212121"/>
<path d="M8.70703 6.00021C8.70703 5.586 9.04282 5.25021 9.45703 5.25021H15.457C15.8712 5.25021 16.207 5.586 16.207 6.00021C16.207 6.41443 15.8712 6.75021 15.457 6.75021H9.45703C9.04282 6.75021 8.70703 6.41443 8.70703 6.00021Z" fill="#212121"/>
<path d="M7.45703 8.75021C7.04282 8.75021 6.70703 9.086 6.70703 9.50021C6.70703 9.91443 7.04282 10.2502 7.45703 10.2502H17.457C17.8712 10.2502 18.207 9.91443 18.207 9.50021C18.207 9.086 17.8712 8.75021 17.457 8.75021H7.45703Z" fill="#212121"/>
</svg>