<svg width="40" height="40" viewBox="0 0 40 40" fill="none" xmlns="http://www.w3.org/2000/svg">
<g id="Bold Duotone / Hands / Hand Heart">
<path id="Vector" d="M11.6665 8.04891C11.6665 10.6286 14.5431 13.346 16.9161 15.1488C18.2479 16.1607 18.9139 16.6666 19.9998 16.6666C21.0858 16.6666 21.7518 16.1607 23.0836 15.1489C25.4566 13.346 28.3332 10.6286 28.3332 8.04889C28.3332 3.39861 23.7497 1.66242 19.9998 5.25473C16.25 1.66242 11.6665 3.39861 11.6665 8.04891Z" fill="#212121"/>
<path id="Vector_2" opacity="0.5" d="M10.4331 35.6473H9.99984C8.42849 35.6473 7.64281 35.6473 7.15466 35.1592C6.6665 34.671 6.6665 33.8853 6.6665 32.314V30.4607C6.6665 29.5966 6.6665 29.1645 6.88847 28.7786C7.11043 28.3927 7.44529 28.198 8.11501 27.8084C12.5241 25.2441 18.7858 23.8005 22.9649 26.2932C23.2457 26.4606 23.4983 26.6628 23.7141 26.9052C24.6442 27.95 24.5764 29.5268 23.5044 30.4625C23.2781 30.6601 23.0368 30.8099 22.7938 30.862C22.9935 30.8389 23.1848 30.8123 23.3675 30.7832C24.8865 30.5409 26.1616 29.7292 27.3289 28.8474L30.3409 26.5721C31.4027 25.77 32.9787 25.7698 34.0407 26.5717C34.9968 27.2937 35.2892 28.4824 34.6847 29.4512C33.9798 30.5811 32.9867 32.0266 32.0331 32.9099C31.0781 33.7944 29.6563 34.584 28.4956 35.1442C27.2099 35.7648 25.7895 36.1224 24.3447 36.3563C21.4146 36.8306 18.3608 36.7582 15.4604 36.1606C13.8207 35.8228 12.1178 35.6473 10.4331 35.6473Z" fill="#212121"/>
</g>
</svg>
