<svg width="24" height="25" viewBox="0 0 24 25" fill="none" xmlns="http://www.w3.org/2000/svg">
<path d="M14.2172 4.01088C12.7962 3.34468 11.2037 3.34468 9.78272 4.01088L3.0916 7.14782C2.0156 7.65228 1.73507 9.07475 2.25 10.0579L2.25 15.0112C2.25 15.4254 2.58579 15.7612 3 15.7612C3.41421 15.7612 3.75 15.4254 3.75 15.0112V11.1833L9.78281 14.0116C11.2038 14.6778 12.7963 14.6778 14.2173 14.0116L20.9084 10.8746C22.3639 10.1923 22.3639 7.83022 20.9084 7.14787L14.2172 4.01088Z" fill="#212121"/>
<path opacity="0.5" d="M5 11.7695L9.78281 14.0118C11.2038 14.678 12.7963 14.678 14.2173 14.0118L19 11.7696V17.1367C19 18.1447 18.4965 19.0885 17.6147 19.5769C16.1463 20.39 13.796 21.5113 12 21.5113C10.204 21.5113 7.8537 20.39 6.38533 19.5769C5.5035 19.0885 5 18.1447 5 17.1367V11.7695Z" fill="#212121"/>
</svg>