<svg width="24" height="25" viewBox="0 0 24 25" fill="none" xmlns="http://www.w3.org/2000/svg">
<path d="M3.29289 9.80412C3 10.097 3 10.5684 3 11.5112V17.5112C3 18.454 3 18.9254 3.29289 19.2183C3.58579 19.5112 4.05719 19.5112 5 19.5112C5.94281 19.5112 6.41421 19.5112 6.70711 19.2183C7 18.9254 7 18.454 7 17.5112V11.5112C7 10.5684 7 10.097 6.70711 9.80412C6.41421 9.51123 5.94281 9.51123 5 9.51123C4.05719 9.51123 3.58579 9.51123 3.29289 9.80412Z" fill="#212121"/>
<path opacity="0.4" d="M17.2929 2.80412C17 3.09702 17 3.56842 17 4.51123V17.5112C17 18.454 17 18.9254 17.2929 19.2183C17.5858 19.5112 18.0572 19.5112 19 19.5112C19.9428 19.5112 20.4142 19.5112 20.7071 19.2183C21 18.9254 21 18.454 21 17.5112V4.51123C21 3.56842 21 3.09702 20.7071 2.80412C20.4142 2.51123 19.9428 2.51123 19 2.51123C18.0572 2.51123 17.5858 2.51123 17.2929 2.80412Z" fill="#212121"/>
<path opacity="0.7" d="M10 7.51123C10 6.56842 10 6.09702 10.2929 5.80412C10.5858 5.51123 11.0572 5.51123 12 5.51123C12.9428 5.51123 13.4142 5.51123 13.7071 5.80412C14 6.09702 14 6.56842 14 7.51123V17.5112C14 18.454 14 18.9254 13.7071 19.2183C13.4142 19.5112 12.9428 19.5112 12 19.5112C11.0572 19.5112 10.5858 19.5112 10.2929 19.2183C10 18.9254 10 18.454 10 17.5112V7.51123Z" fill="#212121"/>
<path d="M3 21.7612C2.58579 21.7612 2.25 22.097 2.25 22.5112C2.25 22.9254 2.58579 23.2612 3 23.2612H21C21.4142 23.2612 21.75 22.9254 21.75 22.5112C21.75 22.097 21.4142 21.7612 21 21.7612H3Z" fill="#212121"/>
</svg>