<svg width="52" height="39" viewBox="0 0 52 39" fill="none" xmlns="http://www.w3.org/2000/svg">
<g id="Group 2">
<path id="Vector" d="M26.1784 37.6956C28.5422 37.6956 30.4584 36.6569 30.4584 35.3756C30.4584 34.0943 28.5422 33.0556 26.1784 33.0556C23.8147 33.0556 21.8984 34.0943 21.8984 35.3756C21.8984 36.6569 23.8147 37.6956 26.1784 37.6956Z" fill="#FFDD2D"/>
<g id="Mask group">
<mask id="mask0_108_4584" style="mask-type:alpha" maskUnits="userSpaceOnUse" x="0" y="4" width="52" height="34">
<g id="Group">
<path id="Vector_2" d="M49.8566 4.39145H2.1C1.21634 4.39145 0.5 5.10779 0.5 5.99145V36.0958C0.5 36.9794 1.21634 37.6958 2.1 37.6958H49.8566C50.7402 37.6958 51.4566 36.9794 51.4566 36.0958V5.99145C51.4566 5.10779 50.7402 4.39145 49.8566 4.39145Z" fill="black"/>
</g>
</mask>
<g mask="url(#mask0_108_4584)">
<g id="Group_2">
<path id="Vector_3" d="M0.5 5.50006C0.5 4.83966 1.03528 4.30438 1.6956 4.30438C2.356 4.30438 2.89128 4.83966 2.89128 5.50006V33.4869C2.89128 34.3706 3.6076 35.0869 4.49128 35.0869H26.1086L47.6886 35.006C48.5699 35.0027 49.2826 34.2873 49.2826 33.406V5.39134C49.2826 4.79102 49.7692 4.30438 50.3695 4.30438C50.9698 4.30438 51.4565 4.79102 51.4565 5.39134V36.0087C51.4565 36.8924 50.7402 37.6087 49.8565 37.6087H2.1C1.21632 37.6087 0.5 36.8924 0.5 36.0087V5.50006Z" fill="#FFDD2D"/>
</g>
</g>
</g>
<path id="Vector_4" d="M28.3784 32.9757H23.8984V33.1357H28.3784V32.9757Z" fill="#FFDD2D"/>
<path id="Vector_5" d="M28.4578 35.6956H23.4978C22.7908 35.6956 22.2178 36.2687 22.2178 36.9756C22.2178 37.6826 22.7908 38.2556 23.4978 38.2556H28.4578C29.1647 38.2556 29.7378 37.6826 29.7378 36.9756C29.7378 36.2687 29.1647 35.6956 28.4578 35.6956Z" fill="#FFDD2D"/>
<g id="Mask group_2">
<mask id="mask1_108_4584" style="mask-type:alpha" maskUnits="userSpaceOnUse" x="4" y="0" width="44" height="36">
<g id="Group_3">
<path id="Vector_6" d="M26.3779 7.79254V33.5013C26.3779 34.652 27.5523 35.4192 28.6031 34.9503C31.2498 33.7692 34.4474 32.3606 36.5746 31.8946C38.8849 31.3885 42.4766 30.9325 45.2758 30.7769C46.1518 30.7282 46.8579 30.0149 46.8579 29.1375V3.29566C46.8579 2.41198 46.1419 1.69934 45.2595 1.74662C43.2564 1.85382 40.0726 2.15071 36.5746 2.82543C32.5066 3.60999 28.9074 5.38998 27.0824 6.49966C26.6334 6.77278 26.3779 7.26702 26.3779 7.79254Z" fill="#FFDD2D" stroke="#FFDD2D" stroke-width="1.76"/>
<path id="Vector_7" d="M25.978 7.7925V33.5012C25.978 34.6519 24.8036 35.4191 23.7528 34.9503C21.1062 33.7691 17.9085 32.3606 15.7814 31.8946C13.4711 31.3885 9.87941 30.9325 7.08013 30.7769C6.20413 30.7282 5.49805 30.0148 5.49805 29.1375V3.29562C5.49805 2.41194 6.21405 1.6993 7.09645 1.74658C9.09957 1.85378 12.2833 2.15066 15.7814 2.82538C19.8493 3.60994 23.4486 5.38994 25.2736 6.49962C25.7226 6.77274 25.978 7.26698 25.978 7.7925Z" fill="#FFDD2D" stroke="#FFDD2D" stroke-width="1.76"/>
</g>
</mask>
<g mask="url(#mask1_108_4584)">
<g id="Group_4">
<path id="Vector_8" d="M6.77839 24.9357C6.77839 23.7757 6.77839 13.3757 6.77839 13.3757V4.77573C6.77839 2.46445 7.07695 0.943007 9.11631 0.895247C8.82039 0.890847 8.21935 0.879408 7.13839 0.855728C5.61839 0.855728 4.45839 2.01573 4.61839 4.69573C4.77839 7.37573 4.53839 18.2157 4.53839 24.9357C4.53839 31.6557 3.69839 31.6157 9.97839 31.8957C15.0024 32.1197 20.0184 34.1224 21.8984 35.0957L25.9784 33.0157C23.5384 33.0157 22.2984 31.8957 22.2984 31.8957C22.2984 31.8957 18.7784 30.3997 17.8984 30.1357C17.0184 29.8717 15.8318 29.6157 15.0184 29.4557C14.3384 29.3357 11.3784 28.9624 9.97839 28.8557C7.55103 28.6447 6.77839 27.446 6.77839 24.9357Z" fill="#FFDD2D"/>
<path id="Vector_9" d="M24.906 6.7986C24.8647 6.76804 24.8343 6.74604 24.8189 6.7358C20.8697 4.103 14.4189 3.0158 9.33892 2.6158C9.07228 2.60244 8.53892 2.6958 8.53892 3.1758V13.3758V26.1358C8.52556 26.4692 8.65892 27.0958 9.97892 27.0958C11.6399 27.0958 13.1789 27.4168 15.0189 27.6558C16.8589 27.8948 20.0365 28.9475 22.2989 29.9758C22.6856 30.1758 23.6029 30.6238 24.1789 30.8158C24.7549 31.0078 25.0323 30.5224 25.0989 30.2558C25.2189 22.7358 25.0989 7.7758 25.0989 7.7758C25.0989 7.7758 25.1052 7.03388 24.906 6.7986Z" fill="#FFDD2D"/>
<path id="Vector_10" d="M45.5789 24.9358C45.5789 23.7758 45.5789 13.3758 45.5789 13.3758V4.77577C45.5789 2.46449 45.2803 0.943053 43.241 0.895293C43.5369 0.890893 44.1379 0.879454 45.2189 0.855774C46.7389 0.855774 47.8989 2.01577 47.7389 4.69577C47.5789 7.37577 47.8189 18.2158 47.8189 24.9358C47.8189 31.6558 48.6589 31.6158 42.3789 31.8958C37.3549 32.1198 32.3389 34.1224 30.4589 35.0958L26.3789 33.0158C28.8189 33.0158 30.0589 31.8958 30.0589 31.8958C30.0589 31.8958 33.5789 30.3998 34.4589 30.1358C35.3389 29.8718 36.5255 29.6158 37.3389 29.4558C38.0189 29.3358 40.9789 28.9624 42.3789 28.8558C44.8063 28.6447 45.5789 27.446 45.5789 24.9358Z" fill="#FFDD2D"/>
<path id="Vector_11" d="M27.4514 6.7986C27.4927 6.76804 27.5231 6.74604 27.5384 6.7358C31.4876 4.103 37.9384 3.0158 43.0184 2.6158C43.2851 2.60244 43.8184 2.6958 43.8184 3.1758V13.3758V26.1358C43.8318 26.4692 43.6984 27.0958 42.3784 27.0958C40.7175 27.0958 39.1784 27.4168 37.3384 27.6558C35.4984 27.8948 32.3208 28.9475 30.0584 29.9758C29.6718 30.1758 28.7544 30.6238 28.1784 30.8158C27.6024 31.0078 27.3251 30.5224 27.2584 30.2558C27.1384 22.7358 27.2584 7.7758 27.2584 7.7758C27.2584 7.7758 27.2521 7.03388 27.4514 6.7986Z" fill="#FFDD2D"/>
</g>
</g>
</g>
</g>
</svg>
