<svg width="49" height="39" viewBox="0 0 49 39" fill="none" xmlns="http://www.w3.org/2000/svg">
<mask id="mask0_108_103" style="mask-type:alpha" maskUnits="userSpaceOnUse" x="0" y="5" width="49" height="33">
<path d="M47.4614 5.54529H1.53857C0.688839 5.54529 0 6.23413 0 7.08385V36.0323C0 36.882 0.688839 37.5708 1.53857 37.5708H47.4614C48.3112 37.5708 49 36.882 49 36.0323V7.08385C49 6.23413 48.3112 5.54529 47.4614 5.54529Z" fill="black"/>
</mask>
<g mask="url(#mask0_108_103)">
<path d="M0 6.6113C0 5.97633 0.514726 5.46161 1.14969 5.46161C1.78474 5.46161 2.29946 5.97633 2.29946 6.6113V33.5237C2.29946 34.3734 2.98828 35.0622 3.83803 35.0622H24.6254L45.3767 34.9844C46.2242 34.9812 46.9095 34.2933 46.9095 33.4458V6.50683C46.9095 5.92956 47.3774 5.46161 47.9547 5.46161C48.532 5.46161 48.9999 5.92956 48.9999 6.50683V35.9486C48.9999 36.7983 48.3111 37.4872 47.4614 37.4872H1.53857C0.688816 37.4872 0 36.7983 0 35.9486V6.6113Z" fill="#FFDD2D"/>
</g>
<path d="M26.8847 35.6476H22.1151C21.4353 35.6476 20.8843 36.1987 20.8843 36.8785C20.8843 37.5583 21.4353 38.1093 22.1151 38.1093H26.8847C27.5645 38.1093 28.1155 37.5583 28.1155 36.8785C28.1155 36.1987 27.5645 35.6476 26.8847 35.6476Z" fill="#FFDD2D"/>
<path d="M24.8845 8.81592V33.5375C24.8845 34.644 26.0138 35.3818 27.0243 34.9309C29.5693 33.7951 32.6442 32.4407 34.6896 31.9926C36.9113 31.5059 40.365 31.0674 43.0568 30.9178C43.8992 30.8709 44.5782 30.185 44.5782 29.3413V4.4917C44.5782 3.64195 43.8897 2.95667 43.0411 3.00214C41.1149 3.10522 38.0534 3.3907 34.6896 4.03952C30.7779 4.79395 27.3168 6.50561 25.562 7.57268C25.1302 7.83531 24.8845 8.31057 24.8845 8.81592Z" fill="#FFDD2D" stroke="#FFDD2D" stroke-width="5"/>
<path d="M24.5 8.81592V33.5375C24.5 34.644 23.3707 35.3818 22.3603 34.9309C19.8153 33.7951 16.7404 32.4407 14.6949 31.9926C12.4733 31.5059 9.01953 31.0674 6.32773 30.9178C5.48537 30.8709 4.8064 30.185 4.8064 29.3413V4.4917C4.8064 3.64195 5.49491 2.95667 6.34342 3.00214C8.26963 3.10522 11.3311 3.3907 14.6949 4.03952C18.6066 4.79395 22.0677 6.50561 23.8226 7.57268C24.2544 7.83531 24.5 8.31057 24.5 8.81592Z" fill="#FFDD2D" stroke="#FFDD2D" stroke-width="5"/>
<path d="M24.4999 8.31606V30.2989C24.4999 31.4075 23.3673 32.1439 22.356 31.6896C20.1264 30.688 17.4975 29.5336 15.7289 29.1429C13.7856 28.7137 10.7883 28.3261 8.40502 28.1829C7.56289 28.1324 6.8833 27.4461 6.8833 26.6024V4.49172C6.8833 3.64197 7.57173 2.95731 8.4201 3.00639C10.15 3.10647 12.8125 3.3658 15.7289 3.93291C19.1785 4.60365 22.2363 6.11345 23.8263 7.07813C24.2565 7.33922 24.4999 7.81279 24.4999 8.31606Z" fill="#FFDD2D" stroke="white" stroke-width="5"/>
<path d="M24.5 8.31606V30.2989C24.5 31.4075 25.6326 32.1439 26.6438 31.6896C28.8734 30.688 31.5024 29.5336 33.271 29.1429C35.2143 28.7137 38.2116 28.3261 40.5949 28.1829C41.437 28.1324 42.1166 27.4461 42.1166 26.6024V4.49172C42.1166 3.64197 41.4281 2.95731 40.5798 3.00639C38.8499 3.10647 36.1874 3.3658 33.271 3.93291C29.8214 4.60365 26.7636 6.11345 25.1736 7.07813C24.7433 7.33922 24.5 7.81279 24.5 8.31606Z" fill="#FFDD2D" stroke="white" stroke-width="5"/>
<mask id="mask1_108_103" style="mask-type:alpha" maskUnits="userSpaceOnUse" x="19" y="27" width="11" height="7">
<path d="M24.5 33.0321C27.0917 33.0321 29.1926 31.6888 29.1926 30.0319C29.1926 28.3749 27.0917 27.0317 24.5 27.0317C21.9083 27.0317 19.8074 28.3749 19.8074 30.0319C19.8074 31.6888 21.9083 33.0321 24.5 33.0321Z" fill="white"/>
</mask>
<g mask="url(#mask1_108_103)">
<path d="M19.6919 31.1473L22.7306 32.4166L25.8846 32.1858L28.1925 31.4165L28.9233 31.1473" stroke="white" stroke-width="5"/>
</g>
</svg>
