<svg width="541" height="807" viewBox="0 0 541 807" fill="none" xmlns="http://www.w3.org/2000/svg">
<g clip-path="url(#clip0_109_101)">
<g clip-path="url(#clip1_109_101)">
<path fill-rule="evenodd" clip-rule="evenodd" d="M570.04 65.672L570.038 208.108C570.031 213.289 570.02 220.675 571.008 227.016C572.217 234.768 576.193 249.734 591.648 258.833C606.532 267.596 621.09 264.341 628.009 262.185C634.042 260.304 640.657 257.145 645.589 254.789L697.8 229.921L750.01 254.789C754.943 257.145 761.558 260.304 767.591 262.185C774.51 264.341 789.068 267.596 803.952 258.833C819.407 249.734 823.383 234.768 824.592 227.016C825.58 220.676 825.569 213.29 825.562 208.109L825.56 -1.79198C830.8 -2.03898 835.947 -2.24797 840.975 -2.42297C890.769 -4.16197 930.08 36.846 930.08 86.805V609.022C930.08 660.775 887.99 702.649 836.476 705.879C791.439 708.704 738.522 714.227 697.792 725.004C647.549 738.298 605.376 774.73 541.115 791.892C512.026 799.661 479.58 803.841 465.508 806.952V98.016C480.41 94.356 529.725 88.585 543.264 80.728C551.826 75.76 560.803 70.692 570.04 65.672ZM824.52 454.11C829.187 472.829 817.837 491.798 799.167 496.478L613.334 543.061C594.665 547.741 575.747 536.359 571.08 517.64C566.413 498.921 577.763 479.952 596.432 475.272L782.266 428.689C800.935 424.009 819.853 435.39 824.52 454.11Z" fill="#AEAEB2"/>
<path opacity="0.5" d="M465.5 99.8831C449.972 96.9261 416.376 92.3691 385.696 84.1141C323.25 67.3121 281.953 32.3531 233.208 19.4561C192.023 8.55906 138.376 3.03308 93.0161 0.238077C42.0931 -2.89992 0.916748 38.6571 0.916748 89.8131V609.021C0.916748 660.774 43.01 702.648 94.524 705.879C139.561 708.703 192.478 714.226 233.208 725.003C268.743 734.405 332.384 763.966 366.601 780.468C382.127 787.956 398.46 793.551 415.374 796.872C434.049 800.539 457.479 805.182 465.5 806.955V99.8831Z" fill="#AEAEB2"/>
<path d="M106.497 454.118C111.164 435.399 130.082 424.017 148.751 428.697L334.584 475.281C353.253 479.96 364.604 498.929 359.937 517.648C355.269 536.368 336.352 547.749 317.682 543.069L131.849 496.486C113.18 491.806 101.829 472.837 106.497 454.118Z" fill="#AEAEB2"/>
<path d="M148.751 242.364C130.082 237.684 111.164 249.065 106.497 267.785C101.829 286.504 113.18 305.473 131.849 310.153L317.682 356.736C336.352 361.416 355.269 350.035 359.937 331.315C364.604 312.596 353.253 293.627 334.584 288.947L148.751 242.364Z" fill="#AEAEB2"/>
</g>
</g>
<defs>
<clipPath id="clip0_109_101">
<rect width="541" height="807" fill="white"/>
</clipPath>
<clipPath id="clip1_109_101">
<rect width="633" height="1045" fill="white" transform="translate(-92 -143)"/>
</clipPath>
</defs>
</svg>
