<svg width="596" height="354" viewBox="0 0 596 354" fill="none" xmlns="http://www.w3.org/2000/svg">
<g clip-path="url(#clip0_48_170)">
<path d="M35.1181 271.574C17.5757 265.219 2.34779 250.016 0.416016 231.526C17.4459 242.529 37.8349 247.178 57.9755 244.652C65.7394 243.649 74.2698 241.729 80.9136 245.853C85.0477 248.419 87.6141 252.976 88.7915 257.683C89.9688 262.391 89.9157 267.305 89.8556 272.156L90.4018 273.238C72.0768 276.78 52.6605 277.929 35.1181 271.574Z" fill="#F0F0F0"/>
<path d="M0.796572 231.434C9.73618 243.984 22.4194 253.41 37.0446 258.373C40.1741 259.497 43.4618 260.123 46.787 260.228C50.0294 260.225 53.2119 259.358 56.004 257.716C58.6383 256.238 61.1609 254.422 64.1102 253.607C65.626 253.212 67.2087 253.14 68.7542 253.397C70.2997 253.654 71.7732 254.233 73.0781 255.097C76.3858 257.165 78.75 260.294 80.9553 263.433C83.4038 266.919 85.8916 270.578 89.7138 272.694C90.1769 272.95 89.7503 273.651 89.2879 273.395C82.6379 269.713 80.1757 261.904 74.5153 257.157C71.8741 254.942 68.5466 253.506 65.056 254.221C62.0037 254.847 59.4008 256.718 56.7466 258.238C54.0464 259.879 50.9837 260.837 47.8261 261.028C44.5064 261.092 41.1998 260.594 38.0481 259.553C30.915 257.324 24.1782 253.991 18.0846 249.678C11.1026 244.793 5.01108 238.755 0.073569 231.825C-0.231851 231.396 0.493148 231.008 0.796572 231.434Z" fill="white"/>
<path d="M32.2408 257.051C31.0715 259.382 29.1085 261.223 26.7022 262.245C24.2959 263.267 21.603 263.405 19.1045 262.632C18.5995 262.474 18.8224 261.685 19.328 261.843C21.6533 262.567 24.1617 262.439 26.4005 261.482C28.6393 260.526 30.461 258.804 31.5369 256.627C31.7712 256.154 32.4738 256.581 32.2408 257.051Z" fill="white"/>
<path d="M54.7675 258.641C53.1202 253.575 49.6158 249.312 44.953 246.704C44.4908 246.446 44.9173 245.745 45.3789 246.003C50.226 248.726 53.8638 253.169 55.5663 258.446C55.7283 258.949 54.9285 259.142 54.7675 258.641Z" fill="white"/>
<path d="M12.0328 244.226C12.6738 243.418 13.1034 242.464 13.2829 241.45C13.4623 240.436 13.3861 239.393 13.0609 238.416C12.8927 237.915 13.6927 237.723 13.8598 238.22C14.214 239.302 14.2968 240.453 14.101 241.574C13.9052 242.695 13.4368 243.751 12.7367 244.65C12.6778 244.74 12.5866 244.805 12.4817 244.83C12.3768 244.856 12.266 244.841 12.1718 244.788C12.0789 244.732 12.0121 244.641 11.9861 244.536C11.9601 244.43 11.9768 244.319 12.0328 244.226Z" fill="white"/>
<path d="M44.6907 186.609C44.8047 186.919 44.9187 187.228 45.0394 187.54C46.5935 191.696 48.4841 195.719 50.6924 199.569C50.8584 199.87 51.0312 200.172 51.2055 200.467C56.6252 209.688 63.717 217.827 72.1201 224.469C75.4664 227.11 79.0094 229.493 82.7187 231.598C87.8416 234.504 93.6283 237.25 97.3773 241.546C97.7735 241.99 98.1417 242.458 98.4798 242.947L91.6849 272.49C91.6356 272.549 91.593 272.611 91.5436 272.67L91.3265 273.862C91.1276 273.767 90.9233 273.664 90.7244 273.569C90.6088 273.514 90.4947 273.453 90.379 273.398C90.3025 273.359 90.2259 273.32 90.1545 273.29C90.129 273.277 90.1035 273.264 90.0847 273.253C90.0134 273.222 89.9503 273.187 89.8858 273.158C88.7425 272.585 87.6012 272.003 86.462 271.412C86.4552 271.41 86.4552 271.41 86.45 271.402C77.7262 266.982 69.5596 261.548 62.1216 255.212C61.9022 255.02 61.676 254.826 61.4597 254.621C58.1878 251.726 55.159 248.57 52.4035 245.184C50.9007 243.325 49.4933 241.392 48.1867 239.391C44.8208 234.216 42.2933 228.545 40.6969 222.587C37.5163 210.709 38.1855 197.951 44.2216 187.41C44.3762 187.14 44.5293 186.877 44.6907 186.609Z" fill="#F0F0F0"/>
<path d="M45.0519 186.761C44.6022 202.142 49.0303 217.273 57.7074 230.004C59.5264 232.778 61.7732 235.249 64.365 237.326C66.9553 239.268 70.0206 240.484 73.2424 240.848C76.2396 241.247 79.3518 241.309 82.1994 242.426C83.6485 243.02 84.9553 243.912 86.0339 245.044C87.1126 246.175 87.9389 247.522 88.4586 248.994C89.8492 252.628 89.8456 256.544 89.7085 260.372C89.5562 264.624 89.3304 269.037 91.1029 273.018C91.3177 273.5 90.5535 273.804 90.3391 273.322C87.2552 266.396 90.0103 258.684 88.3609 251.5C87.5913 248.148 85.8026 245.006 82.5829 243.484C79.7674 242.154 76.5582 242.087 73.52 241.709C70.3718 241.401 67.3473 240.329 64.7109 238.588C62.0213 236.649 59.6827 234.269 57.7951 231.548C53.4476 225.491 50.0834 218.791 47.8257 211.693C45.204 203.607 43.9906 195.134 44.238 186.64C44.2535 186.114 45.0673 186.239 45.0519 186.761Z" fill="white"/>
<path d="M54.6713 226.068C52.3287 227.228 49.6484 227.521 47.109 226.895C44.5697 226.268 42.3367 224.763 40.8088 222.648C40.5011 222.219 41.156 221.723 41.4641 222.152C42.8832 224.124 44.9634 225.526 47.3293 226.105C49.6951 226.683 52.1907 226.401 54.3656 225.308C54.8385 225.071 55.1415 225.833 54.6713 226.068Z" fill="white"/>
<path d="M71.6961 240.845C73.4441 235.811 73.2229 230.307 71.0767 225.429C70.8636 224.946 71.6277 224.642 71.8405 225.125C74.0645 230.205 74.2829 235.934 72.4524 241.167C72.2775 241.666 71.5222 241.341 71.6961 240.845Z" fill="white"/>
<path d="M46.2897 203.712C47.29 203.451 48.2096 202.947 48.966 202.245C49.7224 201.543 50.2918 200.665 50.6231 199.689C50.7915 199.189 51.5467 199.514 51.3794 200.012C51.0082 201.088 50.3782 202.057 49.5442 202.835C48.7103 203.612 47.6978 204.174 46.5953 204.472C46.4937 204.509 46.3819 204.506 46.2826 204.464C46.1833 204.421 46.1039 204.343 46.0606 204.244C46.0206 204.143 46.0223 204.031 46.0652 203.931C46.1081 203.831 46.1888 203.752 46.2897 203.712Z" fill="white"/>
<path d="M566.078 270.964C582.703 262.509 595.939 245.558 595.574 226.972C580.031 239.976 560.37 247.086 540.071 247.044C532.242 246.999 523.539 246.138 517.455 251.044C513.669 254.097 511.684 258.933 511.097 263.748C510.51 268.564 511.169 273.435 511.827 278.241L511.419 279.382C530.042 280.654 549.453 279.418 566.078 270.964Z" fill="#F0F0F0"/>
<path d="M595.185 226.927C587.862 240.476 576.439 251.383 562.537 258.099C559.57 259.598 556.384 260.621 553.097 261.132C549.879 261.526 546.614 261.055 543.64 259.768C540.843 258.623 538.116 257.129 535.088 256.682C533.535 256.475 531.956 256.598 530.454 257.042C528.951 257.486 527.561 258.242 526.372 259.259C523.345 261.716 521.385 265.11 519.584 268.496C517.584 272.254 515.567 276.19 512.035 278.758C511.607 279.069 512.117 279.712 512.544 279.402C518.689 274.934 520.169 266.883 525.2 261.479C527.548 258.957 530.673 257.125 534.225 257.408C537.332 257.655 540.146 259.193 542.968 260.377C545.85 261.675 549.008 262.25 552.165 262.053C555.467 261.711 558.687 260.811 561.687 259.393C568.49 256.307 574.765 252.175 580.28 247.149C586.606 241.447 591.906 234.709 595.951 227.227C596.201 226.763 595.434 226.467 595.185 226.927Z" fill="white"/>
<path d="M567.141 256.199C568.589 258.369 570.764 259.955 573.278 260.675C575.793 261.395 578.482 261.202 580.866 260.129C581.348 259.911 581.029 259.155 580.547 259.374C578.329 260.377 575.824 260.557 573.484 259.881C571.144 259.206 569.123 257.72 567.787 255.692C567.496 255.251 566.852 255.761 567.141 256.199Z" fill="white"/>
<path d="M544.981 260.535C545.99 255.304 548.942 250.645 553.248 247.486C553.674 247.174 553.165 246.531 552.738 246.843C548.264 250.139 545.202 254.993 544.164 260.438C544.065 260.957 544.883 261.051 544.981 260.535Z" fill="white"/>
<path d="M585.613 240.997C584.877 240.274 584.333 239.38 584.03 238.395C583.726 237.411 583.673 236.367 583.875 235.357C583.98 234.839 583.163 234.746 583.058 235.26C582.84 236.377 582.9 237.53 583.233 238.619C583.565 239.707 584.161 240.698 584.966 241.504C585.036 241.586 585.134 241.639 585.242 241.652C585.349 241.665 585.457 241.636 585.544 241.572C585.629 241.505 585.684 241.406 585.697 241.299C585.71 241.191 585.68 241.083 585.613 240.997Z" fill="white"/>
<path d="M546.091 187.815C546.016 188.136 545.941 188.457 545.86 188.781C544.83 193.096 543.45 197.32 541.734 201.412C541.606 201.73 541.472 202.051 541.336 202.365C537.095 212.18 531.062 221.125 523.542 228.746C520.547 231.776 517.325 234.574 513.904 237.117C509.179 240.629 503.775 244.062 500.584 248.785C500.246 249.273 499.938 249.783 499.663 250.31L510.053 278.797C510.109 278.85 510.159 278.906 510.215 278.959L510.578 280.115C510.764 279.996 510.954 279.869 511.139 279.75C511.247 279.682 511.353 279.607 511.461 279.538C511.532 279.491 511.603 279.443 511.67 279.404C511.694 279.388 511.718 279.372 511.735 279.358C511.802 279.319 511.86 279.276 511.921 279.239C512.985 278.531 514.046 277.814 515.103 277.088C515.11 277.086 515.11 277.086 515.114 277.077C523.226 271.623 530.66 265.229 537.259 258.031C537.453 257.814 537.654 257.594 537.843 257.364C540.733 254.091 543.349 250.588 545.666 246.89C546.928 244.861 548.086 242.77 549.136 240.625C551.838 235.076 553.646 229.139 554.495 223.031C556.185 210.854 553.947 198.275 546.655 188.552C546.468 188.303 546.284 188.061 546.091 187.815Z" fill="#F0F0F0"/>
<path d="M545.751 188.01C548.096 203.219 545.569 218.777 538.529 232.474C537.066 235.45 535.142 238.177 532.826 240.556C530.495 242.8 527.603 244.382 524.45 245.137C521.525 245.9 518.444 246.343 515.756 247.8C514.391 248.567 513.204 249.612 512.274 250.867C511.343 252.122 510.689 253.559 510.355 255.084C509.423 258.861 509.91 262.746 510.519 266.529C511.195 270.73 511.964 275.082 510.696 279.25C510.542 279.755 511.338 279.963 511.492 279.458C513.697 272.207 510.011 264.891 510.761 257.559C511.111 254.138 512.499 250.801 515.506 248.897C518.136 247.232 521.313 246.773 524.281 246.026C527.367 245.335 530.237 243.901 532.638 241.85C535.068 239.597 537.095 236.948 538.633 234.017C542.2 227.474 544.711 220.413 546.076 213.093C547.68 204.747 547.838 196.189 546.544 187.79C546.464 187.27 545.672 187.493 545.751 188.01Z" fill="white"/>
<path d="M541.056 228.197C543.524 229.061 546.221 229.023 548.663 228.091C551.106 227.158 553.136 225.391 554.392 223.105C554.644 222.642 553.933 222.23 553.68 222.694C552.515 224.824 550.624 226.47 548.347 227.334C546.071 228.198 543.559 228.223 541.266 227.404C540.767 227.227 540.561 228.021 541.056 228.197Z" fill="white"/>
<path d="M525.984 244.945C523.628 240.164 523.168 234.674 524.696 229.57C524.848 229.065 524.052 228.857 523.901 229.362C522.321 234.676 522.811 240.388 525.274 245.358C525.509 245.831 526.218 245.416 525.984 244.945Z" fill="white"/>
<path d="M546.615 204.983C545.59 204.847 544.615 204.46 543.778 203.855C542.94 203.251 542.267 202.449 541.818 201.522C541.589 201.046 540.879 201.462 541.107 201.935C541.608 202.957 542.353 203.842 543.276 204.511C544.2 205.181 545.274 205.615 546.405 205.776C546.51 205.8 546.621 205.783 546.714 205.729C546.808 205.675 546.877 205.587 546.908 205.484C546.935 205.379 546.919 205.267 546.865 205.174C546.81 205.08 546.72 205.012 546.615 204.983Z" fill="white"/>
<path d="M519.158 12.1682H402.029V19.672C402.028 20.0562 402.16 20.4291 402.404 20.7266C402.168 26.5918 402.029 34.0793 402.029 42.2158V242.83C402.029 261.635 402.787 276.934 403.716 276.934H517.472C518.401 276.934 519.158 261.635 519.158 242.83V42.2158C519.158 34.0793 519.02 26.5918 518.784 20.7266C519.028 20.4291 519.16 20.0562 519.158 19.672L519.158 12.1682Z" fill="white"/>
<path d="M517.472 277.745H403.716C402.829 277.745 402.244 277.745 401.711 266.974C401.391 260.51 401.215 251.935 401.215 242.83V42.216C401.215 34.3521 401.348 26.7089 401.591 20.6941C401.742 17.0828 401.916 14.1901 402.106 12.0951C402.481 7.99381 402.837 7.30103 403.716 7.30103H517.472C518.352 7.30103 518.707 7.99381 519.082 12.0951C519.273 14.198 519.446 17.0907 519.598 20.6925L519.598 20.6941C519.84 26.7026 519.973 34.3458 519.973 42.216V242.83C519.973 251.936 519.797 260.51 519.477 266.974C518.945 277.745 518.359 277.745 517.472 277.745ZM404.179 276.123H517.01C517.599 273.906 518.344 261.87 518.344 242.831V42.216C518.344 34.3672 518.211 26.7477 517.97 20.7606C517.82 17.1846 517.648 14.3184 517.46 12.2416C517.387 11.1261 517.234 10.0172 517.002 8.92347H404.186C403.955 10.0172 403.802 11.1261 403.729 12.2416C403.54 14.3105 403.369 17.1767 403.218 20.7606C402.977 26.7529 402.844 34.3731 402.844 42.216V242.83C402.844 261.869 403.589 273.906 404.179 276.123Z" fill="#E4E4E4"/>
<path d="M517.472 8.11206H403.716C403.269 8.11292 402.84 8.2901 402.524 8.60483C402.208 8.91955 402.03 9.34617 402.029 9.79129V19.6719C402.028 20.0562 402.16 20.429 402.404 20.7265C402.563 20.9211 402.763 21.078 402.989 21.1861C403.216 21.2941 403.464 21.3505 403.716 21.3512H517.472C517.724 21.3505 517.972 21.294 518.199 21.186C518.426 21.078 518.625 20.921 518.784 20.7265C519.028 20.429 519.16 20.0561 519.158 19.6719V9.79129C519.158 9.34621 518.98 8.91959 518.664 8.60486C518.348 8.29013 517.919 8.11293 517.472 8.11206Z" fill="#CACACA"/>
<path d="M411.82 16.6341C413.143 16.6341 414.215 15.5664 414.215 14.2494C414.215 12.9324 413.143 11.8647 411.82 11.8647C410.498 11.8647 409.426 12.9324 409.426 14.2494C409.426 15.5664 410.498 16.6341 411.82 16.6341Z" fill="white"/>
<path d="M420.909 16.6341C422.232 16.6341 423.304 15.5664 423.304 14.2494C423.304 12.9324 422.232 11.8647 420.909 11.8647C419.587 11.8647 418.515 12.9324 418.515 14.2494C418.515 15.5664 419.587 16.6341 420.909 16.6341Z" fill="white"/>
<path d="M429.999 16.6341C431.322 16.6341 432.394 15.5664 432.394 14.2494C432.394 12.9324 431.322 11.8647 429.999 11.8647C428.677 11.8647 427.604 12.9324 427.604 14.2494C427.604 15.5664 428.677 16.6341 429.999 16.6341Z" fill="white"/>
<path d="M508.568 11.0649H498.101C497.896 11.0663 497.7 11.1479 497.555 11.2922C497.411 11.4364 497.329 11.6316 497.327 11.8356C497.324 11.9517 497.352 12.0666 497.409 12.1682C497.471 12.2988 497.569 12.4093 497.691 12.4868C497.814 12.5644 497.956 12.6058 498.101 12.6063H508.568C508.715 12.607 508.859 12.5662 508.983 12.4886C509.107 12.411 509.206 12.2999 509.269 12.1682C509.319 12.0645 509.344 11.9506 509.343 11.8356C509.343 11.7344 509.323 11.6341 509.284 11.5406C509.245 11.4471 509.188 11.3621 509.116 11.2905C509.044 11.2189 508.959 11.1622 508.865 11.1235C508.771 11.0848 508.67 11.0649 508.568 11.0649Z" fill="white"/>
<path d="M508.569 13.9609H498.101C497.896 13.9609 497.699 14.0421 497.554 14.1867C497.409 14.3312 497.327 14.5272 497.327 14.7316C497.327 14.936 497.409 15.132 497.554 15.2765C497.699 15.4211 497.896 15.5023 498.101 15.5023H508.569C508.774 15.5023 508.971 15.4211 509.116 15.2765C509.261 15.132 509.342 14.936 509.342 14.7316C509.342 14.5272 509.261 14.3312 509.116 14.1867C508.971 14.0421 508.774 13.9609 508.569 13.9609Z" fill="white"/>
<path d="M508.569 16.8572H498.101C497.896 16.8572 497.699 16.9384 497.554 17.0829C497.409 17.2274 497.327 17.4234 497.327 17.6278C497.327 17.8322 497.409 18.0282 497.554 18.1728C497.699 18.3173 497.896 18.3985 498.101 18.3985H508.569C508.774 18.3985 508.971 18.3173 509.116 18.1728C509.261 18.0282 509.342 17.8322 509.342 17.6278C509.342 17.4234 509.261 17.2274 509.116 17.0829C508.971 16.9384 508.774 16.8572 508.569 16.8572Z" fill="white"/>
<path d="M471.912 43.0107H450.375C449.295 43.0112 448.259 43.4387 447.495 44.1992C446.731 44.9598 446.302 45.9912 446.302 47.0668V65.6438C446.304 66.719 446.733 67.7496 447.497 68.5099C448.26 69.2702 449.295 69.6981 450.375 69.6999H471.912C472.991 69.6967 474.026 69.2684 474.789 68.5084C475.552 67.7484 475.982 66.7186 475.985 65.6438V47.0668C475.983 45.9916 475.554 44.961 474.79 44.2007C474.027 43.4404 472.992 43.0125 471.912 43.0107Z" fill="#6C63FF"/>
<path d="M498.672 81.8357H423.608C423.117 81.8357 422.647 82.0297 422.3 82.375C421.954 82.7204 421.759 83.1888 421.759 83.6772C421.759 84.1655 421.954 84.6339 422.3 84.9793C422.647 85.3246 423.117 85.5186 423.608 85.5186H498.672C499.162 85.5186 499.632 85.3246 499.979 84.9793C500.326 84.6339 500.521 84.1655 500.521 83.6772C500.521 83.1888 500.326 82.7204 499.979 82.375C499.632 82.0297 499.162 81.8357 498.672 81.8357Z" fill="#E4E4E4"/>
<path d="M452.118 90.4673H423.608C423.117 90.4673 422.647 90.6613 422.3 91.0067C421.954 91.352 421.759 91.8204 421.759 92.3088C421.759 92.7972 421.954 93.2655 422.3 93.6109C422.647 93.9562 423.117 94.1502 423.608 94.1502H452.118C452.609 94.1502 453.079 93.9562 453.426 93.6109C453.773 93.2655 453.967 92.7972 453.967 92.3088C453.967 91.8204 453.773 91.352 453.426 91.0067C453.079 90.6613 452.609 90.4673 452.118 90.4673Z" fill="#E4E4E4"/>
<path d="M471.912 123.322H450.375C449.295 123.322 448.259 123.749 447.495 124.51C446.731 125.271 446.302 126.302 446.302 127.378V145.955C446.304 147.03 446.733 148.06 447.497 148.821C448.26 149.581 449.295 150.009 450.375 150.011H471.912C472.991 150.008 474.026 149.579 474.789 148.819C475.552 148.059 475.982 147.029 475.985 145.955V127.378C475.983 126.302 475.554 125.272 474.79 124.512C474.027 123.751 472.992 123.323 471.912 123.322Z" fill="#6C63FF"/>
<path d="M498.672 162.146H423.608C423.117 162.146 422.647 162.34 422.3 162.686C421.954 163.031 421.759 163.5 421.759 163.988C421.759 164.476 421.954 164.945 422.3 165.29C422.647 165.635 423.117 165.829 423.608 165.829H498.672C499.162 165.829 499.632 165.635 499.979 165.29C500.326 164.945 500.521 164.476 500.521 163.988C500.521 163.5 500.326 163.031 499.979 162.686C499.632 162.34 499.162 162.146 498.672 162.146Z" fill="#E4E4E4"/>
<path d="M452.118 170.778H423.608C423.117 170.778 422.647 170.972 422.3 171.317C421.954 171.663 421.759 172.131 421.759 172.619C421.759 173.108 421.954 173.576 422.3 173.921C422.647 174.267 423.117 174.461 423.608 174.461H452.118C452.609 174.461 453.079 174.267 453.426 173.921C453.773 173.576 453.967 173.108 453.967 172.619C453.967 172.131 453.773 171.663 453.426 171.317C453.079 170.972 452.609 170.778 452.118 170.778Z" fill="#E4E4E4"/>
<path d="M471.912 203.632H450.375C449.295 203.633 448.259 204.06 447.495 204.821C446.731 205.581 446.302 206.613 446.302 207.688V226.265C446.304 227.341 446.733 228.371 447.497 229.131C448.26 229.892 449.295 230.32 450.375 230.321H471.912C472.991 230.318 474.026 229.89 474.789 229.13C475.552 228.37 475.982 227.34 475.985 226.265V207.688C475.983 206.613 475.554 205.583 474.79 204.822C474.027 204.062 472.992 203.634 471.912 203.632Z" fill="#6C63FF"/>
<path d="M498.672 242.457H423.608C423.117 242.457 422.647 242.651 422.3 242.997C421.954 243.342 421.759 243.81 421.759 244.299C421.759 244.787 421.954 245.256 422.3 245.601C422.647 245.946 423.117 246.14 423.608 246.14H498.672C499.162 246.14 499.632 245.946 499.979 245.601C500.326 245.256 500.521 244.787 500.521 244.299C500.521 243.81 500.326 243.342 499.979 242.997C499.632 242.651 499.162 242.457 498.672 242.457Z" fill="#E4E4E4"/>
<path d="M452.118 251.089H423.608C423.117 251.089 422.647 251.283 422.3 251.628C421.954 251.973 421.759 252.442 421.759 252.93C421.759 253.419 421.954 253.887 422.3 254.232C422.647 254.578 423.117 254.772 423.608 254.772H452.118C452.609 254.772 453.079 254.578 453.426 254.232C453.773 253.887 453.967 253.419 453.967 252.93C453.967 252.442 453.773 251.973 453.426 251.628C453.079 251.283 452.609 251.089 452.118 251.089Z" fill="#E4E4E4"/>
<path d="M370.089 2.49027C370.089 2.04519 369.911 1.61858 369.595 1.30385C369.279 0.989119 368.85 0.81191 368.403 0.811035H67.2924C66.8454 0.811895 66.417 0.989078 66.101 1.3038C65.7849 1.61852 65.6069 2.04515 65.606 2.49027V12.3709C65.6045 12.7823 65.7588 13.1791 66.0379 13.4823C65.769 20.1911 65.606 29.0334 65.606 38.7193V261.732C65.606 282.645 66.3637 299.648 67.2924 299.648H368.403C369.332 299.648 370.089 282.645 370.089 261.732V38.7193C370.089 29.0334 369.927 20.1911 369.658 13.4823C369.937 13.179 370.091 12.7822 370.089 12.3709V2.49027Z" fill="white"/>
<path d="M368.404 300.46H67.2925C66.3721 300.46 65.8164 300.46 65.2872 288.569C64.9675 281.385 64.7915 271.855 64.7915 261.732V38.7195C64.7915 29.3845 64.9451 20.4104 65.2242 13.4501C65.7596 1.0831e-05 66.3695 0 67.2925 0H368.404C369.326 0 369.936 0.00238745 370.472 13.4501C370.751 20.4041 370.904 29.3782 370.904 38.7195V261.732C370.904 271.855 370.728 281.386 370.409 288.569C369.88 300.46 369.324 300.46 368.404 300.46ZM67.768 298.837H367.928C368.594 296.294 369.275 282.012 369.275 261.732V38.7195C369.275 29.3992 369.122 20.4477 368.844 13.515C368.505 4.99447 368.109 2.40118 367.919 1.62244H67.7769C67.5875 2.40121 67.1913 4.99408 66.8519 13.5147C66.5738 20.4544 66.4207 29.4055 66.4207 38.7195V261.732C66.4207 282.012 67.1014 296.293 67.768 298.837Z" fill="#E4E4E4"/>
<path d="M368.403 0.811035H67.2924C66.8454 0.811895 66.417 0.989078 66.101 1.3038C65.7849 1.61852 65.6069 2.04515 65.606 2.49027V12.3709C65.6045 12.7823 65.7588 13.1791 66.0379 13.4823C66.1944 13.6603 66.3873 13.8031 66.6036 13.901C66.82 13.9989 67.0548 14.0498 67.2924 14.0501H368.403C368.641 14.0498 368.876 13.9989 369.092 13.901C369.308 13.8031 369.501 13.6603 369.658 13.4823C369.937 13.179 370.091 12.7822 370.089 12.3709V2.49027C370.089 2.0452 369.911 1.6186 369.595 1.30387C369.279 0.989146 368.85 0.811927 368.403 0.811035Z" fill="#CACACA"/>
<path d="M75.397 9.33308C76.7195 9.33308 77.7916 8.26542 77.7916 6.9484C77.7916 5.63138 76.7195 4.56372 75.397 4.56372C74.0745 4.56372 73.0024 5.63138 73.0024 6.9484C73.0024 8.26542 74.0745 9.33308 75.397 9.33308Z" fill="white"/>
<path d="M84.4864 9.33308C85.8088 9.33308 86.8809 8.26542 86.8809 6.9484C86.8809 5.63138 85.8088 4.56372 84.4864 4.56372C83.1639 4.56372 82.0918 5.63138 82.0918 6.9484C82.0918 8.26542 83.1639 9.33308 84.4864 9.33308Z" fill="white"/>
<path d="M93.5757 9.33308C94.8982 9.33308 95.9703 8.26542 95.9703 6.9484C95.9703 5.63138 94.8982 4.56372 93.5757 4.56372C92.2532 4.56372 91.1812 5.63138 91.1812 6.9484C91.1812 8.26542 92.2532 9.33308 93.5757 9.33308Z" fill="white"/>
<path d="M359.5 3.76392H349.032C348.827 3.76392 348.63 3.84511 348.485 3.98963C348.34 4.13416 348.258 4.33018 348.258 4.53457C348.258 4.73896 348.34 4.93498 348.485 5.07951C348.63 5.22404 348.827 5.30524 349.032 5.30524H359.5C359.705 5.30524 359.902 5.22404 360.047 5.07951C360.192 4.93498 360.274 4.73896 360.274 4.53457C360.274 4.33018 360.192 4.13416 360.047 3.98963C359.902 3.84511 359.705 3.76392 359.5 3.76392Z" fill="white"/>
<path d="M359.5 6.66016H349.032C348.827 6.66016 348.63 6.74135 348.485 6.88587C348.34 7.0304 348.258 7.22642 348.258 7.43081C348.258 7.6352 348.34 7.83123 348.485 7.97575C348.63 8.12028 348.827 8.20147 349.032 8.20147H359.5C359.705 8.20147 359.902 8.12028 360.047 7.97575C360.192 7.83123 360.274 7.6352 360.274 7.43081C360.274 7.22642 360.192 7.0304 360.047 6.88587C359.902 6.74135 359.705 6.66016 359.5 6.66016Z" fill="white"/>
<path d="M359.5 9.55615H349.032C348.827 9.55615 348.63 9.63736 348.485 9.78188C348.34 9.92641 348.258 10.1224 348.258 10.3268C348.258 10.5312 348.34 10.7272 348.485 10.8717C348.63 11.0163 348.827 11.0975 349.032 11.0975H359.5C359.705 11.0975 359.902 11.0163 360.047 10.8717C360.192 10.7272 360.274 10.5312 360.274 10.3268C360.274 10.1224 360.192 9.92641 360.047 9.78188C359.902 9.63736 359.705 9.55615 359.5 9.55615Z" fill="white"/>
<path d="M164.619 50.3118H129.38C127.613 50.3139 125.92 51.0138 124.671 52.2577C123.422 53.5017 122.719 55.1883 122.717 56.9476V87.344C122.719 89.1032 123.422 90.7898 124.671 92.0338C125.92 93.2778 127.613 93.9776 129.38 93.9797H164.619C166.385 93.9776 168.079 93.2778 169.328 92.0338C170.577 90.7898 171.28 89.1032 171.282 87.344V56.9476C171.28 55.1883 170.577 53.5017 169.328 52.2577C168.079 51.0138 166.385 50.3139 164.619 50.3118Z" fill="#6C63FF"/>
<path d="M309.965 62.0664H187.142C186.339 62.0664 185.57 62.3839 185.002 62.9491C184.435 63.5143 184.116 64.2808 184.116 65.0801C184.116 65.8794 184.435 66.6459 185.002 67.2111C185.57 67.7762 186.339 68.0938 187.142 68.0938H309.965C310.767 68.0938 311.537 67.7762 312.105 67.2111C312.672 66.6459 312.991 65.8794 312.991 65.0801C312.991 64.2808 312.672 63.5143 312.105 62.9491C311.537 62.3839 310.767 62.0664 309.965 62.0664Z" fill="#E4E4E4"/>
<path d="M233.793 76.1897H187.142C186.339 76.1897 185.57 76.5072 185.002 77.0724C184.435 77.6376 184.116 78.4041 184.116 79.2034C184.116 80.0027 184.435 80.7692 185.002 81.3344C185.57 81.8995 186.339 82.2171 187.142 82.2171H233.793C234.596 82.2171 235.365 81.8995 235.933 81.3344C236.5 80.7692 236.819 80.0027 236.819 79.2034C236.819 78.4041 236.5 77.6376 235.933 77.0724C235.365 76.5072 234.596 76.1897 233.793 76.1897Z" fill="#E4E4E4"/>
<path d="M164.619 131.434H129.38C127.613 131.436 125.92 132.136 124.671 133.38C123.422 134.624 122.719 136.31 122.717 138.07V168.466C122.719 170.225 123.422 171.912 124.671 173.156C125.92 174.4 127.613 175.1 129.38 175.102H164.619C166.385 175.1 168.079 174.4 169.328 173.156C170.577 171.912 171.28 170.225 171.282 168.466V138.07C171.28 136.31 170.577 134.624 169.328 133.38C168.079 132.136 166.385 131.436 164.619 131.434Z" fill="#6C63FF"/>
<path d="M309.965 143.188H187.142C186.339 143.188 185.57 143.506 185.002 144.071C184.435 144.636 184.116 145.403 184.116 146.202C184.116 147.001 184.435 147.768 185.002 148.333C185.57 148.898 186.339 149.216 187.142 149.216H309.965C310.767 149.216 311.537 148.898 312.105 148.333C312.672 147.768 312.991 147.001 312.991 146.202C312.991 145.403 312.672 144.636 312.105 144.071C311.537 143.506 310.767 143.188 309.965 143.188Z" fill="#E4E4E4"/>
<path d="M233.793 157.312H187.142C186.339 157.312 185.57 157.629 185.002 158.194C184.435 158.759 184.116 159.526 184.116 160.325C184.116 161.124 184.435 161.891 185.002 162.456C185.57 163.021 186.339 163.339 187.142 163.339H233.793C234.596 163.339 235.365 163.021 235.933 162.456C236.5 161.891 236.819 161.124 236.819 160.325C236.819 159.526 236.5 158.759 235.933 158.194C235.365 157.629 234.596 157.312 233.793 157.312Z" fill="#E4E4E4"/>
<path d="M164.619 212.556H129.38C127.613 212.558 125.92 213.258 124.671 214.502C123.422 215.746 122.719 217.432 122.717 219.192V249.588C122.719 251.347 123.422 253.034 124.671 254.278C125.92 255.522 127.613 256.222 129.38 256.224H164.619C166.385 256.222 168.079 255.522 169.328 254.278C170.577 253.034 171.28 251.347 171.282 249.588V219.192C171.28 217.432 170.577 215.746 169.328 214.502C168.079 213.258 166.385 212.558 164.619 212.556Z" fill="#6C63FF"/>
<path d="M309.965 224.31H187.142C186.339 224.31 185.57 224.628 185.002 225.193C184.435 225.758 184.116 226.525 184.116 227.324C184.116 228.123 184.435 228.89 185.002 229.455C185.57 230.02 186.339 230.338 187.142 230.338H309.965C310.767 230.338 311.537 230.02 312.105 229.455C312.672 228.89 312.991 228.123 312.991 227.324C312.991 226.525 312.672 225.758 312.105 225.193C311.537 224.628 310.767 224.31 309.965 224.31Z" fill="#E4E4E4"/>
<path d="M233.793 238.434H187.142C186.339 238.434 185.57 238.751 185.002 239.316C184.435 239.881 184.116 240.648 184.116 241.447C184.116 242.247 184.435 243.013 185.002 243.578C185.57 244.143 186.339 244.461 187.142 244.461H233.793C234.596 244.461 235.365 244.143 235.933 243.578C236.5 243.013 236.819 242.247 236.819 241.447C236.819 240.648 236.5 239.881 235.933 239.316C235.365 238.751 234.596 238.434 233.793 238.434Z" fill="#E4E4E4"/>
<path d="M422.168 353.189H220.438C219.508 353.189 218.751 338.952 218.751 321.451V134.762C218.751 117.261 219.508 103.024 220.438 103.024H422.168C423.098 103.024 423.855 117.261 423.855 134.762V321.451C423.855 338.952 423.098 353.189 422.168 353.189Z" fill="white"/>
<path d="M422.168 354H220.437C219.584 354 218.967 354 218.432 343.926C218.112 337.911 217.936 329.929 217.936 321.451V134.762C217.936 126.284 218.112 118.302 218.432 112.287C218.967 102.213 219.584 102.213 220.437 102.213H422.168C423.022 102.213 423.638 102.213 424.174 112.287C424.493 118.302 424.669 126.284 424.669 134.762V321.451C424.669 329.929 424.493 337.911 424.174 343.926C423.638 354 423.022 354 422.168 354ZM220.888 352.378H421.717C422.302 350.276 423.04 339.078 423.04 321.451V134.762C423.04 117.134 422.302 105.937 421.717 103.835H220.888C220.303 105.937 219.565 117.134 219.565 134.762V321.451C219.565 339.078 220.303 350.276 220.888 352.378Z" fill="#E4E4E4"/>
<path d="M422.168 116.264H220.438C219.99 116.263 219.562 116.086 219.246 115.771C218.929 115.456 218.751 115.029 218.751 114.584V104.704C218.751 104.259 218.929 103.832 219.246 103.517C219.562 103.202 219.99 103.025 220.438 103.024H422.168C422.616 103.025 423.044 103.202 423.36 103.517C423.677 103.832 423.855 104.259 423.855 104.704V114.584C423.855 115.029 423.677 115.456 423.36 115.771C423.044 116.086 422.616 116.263 422.168 116.264Z" fill="#CACACA"/>
<path d="M228.539 111.547C229.862 111.547 230.934 110.479 230.934 109.162C230.934 107.845 229.862 106.777 228.539 106.777C227.217 106.777 226.145 107.845 226.145 109.162C226.145 110.479 227.217 111.547 228.539 111.547Z" fill="white"/>
<path d="M237.628 111.547C238.95 111.547 240.023 110.479 240.023 109.162C240.023 107.845 238.95 106.777 237.628 106.777C236.305 106.777 235.233 107.845 235.233 109.162C235.233 110.479 236.305 111.547 237.628 111.547Z" fill="white"/>
<path d="M246.717 111.547C248.04 111.547 249.112 110.479 249.112 109.162C249.112 107.845 248.04 106.777 246.717 106.777C245.395 106.777 244.323 107.845 244.323 109.162C244.323 110.479 245.395 111.547 246.717 111.547Z" fill="white"/>
<path d="M413.263 107.521H402.797C402.591 107.521 402.394 107.439 402.249 107.295C402.103 107.15 402.021 106.953 402.021 106.749C402.021 106.544 402.103 106.347 402.249 106.203C402.394 106.058 402.591 105.977 402.797 105.977H413.263C413.468 105.977 413.665 106.059 413.81 106.204C413.955 106.348 414.036 106.544 414.036 106.749C414.036 106.953 413.955 107.149 413.81 107.294C413.665 107.438 413.468 107.52 413.263 107.521Z" fill="white"/>
<path d="M413.263 110.416H402.797C402.591 110.416 402.394 110.335 402.249 110.19C402.103 110.045 402.021 109.849 402.021 109.644C402.021 109.439 402.103 109.243 402.249 109.098C402.394 108.953 402.591 108.872 402.797 108.872H413.263C413.469 108.872 413.666 108.953 413.811 109.098C413.957 109.243 414.038 109.439 414.038 109.644C414.038 109.849 413.957 110.045 413.811 110.19C413.666 110.335 413.469 110.416 413.263 110.416Z" fill="white"/>
<path d="M413.263 113.311H402.797C402.591 113.311 402.394 113.23 402.249 113.085C402.103 112.94 402.021 112.744 402.021 112.539C402.021 112.334 402.103 112.138 402.249 111.993C402.394 111.848 402.591 111.767 402.797 111.767H413.263C413.468 111.768 413.665 111.849 413.81 111.994C413.955 112.139 414.036 112.335 414.036 112.539C414.036 112.744 413.955 112.94 413.81 113.084C413.665 113.229 413.468 113.311 413.263 113.311Z" fill="white"/>
<path d="M282.427 177.589H256.692C255.402 177.588 254.165 177.077 253.252 176.168C252.34 175.26 251.827 174.028 251.825 172.743V150.545C251.827 149.26 252.34 148.028 253.252 147.12C254.165 146.211 255.402 145.7 256.692 145.698H282.427C283.718 145.7 284.955 146.211 285.867 147.12C286.779 148.028 287.293 149.26 287.294 150.545V172.743C287.293 174.028 286.779 175.26 285.867 176.168C284.955 177.077 283.718 177.588 282.427 177.589Z" fill="#6C63FF"/>
<path d="M388.571 158.687H298.877C298.291 158.687 297.729 158.456 297.315 158.043C296.9 157.63 296.667 157.071 296.667 156.487C296.667 155.903 296.9 155.344 297.315 154.931C297.729 154.518 298.291 154.287 298.877 154.287H388.571C389.157 154.287 389.719 154.518 390.134 154.931C390.548 155.344 390.781 155.903 390.781 156.487C390.781 157.071 390.548 157.63 390.134 158.043C389.719 158.456 389.157 158.687 388.571 158.687Z" fill="#E4E4E4"/>
<path d="M332.944 169.001H298.877C298.291 169.001 297.729 168.769 297.315 168.357C296.9 167.944 296.667 167.384 296.667 166.801C296.667 166.217 296.9 165.657 297.315 165.245C297.729 164.832 298.291 164.6 298.877 164.6H332.944C333.235 164.6 333.523 164.656 333.791 164.767C334.06 164.877 334.304 165.039 334.509 165.243C334.715 165.448 334.878 165.69 334.989 165.958C335.101 166.225 335.158 166.511 335.158 166.801C335.158 167.09 335.101 167.377 334.989 167.644C334.878 167.911 334.715 168.154 334.509 168.358C334.304 168.563 334.06 168.725 333.791 168.835C333.523 168.945 333.235 169.002 332.944 169.001Z" fill="#E4E4E4"/>
<path d="M282.427 243.298H256.692C255.402 243.297 254.165 242.786 253.252 241.877C252.34 240.968 251.827 239.737 251.825 238.452V216.254C251.827 214.969 252.34 213.737 253.252 212.829C254.165 211.92 255.402 211.409 256.692 211.407H282.427C283.718 211.409 284.955 211.92 285.867 212.829C286.779 213.737 287.293 214.969 287.294 216.254V238.452C287.293 239.737 286.779 240.968 285.867 241.877C284.955 242.786 283.718 243.297 282.427 243.298Z" fill="#6C63FF"/>
<path d="M388.571 224.396H298.877C298.291 224.396 297.729 224.164 297.315 223.752C296.9 223.339 296.667 222.779 296.667 222.196C296.667 221.612 296.9 221.053 297.315 220.64C297.729 220.227 298.291 219.995 298.877 219.995H388.571C389.157 219.995 389.719 220.227 390.134 220.64C390.548 221.053 390.781 221.612 390.781 222.196C390.781 222.779 390.548 223.339 390.134 223.752C389.719 224.164 389.157 224.396 388.571 224.396Z" fill="#E4E4E4"/>
<path d="M332.944 234.71H298.877C298.291 234.71 297.729 234.478 297.315 234.066C296.9 233.653 296.667 233.093 296.667 232.51C296.667 231.926 296.9 231.366 297.315 230.954C297.729 230.541 298.291 230.309 298.877 230.309H332.944C333.235 230.309 333.523 230.365 333.791 230.476C334.06 230.586 334.304 230.748 334.509 230.952C334.715 231.157 334.878 231.399 334.989 231.667C335.101 231.934 335.158 232.22 335.158 232.51C335.158 232.799 335.101 233.086 334.989 233.353C334.878 233.62 334.715 233.863 334.509 234.067C334.304 234.271 334.06 234.433 333.791 234.544C333.523 234.654 333.235 234.711 332.944 234.71Z" fill="#E4E4E4"/>
<path d="M282.427 309.007H256.692C255.402 309.006 254.165 308.495 253.252 307.586C252.34 306.677 251.827 305.445 251.825 304.16V281.963C251.827 280.678 252.34 279.446 253.252 278.537C254.165 277.629 255.402 277.118 256.692 277.116H282.427C283.718 277.118 284.955 277.629 285.867 278.537C286.779 279.446 287.293 280.678 287.294 281.963V304.16C287.293 305.445 286.779 306.677 285.867 307.586C284.955 308.495 283.718 309.006 282.427 309.007Z" fill="#6C63FF"/>
<path d="M388.571 290.105H298.877C298.291 290.105 297.729 289.873 297.315 289.461C296.9 289.048 296.667 288.488 296.667 287.905C296.667 287.321 296.9 286.761 297.315 286.349C297.729 285.936 298.291 285.704 298.877 285.704H388.571C389.157 285.704 389.719 285.936 390.134 286.349C390.548 286.761 390.781 287.321 390.781 287.905C390.781 288.488 390.548 289.048 390.134 289.461C389.719 289.873 389.157 290.105 388.571 290.105Z" fill="#E4E4E4"/>
<path d="M332.944 300.419H298.877C298.291 300.419 297.729 300.187 297.315 299.774C296.9 299.362 296.667 298.802 296.667 298.218C296.667 297.635 296.9 297.075 297.315 296.663C297.729 296.25 298.291 296.018 298.877 296.018H332.944C333.235 296.018 333.523 296.074 333.791 296.184C334.06 296.295 334.304 296.457 334.509 296.661C334.715 296.865 334.878 297.108 334.989 297.375C335.101 297.643 335.158 297.929 335.158 298.218C335.158 298.508 335.101 298.794 334.989 299.061C334.878 299.329 334.715 299.571 334.509 299.776C334.304 299.98 334.06 300.142 333.791 300.253C333.523 300.363 333.235 300.419 332.944 300.419Z" fill="#E4E4E4"/>
</g>
<defs>
<clipPath id="clip0_48_170">
<rect width="596" height="354" fill="white"/>
</clipPath>
</defs>
</svg>