<svg width="24" height="25" viewBox="0 0 24 25" fill="none" xmlns="http://www.w3.org/2000/svg">
<path fill-rule="evenodd" clip-rule="evenodd" d="M8.88558 3.87385C11.8283 1.05703 16.5864 1.05703 19.5291 3.87385C19.8283 4.16027 19.8387 4.63503 19.5523 4.93425C19.2658 5.23348 18.7911 5.24385 18.4919 4.95743C16.1292 2.69583 12.2855 2.69583 9.9228 4.95743L3.51861 11.0876C3.21939 11.3741 2.74463 11.3637 2.45821 11.0645C2.17179 10.7652 2.18216 10.2905 2.48139 10.004L8.88558 3.87385ZM15.2666 6.96212C15.553 6.6629 16.0278 6.65252 16.327 6.93895C17.5829 8.14112 17.5829 10.1044 16.327 11.3066L8.43612 18.8598C8.13689 19.1463 7.66213 19.1359 7.37571 18.8367C7.08929 18.5374 7.09967 18.0627 7.39889 17.7763L15.2898 10.223C15.9286 9.61144 15.9286 8.63408 15.2898 8.02253C14.9905 7.73611 14.9802 7.26135 15.2666 6.96212Z" fill="#212121"/>
<path opacity="0.5" d="M18.4914 4.95721C20.8356 7.2011 20.8356 10.825 18.4914 13.0689L10.5433 20.6769C9.0333 22.1224 6.57204 22.1224 5.06201 20.6769C3.57048 19.2492 3.57048 16.9486 5.06201 15.5209L12.8957 8.02231C13.5531 7.39306 14.6319 7.39306 15.2893 8.02231C14.9904 7.73586 14.9803 7.26114 15.2666 6.96201C15.5479 6.66815 16.0108 6.65287 16.3107 6.92373C15.0722 5.75427 13.0906 5.75927 11.8585 6.93872L4.02478 14.4373C1.91622 16.4556 1.91622 19.7422 4.02478 21.7605C6.11485 23.7612 9.4905 23.7612 11.5806 21.7605L19.5286 14.1525C22.4848 11.3228 22.4898 6.72391 19.5438 3.88818C19.8286 4.1759 19.8339 4.63989 19.5523 4.93414C19.2658 5.23336 18.7906 5.24363 18.4914 4.95721Z" fill="#212121"/>
</svg>