<svg width="24" height="24" viewBox="0 0 24 24" fill="none" xmlns="http://www.w3.org/2000/svg">
<path d="M9.25 14C10.9069 14 12.25 15.3431 12.25 17C12.25 18.6569 10.9069 20 9.25 20C7.59315 20 6.25 18.6569 6.25 17C6.25 15.3431 7.59315 14 9.25 14Z" fill="white"/>
<path d="M14.25 4C12.5931 4 11.25 5.34315 11.25 7C11.25 8.65685 12.5931 10 14.25 10C15.9069 10 17.25 8.65685 17.25 7C17.25 5.34315 15.9069 4 14.25 4Z" fill="white"/>
<g opacity="0.5">
<path d="M17.1658 7.70898C17.2208 7.48181 17.25 7.24454 17.25 7.00046C17.25 6.72651 17.2133 6.46113 17.1445 6.20898H21.75C22.1642 6.20898 22.5 6.54477 22.5 6.95898C22.5 7.3732 22.1642 7.70898 21.75 7.70898L17.1658 7.70898Z" fill="white"/>
<path d="M11.3555 6.20898C11.2867 6.46113 11.25 6.72651 11.25 7.00046C11.25 7.24454 11.2791 7.48181 11.3342 7.70898L1.75 7.70898C1.33579 7.70898 1 7.3732 1 6.95898C1 6.54477 1.33579 6.20898 1.75 6.20898H11.3555Z" fill="white"/>
<path d="M6.35551 16.209H1.75C1.33579 16.209 1 16.5448 1 16.959C1 17.3732 1.33579 17.709 1.75 17.709H6.33416C6.27915 17.4818 6.25 17.2445 6.25 17.0005C6.25 16.7265 6.28672 16.4611 6.35551 16.209Z" fill="white"/>
<path d="M12.1658 17.709H21.75C22.1642 17.709 22.5 17.3732 22.5 16.959C22.5 16.5448 22.1642 16.209 21.75 16.209H12.1445C12.2133 16.4611 12.25 16.7265 12.25 17.0005C12.25 17.2445 12.2209 17.4818 12.1658 17.709Z" fill="white"/>
</g>
</svg>
