<svg width="40" height="40" viewBox="0 0 40 40" fill="none" xmlns="http://www.w3.org/2000/svg">
<g id="Bold Duotone / Faces, Emotions, Stickers / Smile Circle">
<path id="Vector" opacity="0.5" d="M20.0002 36.6666C29.2049 36.6666 36.6668 29.2047 36.6668 20C36.6668 10.7952 29.2049 3.33331 20.0002 3.33331C10.7954 3.33331 3.3335 10.7952 3.3335 20C3.3335 29.2047 10.7954 36.6666 20.0002 36.6666Z" fill="#1C274C"/>
<g id="Vector_2">
<path d="M13.996 25.9223C14.407 25.3677 15.1899 25.2514 15.7445 25.6625C16.9584 26.5622 18.4237 27.0833 20.0002 27.0833C21.5767 27.0833 23.0419 26.5622 24.2558 25.6625C24.8104 25.2514 25.5933 25.3677 26.0044 25.9223C26.4155 26.4769 26.2991 27.2598 25.7445 27.6709C24.1238 28.8722 22.1418 29.5833 20.0002 29.5833C17.8585 29.5833 15.8765 28.8722 14.2558 27.6709C13.7012 27.2598 13.5849 26.4769 13.996 25.9223Z" fill="#1C274C"/>
<path d="M25.0002 20C25.9206 20 26.6668 18.8807 26.6668 17.5C26.6668 16.1193 25.9206 15 25.0002 15C24.0797 15 23.3335 16.1193 23.3335 17.5C23.3335 18.8807 24.0797 20 25.0002 20Z" fill="#1C274C"/>
<path d="M15.0002 20C15.9206 20 16.6668 18.8807 16.6668 17.5C16.6668 16.1193 15.9206 15 15.0002 15C14.0797 15 13.3335 16.1193 13.3335 17.5C13.3335 18.8807 14.0797 20 15.0002 20Z" fill="#1C274C"/>
</g>
</g>
</svg>
