<svg width="25" height="24" viewBox="0 0 25 24" fill="none" xmlns="http://www.w3.org/2000/svg">
<circle cx="12.5" cy="6" r="4" fill="white"/>
<path opacity="0.5" d="M18.5947 15.0312C18.1699 15 17.6487 15 17 15C15.3501 15 14.5251 15 14.0126 15.5126C13.5 16.0251 13.5 16.8501 13.5 18.5C13.5 19.6663 13.5 20.4204 13.6811 20.9433C13.2971 20.9806 12.9025 21 12.5 21C8.63401 21 5.5 19.2091 5.5 17C5.5 14.7909 8.63401 13 12.5 13C15.1134 13 17.3924 13.8184 18.5947 15.0312Z" fill="white"/>
<path fill-rule="evenodd" clip-rule="evenodd" d="M17 22C15.3501 22 14.5251 22 14.0126 21.4874C13.5 20.9749 13.5 20.1499 13.5 18.5C13.5 16.8501 13.5 16.0251 14.0126 15.5126C14.5251 15 15.3501 15 17 15C18.6499 15 19.4749 15 19.9874 15.5126C20.5 16.0251 20.5 16.8501 20.5 18.5C20.5 20.1499 20.5 20.9749 19.9874 21.4874C19.4749 22 18.6499 22 17 22ZM17.5833 16.9444C17.5833 16.6223 17.3222 16.3611 17 16.3611C16.6778 16.3611 16.4167 16.6223 16.4167 16.9444V17.9167H15.4444C15.1223 17.9167 14.8611 18.1778 14.8611 18.5C14.8611 18.8222 15.1223 19.0833 15.4444 19.0833H16.4167V20.0556C16.4167 20.3777 16.6778 20.6389 17 20.6389C17.3222 20.6389 17.5833 20.3777 17.5833 20.0556V19.0833H18.5556C18.8777 19.0833 19.1389 18.8222 19.1389 18.5C19.1389 18.1778 18.8777 17.9167 18.5556 17.9167H17.5833V16.9444Z" fill="white"/>
</svg>
