<svg width="25" height="24" viewBox="0 0 25 24" fill="none" xmlns="http://www.w3.org/2000/svg">
<circle cx="12.5" cy="6" r="4" fill="white"/>
<path fill-rule="evenodd" clip-rule="evenodd" d="M17 22C15.3501 22 14.5251 22 14.0126 21.4874C13.5 20.9749 13.5 20.1499 13.5 18.5C13.5 16.8501 13.5 16.0251 14.0126 15.5126C14.5251 15 15.3501 15 17 15C18.6499 15 19.4749 15 19.9874 15.5126C20.5 16.0251 20.5 16.8501 20.5 18.5C20.5 20.1499 20.5 20.9749 19.9874 21.4874C19.4749 22 18.6499 22 17 22ZM15.8569 16.532C15.6291 16.3042 15.2598 16.3042 15.032 16.532C14.8042 16.7598 14.8042 17.1291 15.032 17.3569L16.175 18.5L15.032 19.6431C14.8042 19.8709 14.8042 20.2402 15.032 20.468C15.2598 20.6958 15.6291 20.6958 15.8569 20.468L17 19.325L18.1431 20.468C18.3709 20.6958 18.7402 20.6958 18.968 20.468C19.1958 20.2402 19.1958 19.8709 18.968 19.6431L17.825 18.5L18.968 17.3569C19.1958 17.1291 19.1958 16.7598 18.968 16.532C18.7402 16.3042 18.3709 16.3042 18.1431 16.532L17 17.675L15.8569 16.532Z" fill="white"/>
<path opacity="0.5" d="M18.5947 15.0312C18.1699 15 17.6487 15 17 15C15.3501 15 14.5251 15 14.0126 15.5126C13.5 16.0251 13.5 16.8501 13.5 18.5C13.5 19.6663 13.5 20.4204 13.6811 20.9433C13.2971 20.9806 12.9025 21 12.5 21C8.63401 21 5.5 19.2091 5.5 17C5.5 14.7909 8.63401 13 12.5 13C15.1134 13 17.3924 13.8184 18.5947 15.0312Z" fill="white"/>
</svg>
