<svg width="40" height="40" viewBox="0 0 40 40" fill="none" xmlns="http://www.w3.org/2000/svg">
<path opacity="0.5" d="M15.9874 5.33381C15.5816 5.67967 15.3787 5.85261 15.1619 5.99788C14.6651 6.33088 14.1071 6.562 13.5203 6.67785C13.2643 6.72839 12.9986 6.7496 12.467 6.79202L12.4669 6.79202C11.1313 6.89861 10.4635 6.9519 9.90634 7.14869C8.61768 7.60386 7.60405 8.61749 7.14888 9.90616C6.95208 10.4633 6.89879 11.1311 6.79221 12.4668L6.7922 12.4668C6.74978 12.9984 6.72857 13.2642 6.67803 13.5201C6.56219 14.1069 6.33107 14.6649 5.99806 15.1617C5.85279 15.3785 5.67984 15.5814 5.33395 15.9873C4.46489 17.0071 4.03034 17.517 3.77552 18.0502C3.18615 19.2832 3.18615 20.7167 3.77552 21.9498C4.03034 22.4829 4.46488 22.9928 5.33395 24.0126L5.33401 24.0127C5.67982 24.4185 5.85281 24.6215 5.99806 24.8382C6.33107 25.335 6.56219 25.893 6.67803 26.4798C6.72857 26.7358 6.74978 27.0016 6.7922 27.5332L6.79221 27.5332C6.89879 28.8688 6.95208 29.5366 7.14888 30.0938C7.60405 31.3825 8.61768 32.3961 9.90634 32.8513C10.4635 33.0481 11.1313 33.1013 12.4669 33.2079L12.467 33.2079C12.9986 33.2504 13.2643 33.2716 13.5203 33.3221C14.1071 33.438 14.6651 33.6691 15.1619 34.0021C15.3787 34.1474 15.5816 34.3203 15.9875 34.6662C17.0073 35.5353 17.5172 35.9698 18.0503 36.2246C19.2834 36.814 20.7169 36.814 21.95 36.2246C22.4831 35.9698 22.993 35.5353 24.0128 34.6662C24.4187 34.3203 24.6217 34.1474 24.8384 34.0021C25.3352 33.6691 25.8932 33.438 26.48 33.3221C26.736 33.2716 27.0018 33.2504 27.5334 33.2079L27.5334 33.2079C28.869 33.1013 29.5368 33.0481 30.094 32.8513C31.3826 32.3961 32.3963 31.3825 32.8514 30.0938C33.0482 29.5367 33.1015 28.8688 33.2081 27.5333L33.2081 27.5332C33.2505 27.0016 33.2718 26.7358 33.3223 26.4798C33.4381 25.893 33.6693 25.3351 34.0023 24.8382C34.1475 24.6215 34.3205 24.4185 34.6664 24.0126C35.5354 22.9928 35.97 22.4829 36.2248 21.9498C36.8142 20.7167 36.8142 19.2832 36.2248 18.0502C35.97 17.517 35.5354 17.0071 34.6664 15.9873C34.3205 15.5814 34.1475 15.3785 34.0023 15.1617C33.6693 14.6649 33.4381 14.1069 33.3223 13.5201C33.2718 13.2642 33.2505 12.9984 33.2081 12.4668L33.2081 12.4667C33.1015 11.1311 33.0482 10.4633 32.8514 9.90616C32.3963 8.61749 31.3826 7.60386 30.094 7.14869C29.5368 6.9519 28.869 6.89861 27.5334 6.79202L27.5334 6.79202C27.0018 6.7496 26.736 6.72839 26.48 6.67785C25.8932 6.562 25.3352 6.33088 24.8384 5.99788C24.6217 5.85261 24.4187 5.67966 24.0128 5.33377C22.993 4.46469 22.4831 4.03016 21.95 3.77534C20.7169 3.18597 19.2834 3.18597 18.0503 3.77534C17.5172 4.03015 17.0073 4.4647 15.9875 5.33377L15.9874 5.33381Z" fill="#1C274C"/>
<path d="M27.2891 16.4383C27.8188 15.9086 27.8188 15.0498 27.2891 14.52C26.7594 13.9903 25.9005 13.9903 25.3708 14.52L17.2871 22.6038L14.6291 19.9458C14.0993 19.416 13.2405 19.416 12.7108 19.9458C12.181 20.4755 12.181 21.3343 12.7108 21.8641L16.3279 25.4812C16.8576 26.0109 17.7165 26.0109 18.2462 25.4812L27.2891 16.4383Z" fill="#1C274C"/>
</svg>
